<?xml version="1.0" encoding="UTF-8"?> <svg xmlns="http://www.w3.org/2000/svg" xmlns:xlink="http://www.w3.org/1999/xlink" width="500" zoomAndPan="magnify" viewBox="0 0 375 374.999991" height="500" preserveAspectRatio="xMidYMid meet" version="1.0"><defs><clipPath id="4edec830f8"><path d="M 5 5 L 370 5 L 370 370 L 5 370 Z M 5 5 " clip-rule="nonzero"></path></clipPath><clipPath id="d2a68f5745"><path d="M 216.796875 298.828125 L 345.703125 298.828125 L 345.703125 251.953125 L 216.796875 251.953125 Z M 228.515625 263.671875 L 333.984375 263.671875 L 333.984375 287.109375 L 228.515625 287.109375 Z M 216.796875 345.703125 L 251.953125 345.703125 L 251.953125 310.546875 L 216.796875 310.546875 Z M 228.515625 322.265625 L 240.234375 322.265625 L 240.234375 333.984375 L 228.515625 333.984375 Z M 328.125 310.546875 C 318.433594 310.546875 310.546875 318.433594 310.546875 328.125 C 310.546875 337.816406 318.433594 345.703125 328.125 345.703125 C 337.816406 345.703125 345.703125 337.816406 345.703125 328.125 C 345.703125 318.433594 337.816406 310.546875 328.125 310.546875 Z M 328.125 333.984375 C 324.894531 333.984375 322.265625 331.351562 322.265625 328.125 C 322.265625 324.894531 324.894531 322.265625 328.125 322.265625 C 331.351562 322.265625 333.984375 324.894531 333.984375 328.125 C 333.984375 331.351562 331.351562 333.984375 328.125 333.984375 Z M 281.25 310.546875 C 271.558594 310.546875 263.671875 318.433594 263.671875 328.125 C 263.671875 337.816406 271.558594 345.703125 281.25 345.703125 C 290.941406 345.703125 298.828125 337.816406 298.828125 328.125 C 298.828125 318.433594 290.941406 310.546875 281.25 310.546875 Z M 281.25 333.984375 C 278.019531 333.984375 275.390625 331.351562 275.390625 328.125 C 275.390625 324.894531 278.019531 322.265625 281.25 322.265625 C 284.476562 322.265625 287.109375 324.894531 287.109375 328.125 C 287.109375 331.351562 284.476562 333.984375 281.25 333.984375 Z M 325.113281 111.328125 C 312.796875 111.328125 301.21875 116.4375 292.96875 125.261719 C 284.71875 116.4375 273.140625 111.328125 260.824219 111.328125 C 236.546875 111.328125 216.796875 131.078125 216.796875 155.355469 L 216.796875 158.898438 C 216.796875 171.273438 222.046875 183.144531 231.203125 191.476562 L 271.957031 228.515625 L 222.65625 228.515625 C 220.539062 228.515625 218.492188 228.765625 216.5 229.195312 C 213.476562 184.476562 182.539062 146.882812 138.796875 135.578125 L 136.839844 131.671875 C 141.699219 127.800781 145.628906 122.847656 148.332031 117.1875 L 152.34375 117.1875 C 165.269531 117.1875 175.78125 106.675781 175.78125 93.75 C 175.78125 89.441406 174.535156 85.457031 172.5 81.988281 C 174.617188 76.539062 175.78125 70.703125 175.78125 64.867188 C 175.78125 32.332031 149.308594 5.859375 116.773438 5.859375 L 105.890625 5.859375 C 73.347656 5.859375 46.875 32.332031 46.875 64.867188 C 46.875 70.699219 48.042969 76.539062 50.15625 81.988281 C 48.125 85.464844 46.875 89.449219 46.875 93.75 C 46.875 106.675781 57.386719 117.1875 70.3125 117.1875 L 74.328125 117.1875 C 77.027344 122.847656 80.960938 127.800781 85.816406 131.671875 L 83.859375 135.578125 C 37.792969 147.480469 5.859375 188.539062 5.859375 236.378906 L 5.859375 246.09375 C 5.859375 281.628906 34.777344 310.546875 70.3125 310.546875 L 77.25 310.546875 C 79.675781 317.347656 86.121094 322.265625 93.75 322.265625 L 111.328125 322.265625 L 111.328125 339.84375 C 111.328125 355.996094 124.472656 369.140625 140.625 369.140625 C 156.78125 369.140625 169.921875 355.996094 169.921875 339.84375 C 169.921875 336.613281 172.554688 333.984375 175.78125 333.984375 L 193.359375 333.984375 L 193.359375 339.84375 C 193.359375 355.996094 206.5 369.140625 222.65625 369.140625 L 339.84375 369.140625 C 355.996094 369.140625 369.140625 355.996094 369.140625 339.84375 L 369.140625 257.8125 C 369.140625 241.65625 355.996094 228.515625 339.84375 228.515625 L 313.980469 228.515625 L 354.726562 191.472656 C 363.890625 183.148438 369.140625 171.269531 369.140625 158.898438 L 369.140625 155.355469 C 369.140625 131.082031 349.386719 111.328125 325.113281 111.328125 Z M 193.359375 298.828125 L 181.640625 298.828125 L 181.640625 295.246094 C 181.640625 285.730469 177.078125 277.265625 169.921875 271.890625 L 169.921875 251.953125 L 193.949219 251.953125 C 193.5625 253.847656 193.359375 255.808594 193.359375 257.8125 Z M 134.765625 281.25 C 134.765625 284.476562 132.136719 287.109375 128.90625 287.109375 L 93.75 287.109375 C 90.523438 287.109375 87.890625 284.476562 87.890625 281.25 L 87.890625 269.53125 C 87.890625 266.300781 90.523438 263.671875 93.75 263.671875 L 128.90625 263.671875 C 132.136719 263.671875 134.765625 266.300781 134.765625 269.53125 Z M 128.90625 298.828125 C 130.96875 298.828125 132.925781 298.40625 134.765625 297.75 L 134.765625 304.6875 C 134.765625 307.914062 132.136719 310.546875 128.90625 310.546875 L 123.046875 310.546875 L 123.046875 298.828125 Z M 146.484375 276.445312 L 155.230469 277.902344 C 163.746094 279.320312 169.921875 286.617188 169.921875 295.246094 L 169.921875 298.828125 L 146.484375 298.828125 Z M 133.175781 151.992188 L 130.246094 184.195312 L 118.832031 169.921875 Z M 152.34375 105.46875 L 151.875 105.46875 C 152.152344 103.546875 152.34375 101.601562 152.34375 99.609375 L 152.34375 82.03125 C 158.808594 82.03125 164.0625 87.285156 164.0625 93.75 C 164.0625 100.214844 158.808594 105.46875 152.34375 105.46875 Z M 70.3125 105.46875 C 63.851562 105.46875 58.59375 100.214844 58.59375 93.75 C 58.59375 87.285156 63.851562 82.03125 70.3125 82.03125 L 70.3125 99.609375 C 70.3125 101.601562 70.507812 103.546875 70.78125 105.46875 Z M 76.171875 70.3125 L 70.3125 70.3125 C 66.421875 70.3125 62.808594 71.355469 59.574219 73.042969 C 58.941406 70.359375 58.59375 67.609375 58.59375 64.867188 C 58.59375 38.792969 79.8125 17.578125 105.882812 17.578125 L 116.765625 17.578125 C 142.84375 17.578125 164.0625 38.792969 164.0625 64.867188 C 164.0625 67.609375 163.714844 70.359375 163.082031 73.042969 C 159.855469 71.355469 156.234375 70.3125 152.34375 70.3125 L 145.320312 70.3125 C 135.738281 70.3125 126.460938 67.503906 118.5 62.191406 L 111.328125 57.410156 L 104.15625 62.191406 C 96.195312 67.503906 86.914062 70.3125 77.339844 70.3125 Z M 82.03125 99.609375 L 82.03125 81.847656 C 92.253906 81.058594 102.066406 77.671875 110.660156 71.945312 L 111.328125 71.496094 L 111.996094 71.941406 C 120.585938 77.671875 130.402344 81.050781 140.625 81.84375 L 140.625 99.609375 C 140.625 115.761719 127.480469 128.90625 111.328125 128.90625 C 95.175781 128.90625 82.03125 115.761719 82.03125 99.609375 Z M 111.328125 140.625 C 116.765625 140.625 121.949219 139.535156 126.703125 137.605469 L 127.84375 139.890625 L 111.328125 160.539062 L 94.804688 139.890625 L 95.949219 137.605469 C 100.703125 139.535156 105.890625 140.625 111.328125 140.625 Z M 103.820312 169.921875 L 92.40625 184.195312 L 89.476562 151.992188 Z M 77.527344 149.929688 L 83.375 214.246094 L 111.328125 179.300781 L 139.28125 214.246094 L 145.128906 149.929688 C 180.386719 163.066406 204.273438 196.199219 205 234.589844 C 202.875 236.214844 200.980469 238.105469 199.371094 240.238281 L 169.921875 240.238281 L 169.921875 193.363281 L 158.203125 193.363281 L 158.203125 266.625 C 157.84375 266.554688 157.523438 266.414062 157.160156 266.355469 L 145.640625 264.433594 C 143.4375 257.230469 136.8125 251.953125 128.90625 251.953125 L 93.75 251.953125 C 86.28125 251.953125 79.921875 256.65625 77.382812 263.242188 C 69.46875 257.886719 64.453125 248.90625 64.453125 239.039062 L 64.453125 193.359375 L 52.734375 193.359375 L 52.734375 239.039062 C 52.734375 239.441406 52.816406 239.828125 52.828125 240.234375 L 17.578125 240.234375 L 17.578125 236.378906 C 17.578125 197.226562 41.714844 163.269531 77.527344 149.929688 Z M 17.925781 251.953125 L 54.855469 251.953125 C 58.34375 262.429688 66.011719 271.140625 76.171875 275.980469 L 76.171875 298.828125 L 70.3125 298.828125 C 43.21875 298.828125 20.855469 278.277344 17.925781 251.953125 Z M 93.75 310.546875 C 90.523438 310.546875 87.890625 307.914062 87.890625 304.6875 L 87.890625 297.75 C 89.730469 298.40625 91.6875 298.828125 93.75 298.828125 L 111.328125 298.828125 L 111.328125 310.546875 Z M 175.78125 322.265625 C 166.089844 322.265625 158.203125 330.152344 158.203125 339.84375 C 158.203125 349.535156 150.316406 357.421875 140.625 357.421875 C 130.933594 357.421875 123.046875 349.535156 123.046875 339.84375 L 123.046875 322.265625 L 128.90625 322.265625 C 136.535156 322.265625 142.980469 317.347656 145.40625 310.546875 L 193.359375 310.546875 L 193.359375 322.265625 Z M 357.421875 257.8125 L 357.421875 339.84375 C 357.421875 349.535156 349.535156 357.421875 339.84375 357.421875 L 222.65625 357.421875 C 212.964844 357.421875 205.078125 349.535156 205.078125 339.84375 L 205.078125 257.8125 C 205.078125 248.121094 212.964844 240.234375 222.65625 240.234375 L 339.84375 240.234375 C 349.535156 240.234375 357.421875 248.121094 357.421875 257.8125 Z M 228.515625 155.355469 C 228.515625 137.542969 243.011719 123.046875 260.824219 123.046875 C 271.652344 123.046875 281.699219 128.425781 287.707031 137.429688 L 292.96875 145.328125 L 298.230469 137.429688 C 304.234375 128.425781 314.285156 123.046875 325.113281 123.046875 C 341.910156 123.046875 355.738281 135.9375 357.269531 152.34375 L 324.261719 152.34375 L 309.796875 186.09375 L 285.695312 143.917969 L 273.367188 180.894531 L 260.742188 164.0625 L 228.976562 164.0625 C 228.703125 162.363281 228.515625 160.640625 228.515625 158.898438 Z M 346.84375 182.804688 L 299.21875 226.101562 C 295.792969 229.21875 290.144531 229.21875 286.71875 226.101562 L 239.089844 182.804688 C 236.816406 180.738281 234.902344 178.359375 233.324219 175.78125 L 254.882812 175.78125 L 277.410156 205.820312 L 288.519531 172.488281 L 311.296875 212.34375 L 331.984375 164.0625 L 356.957031 164.0625 C 355.792969 171.214844 352.277344 177.867188 346.84375 182.804688 Z M 117.1875 240.234375 L 105.46875 240.234375 L 105.46875 193.359375 L 117.1875 193.359375 Z M 117.1875 240.234375 " clip-rule="nonzero"></path></clipPath><linearGradient x1="32" gradientTransform="matrix(5.859375, 0, 0, 5.859375, 0.0000045, 0)" y1="62.999999" x2="32" gradientUnits="userSpaceOnUse" y2="1" id="7e39d04912"><stop stop-opacity="1" stop-color="rgb(7.798767%, 53.29895%, 85.899353%)" offset="0"></stop><stop stop-opacity="1" stop-color="rgb(7.774353%, 53.157043%, 85.78949%)" offset="0.0078125"></stop><stop stop-opacity="1" stop-color="rgb(7.727051%, 52.871704%, 85.571289%)" offset="0.015625"></stop><stop stop-opacity="1" stop-color="rgb(7.678223%, 52.587891%, 85.353088%)" offset="0.0234375"></stop><stop stop-opacity="1" stop-color="rgb(7.629395%, 52.304077%, 85.136414%)" offset="0.03125"></stop><stop stop-opacity="1" stop-color="rgb(7.580566%, 52.018738%, 84.918213%)" offset="0.0390625"></stop><stop stop-opacity="1" stop-color="rgb(7.533264%, 51.734924%, 84.700012%)" offset="0.046875"></stop><stop stop-opacity="1" stop-color="rgb(7.484436%, 51.451111%, 84.481812%)" offset="0.0546875"></stop><stop stop-opacity="1" stop-color="rgb(7.435608%, 51.165771%, 84.263611%)" offset="0.0625"></stop><stop stop-opacity="1" stop-color="rgb(7.38678%, 50.881958%, 84.04541%)" offset="0.0703125"></stop><stop stop-opacity="1" stop-color="rgb(7.339478%, 50.598145%, 83.827209%)" offset="0.078125"></stop><stop stop-opacity="1" stop-color="rgb(7.290649%, 50.312805%, 83.610535%)" offset="0.0859375"></stop><stop stop-opacity="1" stop-color="rgb(7.241821%, 50.028992%, 83.392334%)" offset="0.09375"></stop><stop stop-opacity="1" stop-color="rgb(7.192993%, 49.743652%, 83.174133%)" offset="0.101562"></stop><stop stop-opacity="1" stop-color="rgb(7.145691%, 49.459839%, 82.955933%)" offset="0.109375"></stop><stop stop-opacity="1" stop-color="rgb(7.096863%, 49.176025%, 82.737732%)" offset="0.117187"></stop><stop stop-opacity="1" stop-color="rgb(7.048035%, 48.890686%, 82.519531%)" offset="0.125"></stop><stop stop-opacity="1" stop-color="rgb(6.999207%, 48.606873%, 82.302856%)" offset="0.132812"></stop><stop stop-opacity="1" stop-color="rgb(6.951904%, 48.323059%, 82.084656%)" offset="0.140625"></stop><stop stop-opacity="1" stop-color="rgb(6.903076%, 48.03772%, 81.866455%)" offset="0.148437"></stop><stop stop-opacity="1" stop-color="rgb(6.854248%, 47.753906%, 81.648254%)" offset="0.15625"></stop><stop stop-opacity="1" stop-color="rgb(6.80542%, 47.468567%, 81.430054%)" offset="0.164062"></stop><stop stop-opacity="1" stop-color="rgb(6.758118%, 47.184753%, 81.211853%)" offset="0.171875"></stop><stop stop-opacity="1" stop-color="rgb(6.70929%, 46.90094%, 80.993652%)" offset="0.179687"></stop><stop stop-opacity="1" stop-color="rgb(6.660461%, 46.615601%, 80.776978%)" offset="0.1875"></stop><stop stop-opacity="1" stop-color="rgb(6.611633%, 46.331787%, 80.558777%)" offset="0.195312"></stop><stop stop-opacity="1" stop-color="rgb(6.564331%, 46.047974%, 80.340576%)" offset="0.203125"></stop><stop stop-opacity="1" stop-color="rgb(6.515503%, 45.762634%, 80.122375%)" offset="0.210937"></stop><stop stop-opacity="1" stop-color="rgb(6.466675%, 45.478821%, 79.904175%)" offset="0.21875"></stop><stop stop-opacity="1" stop-color="rgb(6.417847%, 45.195007%, 79.685974%)" offset="0.226562"></stop><stop stop-opacity="1" stop-color="rgb(6.370544%, 44.909668%, 79.467773%)" offset="0.234375"></stop><stop stop-opacity="1" stop-color="rgb(6.321716%, 44.625854%, 79.251099%)" offset="0.242187"></stop><stop stop-opacity="1" stop-color="rgb(6.272888%, 44.340515%, 79.032898%)" offset="0.25"></stop><stop stop-opacity="1" stop-color="rgb(6.22406%, 44.056702%, 78.814697%)" offset="0.257812"></stop><stop stop-opacity="1" stop-color="rgb(6.176758%, 43.772888%, 78.596497%)" offset="0.265625"></stop><stop stop-opacity="1" stop-color="rgb(6.12793%, 43.487549%, 78.378296%)" offset="0.273437"></stop><stop stop-opacity="1" stop-color="rgb(6.079102%, 43.203735%, 78.160095%)" offset="0.28125"></stop><stop stop-opacity="1" stop-color="rgb(6.031799%, 42.919922%, 77.94342%)" offset="0.289062"></stop><stop stop-opacity="1" stop-color="rgb(5.982971%, 42.634583%, 77.72522%)" offset="0.296875"></stop><stop stop-opacity="1" stop-color="rgb(5.934143%, 42.350769%, 77.507019%)" offset="0.304687"></stop><stop stop-opacity="1" stop-color="rgb(5.885315%, 42.06543%, 77.288818%)" offset="0.3125"></stop><stop stop-opacity="1" stop-color="rgb(5.838013%, 41.781616%, 77.070618%)" offset="0.320312"></stop><stop stop-opacity="1" stop-color="rgb(5.789185%, 41.497803%, 76.852417%)" offset="0.328125"></stop><stop stop-opacity="1" stop-color="rgb(5.740356%, 41.212463%, 76.634216%)" offset="0.335938"></stop><stop stop-opacity="1" stop-color="rgb(5.691528%, 40.92865%, 76.417542%)" offset="0.34375"></stop><stop stop-opacity="1" stop-color="rgb(5.644226%, 40.644836%, 76.199341%)" offset="0.351562"></stop><stop stop-opacity="1" stop-color="rgb(5.595398%, 40.359497%, 75.98114%)" offset="0.359375"></stop><stop stop-opacity="1" stop-color="rgb(5.54657%, 40.075684%, 75.762939%)" offset="0.367187"></stop><stop stop-opacity="1" stop-color="rgb(5.497742%, 39.79187%, 75.544739%)" offset="0.375"></stop><stop stop-opacity="1" stop-color="rgb(5.450439%, 39.506531%, 75.326538%)" offset="0.382812"></stop><stop stop-opacity="1" stop-color="rgb(5.401611%, 39.222717%, 75.109863%)" offset="0.390625"></stop><stop stop-opacity="1" stop-color="rgb(5.352783%, 38.937378%, 74.891663%)" offset="0.398437"></stop><stop stop-opacity="1" stop-color="rgb(5.303955%, 38.653564%, 74.673462%)" offset="0.40625"></stop><stop stop-opacity="1" stop-color="rgb(5.256653%, 38.369751%, 74.455261%)" offset="0.414062"></stop><stop stop-opacity="1" stop-color="rgb(5.207825%, 38.084412%, 74.237061%)" offset="0.421875"></stop><stop stop-opacity="1" stop-color="rgb(5.158997%, 37.800598%, 74.01886%)" offset="0.429688"></stop><stop stop-opacity="1" stop-color="rgb(5.110168%, 37.516785%, 73.800659%)" offset="0.4375"></stop><stop stop-opacity="1" stop-color="rgb(5.062866%, 37.231445%, 73.583984%)" offset="0.445312"></stop><stop stop-opacity="1" stop-color="rgb(5.014038%, 36.947632%, 73.365784%)" offset="0.453125"></stop><stop stop-opacity="1" stop-color="rgb(4.96521%, 36.662292%, 73.147583%)" offset="0.460937"></stop><stop stop-opacity="1" stop-color="rgb(4.916382%, 36.378479%, 72.929382%)" offset="0.46875"></stop><stop stop-opacity="1" stop-color="rgb(4.86908%, 36.094666%, 72.711182%)" offset="0.476562"></stop><stop stop-opacity="1" stop-color="rgb(4.820251%, 35.809326%, 72.492981%)" offset="0.484375"></stop><stop stop-opacity="1" stop-color="rgb(4.771423%, 35.525513%, 72.27478%)" offset="0.492187"></stop><stop stop-opacity="1" stop-color="rgb(4.722595%, 35.241699%, 72.058105%)" offset="0.5"></stop><stop stop-opacity="1" stop-color="rgb(4.675293%, 34.95636%, 71.839905%)" offset="0.507812"></stop><stop stop-opacity="1" stop-color="rgb(4.626465%, 34.672546%, 71.621704%)" offset="0.515625"></stop><stop stop-opacity="1" stop-color="rgb(4.577637%, 34.388733%, 71.403503%)" offset="0.523438"></stop><stop stop-opacity="1" stop-color="rgb(4.528809%, 34.103394%, 71.185303%)" offset="0.53125"></stop><stop stop-opacity="1" stop-color="rgb(4.481506%, 33.81958%, 70.967102%)" offset="0.539062"></stop><stop stop-opacity="1" stop-color="rgb(4.432678%, 33.534241%, 70.750427%)" offset="0.546875"></stop><stop stop-opacity="1" stop-color="rgb(4.38385%, 33.250427%, 70.532227%)" offset="0.554688"></stop><stop stop-opacity="1" stop-color="rgb(4.335022%, 32.966614%, 70.314026%)" offset="0.5625"></stop><stop stop-opacity="1" stop-color="rgb(4.28772%, 32.681274%, 70.095825%)" offset="0.570313"></stop><stop stop-opacity="1" stop-color="rgb(4.238892%, 32.397461%, 69.877625%)" offset="0.578125"></stop><stop stop-opacity="1" stop-color="rgb(4.190063%, 32.113647%, 69.659424%)" offset="0.585938"></stop><stop stop-opacity="1" stop-color="rgb(4.142761%, 31.828308%, 69.441223%)" offset="0.59375"></stop><stop stop-opacity="1" stop-color="rgb(4.093933%, 31.544495%, 69.224548%)" offset="0.601562"></stop><stop stop-opacity="1" stop-color="rgb(4.045105%, 31.259155%, 69.006348%)" offset="0.609375"></stop><stop stop-opacity="1" stop-color="rgb(3.996277%, 30.975342%, 68.788147%)" offset="0.617188"></stop><stop stop-opacity="1" stop-color="rgb(3.948975%, 30.691528%, 68.569946%)" offset="0.625"></stop><stop stop-opacity="1" stop-color="rgb(3.900146%, 30.406189%, 68.351746%)" offset="0.632812"></stop><stop stop-opacity="1" stop-color="rgb(3.851318%, 30.122375%, 68.133545%)" offset="0.640625"></stop><stop stop-opacity="1" stop-color="rgb(3.80249%, 29.838562%, 67.91687%)" offset="0.648438"></stop><stop stop-opacity="1" stop-color="rgb(3.755188%, 29.553223%, 67.698669%)" offset="0.65625"></stop><stop stop-opacity="1" stop-color="rgb(3.70636%, 29.269409%, 67.480469%)" offset="0.664063"></stop><stop stop-opacity="1" stop-color="rgb(3.657532%, 28.985596%, 67.262268%)" offset="0.671875"></stop><stop stop-opacity="1" stop-color="rgb(3.608704%, 28.700256%, 67.044067%)" offset="0.679688"></stop><stop stop-opacity="1" stop-color="rgb(3.561401%, 28.416443%, 66.825867%)" offset="0.6875"></stop><stop stop-opacity="1" stop-color="rgb(3.512573%, 28.131104%, 66.607666%)" offset="0.695312"></stop><stop stop-opacity="1" stop-color="rgb(3.463745%, 27.84729%, 66.390991%)" offset="0.703125"></stop><stop stop-opacity="1" stop-color="rgb(3.414917%, 27.563477%, 66.172791%)" offset="0.710938"></stop><stop stop-opacity="1" stop-color="rgb(3.367615%, 27.278137%, 65.95459%)" offset="0.71875"></stop><stop stop-opacity="1" stop-color="rgb(3.318787%, 26.994324%, 65.736389%)" offset="0.726562"></stop><stop stop-opacity="1" stop-color="rgb(3.269958%, 26.71051%, 65.518188%)" offset="0.734375"></stop><stop stop-opacity="1" stop-color="rgb(3.22113%, 26.425171%, 65.299988%)" offset="0.742188"></stop><stop stop-opacity="1" stop-color="rgb(3.173828%, 26.141357%, 65.083313%)" offset="0.75"></stop><stop stop-opacity="1" stop-color="rgb(3.125%, 25.856018%, 64.865112%)" offset="0.757813"></stop><stop stop-opacity="1" stop-color="rgb(3.076172%, 25.572205%, 64.646912%)" offset="0.765625"></stop><stop stop-opacity="1" stop-color="rgb(3.027344%, 25.288391%, 64.428711%)" offset="0.773438"></stop><stop stop-opacity="1" stop-color="rgb(2.980042%, 25.003052%, 64.21051%)" offset="0.78125"></stop><stop stop-opacity="1" stop-color="rgb(2.931213%, 24.719238%, 63.99231%)" offset="0.789062"></stop><stop stop-opacity="1" stop-color="rgb(2.882385%, 24.435425%, 63.774109%)" offset="0.796875"></stop><stop stop-opacity="1" stop-color="rgb(2.833557%, 24.150085%, 63.557434%)" offset="0.804688"></stop><stop stop-opacity="1" stop-color="rgb(2.786255%, 23.866272%, 63.339233%)" offset="0.8125"></stop><stop stop-opacity="1" stop-color="rgb(2.737427%, 23.582458%, 63.121033%)" offset="0.820312"></stop><stop stop-opacity="1" stop-color="rgb(2.688599%, 23.297119%, 62.902832%)" offset="0.828125"></stop><stop stop-opacity="1" stop-color="rgb(2.639771%, 23.013306%, 62.684631%)" offset="0.835938"></stop><stop stop-opacity="1" stop-color="rgb(2.592468%, 22.727966%, 62.466431%)" offset="0.84375"></stop><stop stop-opacity="1" stop-color="rgb(2.54364%, 22.444153%, 62.24823%)" offset="0.851563"></stop><stop stop-opacity="1" stop-color="rgb(2.494812%, 22.160339%, 62.031555%)" offset="0.859375"></stop><stop stop-opacity="1" stop-color="rgb(2.445984%, 21.875%, 61.813354%)" offset="0.867188"></stop><stop stop-opacity="1" stop-color="rgb(2.398682%, 21.591187%, 61.595154%)" offset="0.875"></stop><stop stop-opacity="1" stop-color="rgb(2.349854%, 21.307373%, 61.376953%)" offset="0.882812"></stop><stop stop-opacity="1" stop-color="rgb(2.301025%, 21.022034%, 61.158752%)" offset="0.890625"></stop><stop stop-opacity="1" stop-color="rgb(2.252197%, 20.73822%, 60.940552%)" offset="0.898438"></stop><stop stop-opacity="1" stop-color="rgb(2.204895%, 20.452881%, 60.723877%)" offset="0.90625"></stop><stop stop-opacity="1" stop-color="rgb(2.156067%, 20.169067%, 60.505676%)" offset="0.914062"></stop><stop stop-opacity="1" stop-color="rgb(2.107239%, 19.885254%, 60.287476%)" offset="0.921875"></stop><stop stop-opacity="1" stop-color="rgb(2.059937%, 19.599915%, 60.069275%)" offset="0.929688"></stop><stop stop-opacity="1" stop-color="rgb(2.011108%, 19.316101%, 59.851074%)" offset="0.9375"></stop><stop stop-opacity="1" stop-color="rgb(1.96228%, 19.032288%, 59.632874%)" offset="0.945313"></stop><stop stop-opacity="1" stop-color="rgb(1.913452%, 18.746948%, 59.414673%)" offset="0.953125"></stop><stop stop-opacity="1" stop-color="rgb(1.86615%, 18.463135%, 59.197998%)" offset="0.960938"></stop><stop stop-opacity="1" stop-color="rgb(1.817322%, 18.179321%, 58.979797%)" offset="0.96875"></stop><stop stop-opacity="1" stop-color="rgb(1.768494%, 17.893982%, 58.761597%)" offset="0.976562"></stop><stop stop-opacity="1" stop-color="rgb(1.719666%, 17.610168%, 58.543396%)" offset="0.984375"></stop><stop stop-opacity="1" stop-color="rgb(1.672363%, 17.324829%, 58.325195%)" offset="0.992188"></stop><stop stop-opacity="1" stop-color="rgb(1.623535%, 17.041016%, 58.106995%)" offset="1"></stop></linearGradient></defs><g clip-path="url(#4edec830f8)"><g clip-path="url(#d2a68f5745)"><path fill="url(#7e39d04912)" d="M 5.859375 5.859375 L 5.859375 369.140625 L 369.140625 369.140625 L 369.140625 5.859375 Z M 5.859375 5.859375 " fill-rule="nonzero"></path></g></g></svg> 