<?xml version="1.0" encoding="UTF-8"?> <svg xmlns="http://www.w3.org/2000/svg" xmlns:xlink="http://www.w3.org/1999/xlink" width="500" zoomAndPan="magnify" viewBox="0 0 375 374.999991" height="500" preserveAspectRatio="xMidYMid meet" version="1.0"><defs><clipPath id="fd82671fd2"><path d="M 5 5 L 370 5 L 370 370 L 5 370 Z M 5 5 " clip-rule="nonzero"></path></clipPath><clipPath id="b88a9d17dc"><path d="M 275.390625 240.234375 C 256.003906 240.234375 240.234375 256.003906 240.234375 275.390625 C 240.234375 294.777344 256.003906 310.546875 275.390625 310.546875 C 294.777344 310.546875 310.546875 294.777344 310.546875 275.390625 C 310.546875 256.003906 294.777344 240.234375 275.390625 240.234375 Z M 275.390625 298.828125 C 262.464844 298.828125 251.953125 288.316406 251.953125 275.390625 C 251.953125 262.464844 262.464844 251.953125 275.390625 251.953125 C 288.316406 251.953125 298.828125 262.464844 298.828125 275.390625 C 298.828125 288.316406 288.316406 298.828125 275.390625 298.828125 Z M 369.140625 46.875 C 369.140625 24.261719 350.742188 5.859375 328.125 5.859375 C 305.507812 5.859375 287.109375 24.261719 287.109375 46.875 L 5.859375 46.875 L 5.859375 281.25 L 181.941406 281.25 C 184.988281 330.210938 225.679688 369.140625 275.390625 369.140625 C 327.082031 369.140625 369.140625 327.082031 369.140625 275.390625 C 369.140625 245.863281 355.386719 219.519531 333.984375 202.324219 L 333.984375 87.421875 C 353.828125 84.5625 369.140625 67.492188 369.140625 46.875 Z M 328.125 17.578125 C 344.277344 17.578125 357.421875 30.71875 357.421875 46.875 C 357.421875 63.027344 344.277344 76.171875 328.125 76.171875 C 311.96875 76.171875 298.828125 63.027344 298.828125 46.875 C 298.828125 30.71875 311.96875 17.578125 328.125 17.578125 Z M 193.359375 230.101562 C 190.550781 235.164062 188.230469 240.515625 186.394531 246.09375 L 181.640625 246.09375 L 181.640625 199.21875 L 193.359375 199.21875 Z M 269.53125 193.65625 L 269.53125 217.09375 C 239.964844 220.046875 216.796875 245.0625 216.796875 275.390625 C 216.796875 283.960938 218.695312 292.089844 222.015625 299.4375 L 201.691406 311.171875 C 196.40625 300.34375 193.359375 288.226562 193.359375 275.390625 C 193.359375 232.136719 227.03125 196.679688 269.53125 193.65625 Z M 275.390625 322.265625 C 249.542969 322.265625 228.515625 301.234375 228.515625 275.390625 C 228.515625 249.542969 249.542969 228.515625 275.390625 228.515625 C 301.234375 228.515625 322.265625 249.542969 322.265625 275.390625 C 322.265625 301.234375 301.234375 322.265625 275.390625 322.265625 Z M 275.390625 357.421875 C 247.183594 357.421875 222.257812 343.105469 207.492188 321.355469 L 227.898438 309.574219 C 238.550781 324.328125 255.84375 333.984375 275.390625 333.984375 C 294.9375 333.984375 312.226562 324.328125 322.878906 309.574219 L 343.289062 321.355469 C 328.523438 343.105469 303.597656 357.421875 275.390625 357.421875 Z M 357.421875 275.390625 C 357.421875 288.226562 354.375 300.34375 349.089844 311.171875 L 328.761719 299.4375 C 332.085938 292.089844 333.984375 283.960938 333.984375 275.390625 C 333.984375 245.0625 310.816406 220.042969 281.25 217.09375 L 281.25 193.65625 C 323.746094 196.679688 357.421875 232.136719 357.421875 275.390625 Z M 275.390625 181.640625 C 247.382812 181.640625 222.269531 194.050781 205.078125 213.589844 L 205.078125 187.5 L 169.921875 187.5 L 169.921875 257.8125 L 183.351562 257.8125 C 182.625 261.636719 182.183594 265.558594 181.941406 269.53125 L 17.578125 269.53125 L 17.578125 58.59375 L 288.835938 58.59375 C 290.238281 63.269531 292.464844 67.574219 295.324219 71.394531 L 259.488281 107.230469 C 257.191406 106.128906 254.660156 105.46875 251.953125 105.46875 C 249.246094 105.46875 246.714844 106.128906 244.421875 107.230469 L 232.617188 95.425781 C 233.710938 93.128906 234.375 90.597656 234.375 87.890625 C 234.375 78.199219 226.488281 70.3125 216.796875 70.3125 C 207.105469 70.3125 199.21875 78.199219 199.21875 87.890625 C 199.21875 90.597656 199.878906 93.128906 200.980469 95.417969 L 171.597656 124.804688 C 169.300781 123.707031 166.769531 123.046875 164.0625 123.046875 C 154.371094 123.046875 146.484375 130.933594 146.484375 140.625 C 146.484375 150.316406 154.371094 158.203125 164.0625 158.203125 C 173.753906 158.203125 181.640625 150.316406 181.640625 140.625 C 181.640625 137.917969 180.976562 135.386719 179.875 133.09375 L 209.261719 103.710938 C 211.558594 104.808594 214.089844 105.46875 216.796875 105.46875 C 219.503906 105.46875 222.035156 104.804688 224.324219 103.703125 L 236.132812 115.511719 C 235.035156 117.808594 234.375 120.339844 234.375 123.046875 C 234.375 132.738281 242.261719 140.625 251.953125 140.625 C 261.644531 140.625 269.53125 132.738281 269.53125 123.046875 C 269.53125 120.339844 268.867188 117.808594 267.765625 115.515625 L 303.609375 79.679688 C 308.96875 83.699219 315.332031 86.425781 322.265625 87.425781 L 322.265625 194.332031 C 308.457031 186.308594 292.476562 181.640625 275.390625 181.640625 Z M 251.953125 117.1875 C 255.179688 117.1875 257.8125 119.8125 257.8125 123.046875 C 257.8125 126.28125 255.179688 128.90625 251.953125 128.90625 C 248.722656 128.90625 246.09375 126.28125 246.09375 123.046875 C 246.09375 119.8125 248.722656 117.1875 251.953125 117.1875 Z M 210.9375 87.890625 C 210.9375 84.65625 213.570312 82.03125 216.796875 82.03125 C 220.023438 82.03125 222.65625 84.65625 222.65625 87.890625 C 222.65625 91.125 220.023438 93.75 216.796875 93.75 C 213.570312 93.75 210.9375 91.125 210.9375 87.890625 Z M 169.921875 140.625 C 169.921875 143.859375 167.292969 146.484375 164.0625 146.484375 C 160.832031 146.484375 158.203125 143.859375 158.203125 140.625 C 158.203125 137.390625 160.832031 134.765625 164.0625 134.765625 C 167.292969 134.765625 169.921875 137.390625 169.921875 140.625 Z M 41.015625 82.03125 L 29.296875 82.03125 L 29.296875 70.3125 L 41.015625 70.3125 Z M 134.765625 82.03125 L 52.734375 82.03125 L 52.734375 70.3125 L 134.765625 70.3125 Z M 41.015625 105.46875 L 29.296875 105.46875 L 29.296875 93.75 L 41.015625 93.75 Z M 134.765625 105.46875 L 52.734375 105.46875 L 52.734375 93.75 L 134.765625 93.75 Z M 41.015625 128.90625 L 29.296875 128.90625 L 29.296875 117.1875 L 41.015625 117.1875 Z M 134.765625 128.90625 L 52.734375 128.90625 L 52.734375 117.1875 L 134.765625 117.1875 Z M 41.015625 152.34375 L 29.296875 152.34375 L 29.296875 140.625 L 41.015625 140.625 Z M 134.765625 152.34375 L 52.734375 152.34375 L 52.734375 140.625 L 134.765625 140.625 Z M 29.296875 257.8125 L 64.453125 257.8125 L 64.453125 199.21875 L 29.296875 199.21875 Z M 41.015625 210.9375 L 52.734375 210.9375 L 52.734375 246.09375 L 41.015625 246.09375 Z M 76.171875 257.8125 L 111.328125 257.8125 L 111.328125 210.9375 L 76.171875 210.9375 Z M 87.890625 222.65625 L 99.609375 222.65625 L 99.609375 246.09375 L 87.890625 246.09375 Z M 123.046875 257.8125 L 158.203125 257.8125 L 158.203125 164.0625 L 123.046875 164.0625 Z M 134.765625 175.78125 L 146.484375 175.78125 L 146.484375 246.09375 L 134.765625 246.09375 Z M 134.765625 175.78125 " clip-rule="nonzero"></path></clipPath><linearGradient x1="32" gradientTransform="matrix(5.859375, 0, 0, 5.859375, 0.0000045, 0)" y1="62.999999" x2="32" gradientUnits="userSpaceOnUse" y2="1" id="fcbf63de7a"><stop stop-opacity="1" stop-color="rgb(7.798767%, 53.29895%, 85.899353%)" offset="0"></stop><stop stop-opacity="1" stop-color="rgb(7.774353%, 53.157043%, 85.78949%)" offset="0.0078125"></stop><stop stop-opacity="1" stop-color="rgb(7.727051%, 52.871704%, 85.571289%)" offset="0.015625"></stop><stop stop-opacity="1" stop-color="rgb(7.678223%, 52.587891%, 85.353088%)" offset="0.0234375"></stop><stop stop-opacity="1" stop-color="rgb(7.629395%, 52.304077%, 85.136414%)" offset="0.03125"></stop><stop stop-opacity="1" stop-color="rgb(7.580566%, 52.018738%, 84.918213%)" offset="0.0390625"></stop><stop stop-opacity="1" stop-color="rgb(7.533264%, 51.734924%, 84.700012%)" offset="0.046875"></stop><stop stop-opacity="1" stop-color="rgb(7.484436%, 51.451111%, 84.481812%)" offset="0.0546875"></stop><stop stop-opacity="1" stop-color="rgb(7.435608%, 51.165771%, 84.263611%)" offset="0.0625"></stop><stop stop-opacity="1" stop-color="rgb(7.38678%, 50.881958%, 84.04541%)" offset="0.0703125"></stop><stop stop-opacity="1" stop-color="rgb(7.339478%, 50.598145%, 83.827209%)" offset="0.078125"></stop><stop stop-opacity="1" stop-color="rgb(7.290649%, 50.312805%, 83.610535%)" offset="0.0859375"></stop><stop stop-opacity="1" stop-color="rgb(7.241821%, 50.028992%, 83.392334%)" offset="0.09375"></stop><stop stop-opacity="1" stop-color="rgb(7.192993%, 49.743652%, 83.174133%)" offset="0.101562"></stop><stop stop-opacity="1" stop-color="rgb(7.145691%, 49.459839%, 82.955933%)" offset="0.109375"></stop><stop stop-opacity="1" stop-color="rgb(7.096863%, 49.176025%, 82.737732%)" offset="0.117187"></stop><stop stop-opacity="1" stop-color="rgb(7.048035%, 48.890686%, 82.519531%)" offset="0.125"></stop><stop stop-opacity="1" stop-color="rgb(6.999207%, 48.606873%, 82.302856%)" offset="0.132812"></stop><stop stop-opacity="1" stop-color="rgb(6.951904%, 48.323059%, 82.084656%)" offset="0.140625"></stop><stop stop-opacity="1" stop-color="rgb(6.903076%, 48.03772%, 81.866455%)" offset="0.148437"></stop><stop stop-opacity="1" stop-color="rgb(6.854248%, 47.753906%, 81.648254%)" offset="0.15625"></stop><stop stop-opacity="1" stop-color="rgb(6.80542%, 47.468567%, 81.430054%)" offset="0.164062"></stop><stop stop-opacity="1" stop-color="rgb(6.758118%, 47.184753%, 81.211853%)" offset="0.171875"></stop><stop stop-opacity="1" stop-color="rgb(6.70929%, 46.90094%, 80.993652%)" offset="0.179687"></stop><stop stop-opacity="1" stop-color="rgb(6.660461%, 46.615601%, 80.776978%)" offset="0.1875"></stop><stop stop-opacity="1" stop-color="rgb(6.611633%, 46.331787%, 80.558777%)" offset="0.195312"></stop><stop stop-opacity="1" stop-color="rgb(6.564331%, 46.047974%, 80.340576%)" offset="0.203125"></stop><stop stop-opacity="1" stop-color="rgb(6.515503%, 45.762634%, 80.122375%)" offset="0.210937"></stop><stop stop-opacity="1" stop-color="rgb(6.466675%, 45.478821%, 79.904175%)" offset="0.21875"></stop><stop stop-opacity="1" stop-color="rgb(6.417847%, 45.195007%, 79.685974%)" offset="0.226562"></stop><stop stop-opacity="1" stop-color="rgb(6.370544%, 44.909668%, 79.467773%)" offset="0.234375"></stop><stop stop-opacity="1" stop-color="rgb(6.321716%, 44.625854%, 79.251099%)" offset="0.242187"></stop><stop stop-opacity="1" stop-color="rgb(6.272888%, 44.340515%, 79.032898%)" offset="0.25"></stop><stop stop-opacity="1" stop-color="rgb(6.22406%, 44.056702%, 78.814697%)" offset="0.257812"></stop><stop stop-opacity="1" stop-color="rgb(6.176758%, 43.772888%, 78.596497%)" offset="0.265625"></stop><stop stop-opacity="1" stop-color="rgb(6.12793%, 43.487549%, 78.378296%)" offset="0.273437"></stop><stop stop-opacity="1" stop-color="rgb(6.079102%, 43.203735%, 78.160095%)" offset="0.28125"></stop><stop stop-opacity="1" stop-color="rgb(6.031799%, 42.919922%, 77.94342%)" offset="0.289062"></stop><stop stop-opacity="1" stop-color="rgb(5.982971%, 42.634583%, 77.72522%)" offset="0.296875"></stop><stop stop-opacity="1" stop-color="rgb(5.934143%, 42.350769%, 77.507019%)" offset="0.304687"></stop><stop stop-opacity="1" stop-color="rgb(5.885315%, 42.06543%, 77.288818%)" offset="0.3125"></stop><stop stop-opacity="1" stop-color="rgb(5.838013%, 41.781616%, 77.070618%)" offset="0.320312"></stop><stop stop-opacity="1" stop-color="rgb(5.789185%, 41.497803%, 76.852417%)" offset="0.328125"></stop><stop stop-opacity="1" stop-color="rgb(5.740356%, 41.212463%, 76.634216%)" offset="0.335938"></stop><stop stop-opacity="1" stop-color="rgb(5.691528%, 40.92865%, 76.417542%)" offset="0.34375"></stop><stop stop-opacity="1" stop-color="rgb(5.644226%, 40.644836%, 76.199341%)" offset="0.351562"></stop><stop stop-opacity="1" stop-color="rgb(5.595398%, 40.359497%, 75.98114%)" offset="0.359375"></stop><stop stop-opacity="1" stop-color="rgb(5.54657%, 40.075684%, 75.762939%)" offset="0.367187"></stop><stop stop-opacity="1" stop-color="rgb(5.497742%, 39.79187%, 75.544739%)" offset="0.375"></stop><stop stop-opacity="1" stop-color="rgb(5.450439%, 39.506531%, 75.326538%)" offset="0.382812"></stop><stop stop-opacity="1" stop-color="rgb(5.401611%, 39.222717%, 75.109863%)" offset="0.390625"></stop><stop stop-opacity="1" stop-color="rgb(5.352783%, 38.937378%, 74.891663%)" offset="0.398437"></stop><stop stop-opacity="1" stop-color="rgb(5.303955%, 38.653564%, 74.673462%)" offset="0.40625"></stop><stop stop-opacity="1" stop-color="rgb(5.256653%, 38.369751%, 74.455261%)" offset="0.414062"></stop><stop stop-opacity="1" stop-color="rgb(5.207825%, 38.084412%, 74.237061%)" offset="0.421875"></stop><stop stop-opacity="1" stop-color="rgb(5.158997%, 37.800598%, 74.01886%)" offset="0.429688"></stop><stop stop-opacity="1" stop-color="rgb(5.110168%, 37.516785%, 73.800659%)" offset="0.4375"></stop><stop stop-opacity="1" stop-color="rgb(5.062866%, 37.231445%, 73.583984%)" offset="0.445312"></stop><stop stop-opacity="1" stop-color="rgb(5.014038%, 36.947632%, 73.365784%)" offset="0.453125"></stop><stop stop-opacity="1" stop-color="rgb(4.96521%, 36.662292%, 73.147583%)" offset="0.460937"></stop><stop stop-opacity="1" stop-color="rgb(4.916382%, 36.378479%, 72.929382%)" offset="0.46875"></stop><stop stop-opacity="1" stop-color="rgb(4.86908%, 36.094666%, 72.711182%)" offset="0.476562"></stop><stop stop-opacity="1" stop-color="rgb(4.820251%, 35.809326%, 72.492981%)" offset="0.484375"></stop><stop stop-opacity="1" stop-color="rgb(4.771423%, 35.525513%, 72.27478%)" offset="0.492187"></stop><stop stop-opacity="1" stop-color="rgb(4.722595%, 35.241699%, 72.058105%)" offset="0.5"></stop><stop stop-opacity="1" stop-color="rgb(4.675293%, 34.95636%, 71.839905%)" offset="0.507812"></stop><stop stop-opacity="1" stop-color="rgb(4.626465%, 34.672546%, 71.621704%)" offset="0.515625"></stop><stop stop-opacity="1" stop-color="rgb(4.577637%, 34.388733%, 71.403503%)" offset="0.523438"></stop><stop stop-opacity="1" stop-color="rgb(4.528809%, 34.103394%, 71.185303%)" offset="0.53125"></stop><stop stop-opacity="1" stop-color="rgb(4.481506%, 33.81958%, 70.967102%)" offset="0.539062"></stop><stop stop-opacity="1" stop-color="rgb(4.432678%, 33.534241%, 70.750427%)" offset="0.546875"></stop><stop stop-opacity="1" stop-color="rgb(4.38385%, 33.250427%, 70.532227%)" offset="0.554688"></stop><stop stop-opacity="1" stop-color="rgb(4.335022%, 32.966614%, 70.314026%)" offset="0.5625"></stop><stop stop-opacity="1" stop-color="rgb(4.28772%, 32.681274%, 70.095825%)" offset="0.570313"></stop><stop stop-opacity="1" stop-color="rgb(4.238892%, 32.397461%, 69.877625%)" offset="0.578125"></stop><stop stop-opacity="1" stop-color="rgb(4.190063%, 32.113647%, 69.659424%)" offset="0.585938"></stop><stop stop-opacity="1" stop-color="rgb(4.142761%, 31.828308%, 69.441223%)" offset="0.59375"></stop><stop stop-opacity="1" stop-color="rgb(4.093933%, 31.544495%, 69.224548%)" offset="0.601562"></stop><stop stop-opacity="1" stop-color="rgb(4.045105%, 31.259155%, 69.006348%)" offset="0.609375"></stop><stop stop-opacity="1" stop-color="rgb(3.996277%, 30.975342%, 68.788147%)" offset="0.617188"></stop><stop stop-opacity="1" stop-color="rgb(3.948975%, 30.691528%, 68.569946%)" offset="0.625"></stop><stop stop-opacity="1" stop-color="rgb(3.900146%, 30.406189%, 68.351746%)" offset="0.632812"></stop><stop stop-opacity="1" stop-color="rgb(3.851318%, 30.122375%, 68.133545%)" offset="0.640625"></stop><stop stop-opacity="1" stop-color="rgb(3.80249%, 29.838562%, 67.91687%)" offset="0.648438"></stop><stop stop-opacity="1" stop-color="rgb(3.755188%, 29.553223%, 67.698669%)" offset="0.65625"></stop><stop stop-opacity="1" stop-color="rgb(3.70636%, 29.269409%, 67.480469%)" offset="0.664063"></stop><stop stop-opacity="1" stop-color="rgb(3.657532%, 28.985596%, 67.262268%)" offset="0.671875"></stop><stop stop-opacity="1" stop-color="rgb(3.608704%, 28.700256%, 67.044067%)" offset="0.679688"></stop><stop stop-opacity="1" stop-color="rgb(3.561401%, 28.416443%, 66.825867%)" offset="0.6875"></stop><stop stop-opacity="1" stop-color="rgb(3.512573%, 28.131104%, 66.607666%)" offset="0.695312"></stop><stop stop-opacity="1" stop-color="rgb(3.463745%, 27.84729%, 66.390991%)" offset="0.703125"></stop><stop stop-opacity="1" stop-color="rgb(3.414917%, 27.563477%, 66.172791%)" offset="0.710938"></stop><stop stop-opacity="1" stop-color="rgb(3.367615%, 27.278137%, 65.95459%)" offset="0.71875"></stop><stop stop-opacity="1" stop-color="rgb(3.318787%, 26.994324%, 65.736389%)" offset="0.726562"></stop><stop stop-opacity="1" stop-color="rgb(3.269958%, 26.71051%, 65.518188%)" offset="0.734375"></stop><stop stop-opacity="1" stop-color="rgb(3.22113%, 26.425171%, 65.299988%)" offset="0.742188"></stop><stop stop-opacity="1" stop-color="rgb(3.173828%, 26.141357%, 65.083313%)" offset="0.75"></stop><stop stop-opacity="1" stop-color="rgb(3.125%, 25.856018%, 64.865112%)" offset="0.757813"></stop><stop stop-opacity="1" stop-color="rgb(3.076172%, 25.572205%, 64.646912%)" offset="0.765625"></stop><stop stop-opacity="1" stop-color="rgb(3.027344%, 25.288391%, 64.428711%)" offset="0.773438"></stop><stop stop-opacity="1" stop-color="rgb(2.980042%, 25.003052%, 64.21051%)" offset="0.78125"></stop><stop stop-opacity="1" stop-color="rgb(2.931213%, 24.719238%, 63.99231%)" offset="0.789062"></stop><stop stop-opacity="1" stop-color="rgb(2.882385%, 24.435425%, 63.774109%)" offset="0.796875"></stop><stop stop-opacity="1" stop-color="rgb(2.833557%, 24.150085%, 63.557434%)" offset="0.804688"></stop><stop stop-opacity="1" stop-color="rgb(2.786255%, 23.866272%, 63.339233%)" offset="0.8125"></stop><stop stop-opacity="1" stop-color="rgb(2.737427%, 23.582458%, 63.121033%)" offset="0.820312"></stop><stop stop-opacity="1" stop-color="rgb(2.688599%, 23.297119%, 62.902832%)" offset="0.828125"></stop><stop stop-opacity="1" stop-color="rgb(2.639771%, 23.013306%, 62.684631%)" offset="0.835938"></stop><stop stop-opacity="1" stop-color="rgb(2.592468%, 22.727966%, 62.466431%)" offset="0.84375"></stop><stop stop-opacity="1" stop-color="rgb(2.54364%, 22.444153%, 62.24823%)" offset="0.851563"></stop><stop stop-opacity="1" stop-color="rgb(2.494812%, 22.160339%, 62.031555%)" offset="0.859375"></stop><stop stop-opacity="1" stop-color="rgb(2.445984%, 21.875%, 61.813354%)" offset="0.867188"></stop><stop stop-opacity="1" stop-color="rgb(2.398682%, 21.591187%, 61.595154%)" offset="0.875"></stop><stop stop-opacity="1" stop-color="rgb(2.349854%, 21.307373%, 61.376953%)" offset="0.882812"></stop><stop stop-opacity="1" stop-color="rgb(2.301025%, 21.022034%, 61.158752%)" offset="0.890625"></stop><stop stop-opacity="1" stop-color="rgb(2.252197%, 20.73822%, 60.940552%)" offset="0.898438"></stop><stop stop-opacity="1" stop-color="rgb(2.204895%, 20.452881%, 60.723877%)" offset="0.90625"></stop><stop stop-opacity="1" stop-color="rgb(2.156067%, 20.169067%, 60.505676%)" offset="0.914062"></stop><stop stop-opacity="1" stop-color="rgb(2.107239%, 19.885254%, 60.287476%)" offset="0.921875"></stop><stop stop-opacity="1" stop-color="rgb(2.059937%, 19.599915%, 60.069275%)" offset="0.929688"></stop><stop stop-opacity="1" stop-color="rgb(2.011108%, 19.316101%, 59.851074%)" offset="0.9375"></stop><stop stop-opacity="1" stop-color="rgb(1.96228%, 19.032288%, 59.632874%)" offset="0.945313"></stop><stop stop-opacity="1" stop-color="rgb(1.913452%, 18.746948%, 59.414673%)" offset="0.953125"></stop><stop stop-opacity="1" stop-color="rgb(1.86615%, 18.463135%, 59.197998%)" offset="0.960938"></stop><stop stop-opacity="1" stop-color="rgb(1.817322%, 18.179321%, 58.979797%)" offset="0.96875"></stop><stop stop-opacity="1" stop-color="rgb(1.768494%, 17.893982%, 58.761597%)" offset="0.976562"></stop><stop stop-opacity="1" stop-color="rgb(1.719666%, 17.610168%, 58.543396%)" offset="0.984375"></stop><stop stop-opacity="1" stop-color="rgb(1.672363%, 17.324829%, 58.325195%)" offset="0.992188"></stop><stop stop-opacity="1" stop-color="rgb(1.623535%, 17.041016%, 58.106995%)" offset="1"></stop></linearGradient></defs><g clip-path="url(#fd82671fd2)"><g clip-path="url(#b88a9d17dc)"><path fill="url(#fcbf63de7a)" d="M 5.859375 5.859375 L 5.859375 369.140625 L 369.140625 369.140625 L 369.140625 5.859375 Z M 5.859375 5.859375 " fill-rule="nonzero"></path></g></g></svg> 