<?xml version="1.0" encoding="UTF-8"?> <svg xmlns="http://www.w3.org/2000/svg" xmlns:xlink="http://www.w3.org/1999/xlink" width="500" zoomAndPan="magnify" viewBox="0 0 375 374.999991" height="500" preserveAspectRatio="xMidYMid meet" version="1.0"><defs><clipPath id="c6c0fcafb0"><path d="M 6 5 L 370 5 L 370 370 L 6 370 Z M 6 5 " clip-rule="nonzero"></path></clipPath><clipPath id="47b12c09df"><path d="M 316.40625 152.34375 C 332.558594 152.34375 345.703125 139.199219 345.703125 123.046875 L 345.703125 102.390625 C 360.238281 92.648438 369.140625 76.164062 369.140625 58.59375 C 369.140625 43.617188 362.734375 29.296875 351.574219 19.300781 C 340.417969 9.3125 325.410156 4.53125 310.410156 6.195312 C 287.277344 8.761719 267.894531 27.257812 264.328125 50.179688 C 264.191406 51.035156 264.203125 51.878906 264.109375 52.734375 L 246.09375 52.734375 C 236.402344 52.734375 228.515625 60.621094 228.515625 70.3125 L 228.515625 164.0625 C 228.515625 167.296875 225.882812 169.921875 222.65625 169.921875 L 167.796875 169.921875 C 159.824219 136.382812 129.691406 111.328125 93.75 111.328125 C 51.75 111.328125 17.578125 145.5 17.578125 187.5 C 17.578125 229.5 51.75 263.671875 93.75 263.671875 C 129.691406 263.671875 159.824219 238.617188 167.796875 205.078125 L 275.390625 205.078125 C 278.617188 205.078125 281.25 207.703125 281.25 210.9375 L 281.25 228.515625 L 222.65625 228.515625 C 212.964844 228.515625 205.078125 236.402344 205.078125 246.09375 L 205.078125 328.125 C 205.078125 337.816406 212.964844 345.703125 222.65625 345.703125 L 251.953125 345.703125 L 251.953125 357.421875 L 240.234375 357.421875 L 240.234375 369.140625 L 333.984375 369.140625 L 333.984375 357.421875 L 322.265625 357.421875 L 322.265625 345.703125 L 351.5625 345.703125 C 361.253906 345.703125 369.140625 337.816406 369.140625 328.125 L 369.140625 246.09375 C 369.140625 236.402344 361.253906 228.515625 351.5625 228.515625 L 292.96875 228.515625 L 292.96875 210.9375 C 292.96875 201.246094 285.082031 193.359375 275.390625 193.359375 L 169.621094 193.359375 C 169.773438 191.417969 169.921875 189.480469 169.921875 187.5 C 169.921875 185.519531 169.773438 183.578125 169.621094 181.640625 L 222.65625 181.640625 C 232.347656 181.640625 240.234375 173.753906 240.234375 164.0625 L 240.234375 70.3125 C 240.234375 67.078125 242.863281 64.453125 246.09375 64.453125 L 264.0625 64.453125 C 265.769531 79.761719 273.992188 93.644531 287.109375 102.398438 L 287.109375 123.046875 C 287.109375 139.199219 300.25 152.34375 316.40625 152.34375 Z M 310.546875 357.421875 L 263.671875 357.421875 L 263.671875 345.703125 L 310.546875 345.703125 Z M 351.5625 333.984375 L 222.65625 333.984375 C 219.429688 333.984375 216.796875 331.359375 216.796875 328.125 L 216.796875 322.265625 L 357.421875 322.265625 L 357.421875 328.125 C 357.421875 331.359375 354.789062 333.984375 351.5625 333.984375 Z M 357.421875 246.09375 L 357.421875 310.546875 L 216.796875 310.546875 L 216.796875 246.09375 C 216.796875 242.859375 219.429688 240.234375 222.65625 240.234375 L 351.5625 240.234375 C 354.789062 240.234375 357.421875 242.859375 357.421875 246.09375 Z M 93.75 251.953125 C 87.453125 251.953125 80.742188 243.003906 76.121094 228.515625 L 111.382812 228.515625 C 106.757812 243.003906 100.050781 251.953125 93.75 251.953125 Z M 73.132812 216.796875 C 71.699219 209.710938 70.742188 201.835938 70.4375 193.359375 L 117.0625 193.359375 C 116.757812 201.835938 115.792969 209.710938 114.371094 216.796875 Z M 29.597656 193.359375 L 58.722656 193.359375 C 58.992188 201.671875 59.800781 209.546875 61.121094 216.796875 L 36.410156 216.796875 C 32.742188 209.640625 30.351562 201.738281 29.597656 193.359375 Z M 93.75 123.046875 C 100.050781 123.046875 106.757812 131.992188 111.382812 146.484375 L 76.121094 146.484375 C 80.742188 131.992188 87.453125 123.046875 93.75 123.046875 Z M 114.371094 158.203125 C 115.796875 165.285156 116.761719 173.160156 117.0625 181.640625 L 70.4375 181.640625 C 70.742188 173.160156 71.707031 165.285156 73.132812 158.203125 Z M 157.90625 181.640625 L 128.777344 181.640625 C 128.507812 173.324219 127.699219 165.449219 126.378906 158.203125 L 151.089844 158.203125 C 154.757812 165.355469 157.148438 173.261719 157.902344 181.640625 Z M 58.722656 181.640625 L 29.597656 181.640625 C 30.359375 173.261719 32.742188 165.355469 36.417969 158.203125 L 61.125 158.203125 C 59.800781 165.449219 58.988281 173.324219 58.722656 181.640625 Z M 128.777344 193.359375 L 157.90625 193.359375 C 157.144531 201.738281 154.757812 209.640625 151.085938 216.796875 L 126.375 216.796875 C 127.699219 209.546875 128.515625 201.671875 128.777344 193.359375 Z M 143.429688 146.484375 L 123.660156 146.484375 C 121.503906 138.894531 118.75 132.292969 115.511719 126.90625 C 126.492188 130.863281 136.125 137.652344 143.429688 146.484375 Z M 71.988281 126.90625 C 68.75 132.292969 65.996094 138.894531 63.839844 146.484375 L 44.070312 146.484375 C 51.375 137.652344 61.007812 130.863281 71.988281 126.90625 Z M 44.070312 228.515625 L 63.839844 228.515625 C 65.996094 236.101562 68.75 242.707031 71.988281 248.089844 C 61.007812 244.136719 51.375 237.34375 44.070312 228.515625 Z M 115.511719 248.089844 C 118.75 242.707031 121.507812 236.101562 123.664062 228.515625 L 143.433594 228.515625 C 136.125 237.34375 126.492188 244.136719 115.511719 248.089844 Z M 316.40625 140.625 C 306.714844 140.625 298.828125 132.738281 298.828125 123.046875 L 298.828125 105.46875 L 333.984375 105.46875 L 333.984375 123.046875 C 333.984375 132.738281 326.097656 140.625 316.40625 140.625 Z M 310.546875 58.59375 C 310.546875 55.359375 313.175781 52.734375 316.40625 52.734375 C 319.632812 52.734375 322.265625 55.359375 322.265625 58.59375 C 322.265625 61.828125 319.632812 64.453125 316.40625 64.453125 C 313.175781 64.453125 310.546875 61.828125 310.546875 58.59375 Z M 275.90625 51.976562 C 278.671875 34.1875 293.726562 19.835938 311.695312 17.839844 C 313.292969 17.664062 314.882812 17.578125 316.453125 17.578125 C 326.582031 17.578125 336.132812 21.203125 343.757812 28.023438 C 352.441406 35.800781 357.421875 46.945312 357.421875 58.59375 C 357.421875 72.953125 349.746094 86.355469 337.386719 93.75 L 322.265625 93.75 L 322.265625 75.09375 C 329.066406 72.667969 333.984375 66.222656 333.984375 58.59375 C 333.984375 48.902344 326.097656 41.015625 316.40625 41.015625 C 306.714844 41.015625 298.828125 48.902344 298.828125 58.59375 C 298.828125 66.222656 303.742188 72.667969 310.546875 75.09375 L 310.546875 93.75 L 295.429688 93.75 C 280.957031 85.101562 273.285156 68.789062 275.90625 51.976562 Z M 93.75 87.890625 C 120.359375 87.890625 145.371094 98.257812 164.1875 117.0625 L 155.902344 125.347656 C 139.296875 108.753906 117.230469 99.609375 93.75 99.609375 C 70.273438 99.609375 48.207031 108.757812 31.605469 125.355469 L 23.320312 117.070312 C 42.128906 98.257812 67.144531 87.890625 93.75 87.890625 Z M 93.75 287.109375 C 67.144531 287.109375 42.128906 276.742188 23.316406 257.933594 L 31.601562 249.648438 C 48.207031 266.242188 70.273438 275.390625 93.75 275.390625 C 117.230469 275.390625 139.296875 266.242188 155.894531 249.644531 L 164.179688 257.929688 C 145.371094 276.742188 120.359375 287.109375 93.75 287.109375 Z M 172.472656 108.773438 C 129.0625 65.378906 58.4375 65.378906 15.03125 108.773438 L 6.746094 100.488281 C 54.722656 52.511719 132.785156 52.511719 180.757812 100.488281 Z M 172.472656 266.226562 L 180.757812 274.511719 C 156.769531 298.492188 125.257812 310.488281 93.75 310.488281 C 62.242188 310.488281 30.734375 298.492188 6.746094 274.511719 L 15.03125 266.226562 C 58.433594 309.621094 129.0625 309.621094 172.472656 266.226562 Z M 172.472656 266.226562 " clip-rule="nonzero"></path></clipPath><linearGradient x1="32.075001" gradientTransform="matrix(5.859375, 0, 0, 5.859375, 0.0000045, 0)" y1="62.999999" x2="32.075001" gradientUnits="userSpaceOnUse" y2="0.773" id="b39f72ba03"><stop stop-opacity="1" stop-color="rgb(7.798767%, 53.29895%, 85.899353%)" offset="0"></stop><stop stop-opacity="1" stop-color="rgb(7.774353%, 53.155518%, 85.78949%)" offset="0.0078125"></stop><stop stop-opacity="1" stop-color="rgb(7.725525%, 52.870178%, 85.571289%)" offset="0.015625"></stop><stop stop-opacity="1" stop-color="rgb(7.678223%, 52.584839%, 85.351562%)" offset="0.0234375"></stop><stop stop-opacity="1" stop-color="rgb(7.629395%, 52.2995%, 85.133362%)" offset="0.03125"></stop><stop stop-opacity="1" stop-color="rgb(7.580566%, 52.01416%, 84.913635%)" offset="0.0390625"></stop><stop stop-opacity="1" stop-color="rgb(7.531738%, 51.728821%, 84.695435%)" offset="0.046875"></stop><stop stop-opacity="1" stop-color="rgb(7.48291%, 51.443481%, 84.477234%)" offset="0.0546875"></stop><stop stop-opacity="1" stop-color="rgb(7.434082%, 51.158142%, 84.257507%)" offset="0.0625"></stop><stop stop-opacity="1" stop-color="rgb(7.385254%, 50.872803%, 84.039307%)" offset="0.0703125"></stop><stop stop-opacity="1" stop-color="rgb(7.337952%, 50.587463%, 83.821106%)" offset="0.078125"></stop><stop stop-opacity="1" stop-color="rgb(7.289124%, 50.302124%, 83.601379%)" offset="0.0859375"></stop><stop stop-opacity="1" stop-color="rgb(7.240295%, 50.016785%, 83.383179%)" offset="0.09375"></stop><stop stop-opacity="1" stop-color="rgb(7.191467%, 49.731445%, 83.163452%)" offset="0.101562"></stop><stop stop-opacity="1" stop-color="rgb(7.142639%, 49.44458%, 82.945251%)" offset="0.109375"></stop><stop stop-opacity="1" stop-color="rgb(7.093811%, 49.159241%, 82.727051%)" offset="0.117187"></stop><stop stop-opacity="1" stop-color="rgb(7.044983%, 48.873901%, 82.507324%)" offset="0.125"></stop><stop stop-opacity="1" stop-color="rgb(6.997681%, 48.588562%, 82.289124%)" offset="0.132812"></stop><stop stop-opacity="1" stop-color="rgb(6.948853%, 48.303223%, 82.070923%)" offset="0.140625"></stop><stop stop-opacity="1" stop-color="rgb(6.900024%, 48.017883%, 81.851196%)" offset="0.148437"></stop><stop stop-opacity="1" stop-color="rgb(6.851196%, 47.732544%, 81.632996%)" offset="0.15625"></stop><stop stop-opacity="1" stop-color="rgb(6.802368%, 47.447205%, 81.413269%)" offset="0.164062"></stop><stop stop-opacity="1" stop-color="rgb(6.75354%, 47.161865%, 81.195068%)" offset="0.171875"></stop><stop stop-opacity="1" stop-color="rgb(6.704712%, 46.876526%, 80.976868%)" offset="0.179687"></stop><stop stop-opacity="1" stop-color="rgb(6.65741%, 46.591187%, 80.757141%)" offset="0.1875"></stop><stop stop-opacity="1" stop-color="rgb(6.608582%, 46.305847%, 80.53894%)" offset="0.195312"></stop><stop stop-opacity="1" stop-color="rgb(6.559753%, 46.020508%, 80.32074%)" offset="0.203125"></stop><stop stop-opacity="1" stop-color="rgb(6.510925%, 45.735168%, 80.101013%)" offset="0.210937"></stop><stop stop-opacity="1" stop-color="rgb(6.462097%, 45.449829%, 79.882812%)" offset="0.21875"></stop><stop stop-opacity="1" stop-color="rgb(6.413269%, 45.16449%, 79.663086%)" offset="0.226562"></stop><stop stop-opacity="1" stop-color="rgb(6.364441%, 44.87915%, 79.444885%)" offset="0.234375"></stop><stop stop-opacity="1" stop-color="rgb(6.315613%, 44.593811%, 79.226685%)" offset="0.242188"></stop><stop stop-opacity="1" stop-color="rgb(6.268311%, 44.308472%, 79.006958%)" offset="0.25"></stop><stop stop-opacity="1" stop-color="rgb(6.219482%, 44.021606%, 78.788757%)" offset="0.257812"></stop><stop stop-opacity="1" stop-color="rgb(6.170654%, 43.736267%, 78.570557%)" offset="0.265625"></stop><stop stop-opacity="1" stop-color="rgb(6.121826%, 43.450928%, 78.35083%)" offset="0.273438"></stop><stop stop-opacity="1" stop-color="rgb(6.072998%, 43.165588%, 78.132629%)" offset="0.28125"></stop><stop stop-opacity="1" stop-color="rgb(6.02417%, 42.880249%, 77.912903%)" offset="0.289062"></stop><stop stop-opacity="1" stop-color="rgb(5.975342%, 42.59491%, 77.694702%)" offset="0.296875"></stop><stop stop-opacity="1" stop-color="rgb(5.92804%, 42.30957%, 77.476501%)" offset="0.304688"></stop><stop stop-opacity="1" stop-color="rgb(5.879211%, 42.024231%, 77.256775%)" offset="0.3125"></stop><stop stop-opacity="1" stop-color="rgb(5.830383%, 41.738892%, 77.038574%)" offset="0.320312"></stop><stop stop-opacity="1" stop-color="rgb(5.781555%, 41.453552%, 76.820374%)" offset="0.328125"></stop><stop stop-opacity="1" stop-color="rgb(5.732727%, 41.168213%, 76.600647%)" offset="0.335938"></stop><stop stop-opacity="1" stop-color="rgb(5.683899%, 40.882874%, 76.382446%)" offset="0.34375"></stop><stop stop-opacity="1" stop-color="rgb(5.635071%, 40.597534%, 76.16272%)" offset="0.351562"></stop><stop stop-opacity="1" stop-color="rgb(5.587769%, 40.312195%, 75.944519%)" offset="0.359375"></stop><stop stop-opacity="1" stop-color="rgb(5.53894%, 40.026855%, 75.726318%)" offset="0.367188"></stop><stop stop-opacity="1" stop-color="rgb(5.490112%, 39.741516%, 75.506592%)" offset="0.375"></stop><stop stop-opacity="1" stop-color="rgb(5.441284%, 39.456177%, 75.288391%)" offset="0.382812"></stop><stop stop-opacity="1" stop-color="rgb(5.392456%, 39.170837%, 75.07019%)" offset="0.390625"></stop><stop stop-opacity="1" stop-color="rgb(5.343628%, 38.885498%, 74.850464%)" offset="0.398438"></stop><stop stop-opacity="1" stop-color="rgb(5.2948%, 38.598633%, 74.632263%)" offset="0.40625"></stop><stop stop-opacity="1" stop-color="rgb(5.247498%, 38.313293%, 74.414062%)" offset="0.414062"></stop><stop stop-opacity="1" stop-color="rgb(5.198669%, 38.027954%, 74.194336%)" offset="0.421875"></stop><stop stop-opacity="1" stop-color="rgb(5.149841%, 37.742615%, 73.976135%)" offset="0.429688"></stop><stop stop-opacity="1" stop-color="rgb(5.101013%, 37.457275%, 73.756409%)" offset="0.4375"></stop><stop stop-opacity="1" stop-color="rgb(5.052185%, 37.171936%, 73.538208%)" offset="0.445312"></stop><stop stop-opacity="1" stop-color="rgb(5.003357%, 36.886597%, 73.320007%)" offset="0.453125"></stop><stop stop-opacity="1" stop-color="rgb(4.954529%, 36.601257%, 73.100281%)" offset="0.460938"></stop><stop stop-opacity="1" stop-color="rgb(4.907227%, 36.315918%, 72.88208%)" offset="0.46875"></stop><stop stop-opacity="1" stop-color="rgb(4.858398%, 36.030579%, 72.663879%)" offset="0.476562"></stop><stop stop-opacity="1" stop-color="rgb(4.80957%, 35.745239%, 72.444153%)" offset="0.484375"></stop><stop stop-opacity="1" stop-color="rgb(4.760742%, 35.4599%, 72.225952%)" offset="0.492188"></stop><stop stop-opacity="1" stop-color="rgb(4.711914%, 35.174561%, 72.006226%)" offset="0.5"></stop><stop stop-opacity="1" stop-color="rgb(4.663086%, 34.889221%, 71.788025%)" offset="0.507812"></stop><stop stop-opacity="1" stop-color="rgb(4.614258%, 34.603882%, 71.569824%)" offset="0.515625"></stop><stop stop-opacity="1" stop-color="rgb(4.56543%, 34.318542%, 71.350098%)" offset="0.523437"></stop><stop stop-opacity="1" stop-color="rgb(4.518127%, 34.033203%, 71.131897%)" offset="0.53125"></stop><stop stop-opacity="1" stop-color="rgb(4.469299%, 33.747864%, 70.913696%)" offset="0.539062"></stop><stop stop-opacity="1" stop-color="rgb(4.420471%, 33.462524%, 70.69397%)" offset="0.546875"></stop><stop stop-opacity="1" stop-color="rgb(4.371643%, 33.175659%, 70.475769%)" offset="0.554688"></stop><stop stop-opacity="1" stop-color="rgb(4.322815%, 32.89032%, 70.256042%)" offset="0.5625"></stop><stop stop-opacity="1" stop-color="rgb(4.273987%, 32.60498%, 70.037842%)" offset="0.570312"></stop><stop stop-opacity="1" stop-color="rgb(4.225159%, 32.319641%, 69.819641%)" offset="0.578125"></stop><stop stop-opacity="1" stop-color="rgb(4.177856%, 32.034302%, 69.599915%)" offset="0.585938"></stop><stop stop-opacity="1" stop-color="rgb(4.129028%, 31.748962%, 69.381714%)" offset="0.59375"></stop><stop stop-opacity="1" stop-color="rgb(4.0802%, 31.463623%, 69.163513%)" offset="0.601562"></stop><stop stop-opacity="1" stop-color="rgb(4.031372%, 31.178284%, 68.943787%)" offset="0.609375"></stop><stop stop-opacity="1" stop-color="rgb(3.982544%, 30.892944%, 68.725586%)" offset="0.617187"></stop><stop stop-opacity="1" stop-color="rgb(3.933716%, 30.607605%, 68.505859%)" offset="0.625"></stop><stop stop-opacity="1" stop-color="rgb(3.884888%, 30.322266%, 68.287659%)" offset="0.632812"></stop><stop stop-opacity="1" stop-color="rgb(3.837585%, 30.036926%, 68.069458%)" offset="0.640625"></stop><stop stop-opacity="1" stop-color="rgb(3.788757%, 29.751587%, 67.849731%)" offset="0.648438"></stop><stop stop-opacity="1" stop-color="rgb(3.739929%, 29.466248%, 67.631531%)" offset="0.65625"></stop><stop stop-opacity="1" stop-color="rgb(3.691101%, 29.180908%, 67.41333%)" offset="0.664062"></stop><stop stop-opacity="1" stop-color="rgb(3.642273%, 28.895569%, 67.193604%)" offset="0.671875"></stop><stop stop-opacity="1" stop-color="rgb(3.593445%, 28.610229%, 66.975403%)" offset="0.679688"></stop><stop stop-opacity="1" stop-color="rgb(3.544617%, 28.32489%, 66.755676%)" offset="0.6875"></stop><stop stop-opacity="1" stop-color="rgb(3.497314%, 28.038025%, 66.537476%)" offset="0.695313"></stop><stop stop-opacity="1" stop-color="rgb(3.448486%, 27.752686%, 66.319275%)" offset="0.703125"></stop><stop stop-opacity="1" stop-color="rgb(3.399658%, 27.467346%, 66.099548%)" offset="0.710937"></stop><stop stop-opacity="1" stop-color="rgb(3.35083%, 27.182007%, 65.881348%)" offset="0.71875"></stop><stop stop-opacity="1" stop-color="rgb(3.302002%, 26.896667%, 65.663147%)" offset="0.726562"></stop><stop stop-opacity="1" stop-color="rgb(3.253174%, 26.611328%, 65.44342%)" offset="0.734375"></stop><stop stop-opacity="1" stop-color="rgb(3.204346%, 26.325989%, 65.22522%)" offset="0.742188"></stop><stop stop-opacity="1" stop-color="rgb(3.157043%, 26.040649%, 65.005493%)" offset="0.75"></stop><stop stop-opacity="1" stop-color="rgb(3.108215%, 25.75531%, 64.787292%)" offset="0.757812"></stop><stop stop-opacity="1" stop-color="rgb(3.059387%, 25.469971%, 64.569092%)" offset="0.765625"></stop><stop stop-opacity="1" stop-color="rgb(3.010559%, 25.184631%, 64.349365%)" offset="0.773438"></stop><stop stop-opacity="1" stop-color="rgb(2.961731%, 24.899292%, 64.131165%)" offset="0.78125"></stop><stop stop-opacity="1" stop-color="rgb(2.912903%, 24.613953%, 63.912964%)" offset="0.789063"></stop><stop stop-opacity="1" stop-color="rgb(2.864075%, 24.328613%, 63.693237%)" offset="0.796875"></stop><stop stop-opacity="1" stop-color="rgb(2.816772%, 24.043274%, 63.475037%)" offset="0.804687"></stop><stop stop-opacity="1" stop-color="rgb(2.767944%, 23.757935%, 63.25531%)" offset="0.8125"></stop><stop stop-opacity="1" stop-color="rgb(2.719116%, 23.472595%, 63.037109%)" offset="0.820312"></stop><stop stop-opacity="1" stop-color="rgb(2.670288%, 23.187256%, 62.818909%)" offset="0.828125"></stop><stop stop-opacity="1" stop-color="rgb(2.62146%, 22.901917%, 62.599182%)" offset="0.835938"></stop><stop stop-opacity="1" stop-color="rgb(2.572632%, 22.615051%, 62.380981%)" offset="0.84375"></stop><stop stop-opacity="1" stop-color="rgb(2.523804%, 22.329712%, 62.162781%)" offset="0.851562"></stop><stop stop-opacity="1" stop-color="rgb(2.474976%, 22.044373%, 61.943054%)" offset="0.859375"></stop><stop stop-opacity="1" stop-color="rgb(2.427673%, 21.759033%, 61.724854%)" offset="0.867188"></stop><stop stop-opacity="1" stop-color="rgb(2.378845%, 21.473694%, 61.505127%)" offset="0.875"></stop><stop stop-opacity="1" stop-color="rgb(2.330017%, 21.188354%, 61.286926%)" offset="0.882813"></stop><stop stop-opacity="1" stop-color="rgb(2.281189%, 20.903015%, 61.068726%)" offset="0.890625"></stop><stop stop-opacity="1" stop-color="rgb(2.232361%, 20.617676%, 60.848999%)" offset="0.898438"></stop><stop stop-opacity="1" stop-color="rgb(2.183533%, 20.332336%, 60.630798%)" offset="0.90625"></stop><stop stop-opacity="1" stop-color="rgb(2.134705%, 20.046997%, 60.412598%)" offset="0.914062"></stop><stop stop-opacity="1" stop-color="rgb(2.087402%, 19.761658%, 60.192871%)" offset="0.921875"></stop><stop stop-opacity="1" stop-color="rgb(2.038574%, 19.476318%, 59.97467%)" offset="0.929688"></stop><stop stop-opacity="1" stop-color="rgb(1.989746%, 19.190979%, 59.754944%)" offset="0.9375"></stop><stop stop-opacity="1" stop-color="rgb(1.940918%, 18.90564%, 59.536743%)" offset="0.945312"></stop><stop stop-opacity="1" stop-color="rgb(1.89209%, 18.6203%, 59.318542%)" offset="0.953125"></stop><stop stop-opacity="1" stop-color="rgb(1.843262%, 18.334961%, 59.098816%)" offset="0.960938"></stop><stop stop-opacity="1" stop-color="rgb(1.794434%, 18.049622%, 58.880615%)" offset="0.96875"></stop><stop stop-opacity="1" stop-color="rgb(1.747131%, 17.764282%, 58.662415%)" offset="0.976563"></stop><stop stop-opacity="1" stop-color="rgb(1.698303%, 17.478943%, 58.442688%)" offset="0.984375"></stop><stop stop-opacity="1" stop-color="rgb(1.649475%, 17.192078%, 58.224487%)" offset="0.992188"></stop><stop stop-opacity="1" stop-color="rgb(1.611328%, 16.973877%, 58.056641%)" offset="1"></stop></linearGradient></defs><g clip-path="url(#c6c0fcafb0)"><g clip-path="url(#47b12c09df)"><path fill="url(#b39f72ba03)" d="M 6.746094 4.53125 L 6.746094 369.140625 L 369.140625 369.140625 L 369.140625 4.53125 Z M 6.746094 4.53125 " fill-rule="nonzero"></path></g></g></svg> 