<?xml version="1.0" encoding="UTF-8"?> <svg xmlns="http://www.w3.org/2000/svg" xmlns:xlink="http://www.w3.org/1999/xlink" width="500" zoomAndPan="magnify" viewBox="0 0 375 374.999991" height="500" preserveAspectRatio="xMidYMid meet" version="1.0"><defs><clipPath id="069a2a414a"><path d="M 5 64 L 370 64 L 370 370 L 5 370 Z M 5 64 " clip-rule="nonzero"></path></clipPath><clipPath id="cdbf68bbb5"><path d="M 360.257812 327.1875 L 344.90625 323.347656 L 328.917969 238.070312 C 327.886719 232.535156 323.039062 228.515625 317.402344 228.515625 L 310.546875 228.515625 C 304.082031 228.515625 298.828125 233.769531 298.828125 240.234375 L 298.828125 263.671875 L 275.390625 263.671875 L 275.390625 208.371094 C 275.390625 200.867188 270.632812 194.332031 263.671875 191.859375 L 263.671875 158.203125 C 263.671875 151.738281 258.414062 146.484375 251.953125 146.484375 L 240.234375 146.484375 L 240.234375 158.203125 L 251.953125 158.203125 L 251.953125 188.785156 L 205.078125 177.066406 L 205.078125 99.609375 C 211.542969 99.609375 216.796875 94.355469 216.796875 87.890625 L 216.796875 76.171875 C 216.796875 69.710938 211.542969 64.453125 205.078125 64.453125 L 29.296875 64.453125 C 22.835938 64.453125 17.578125 69.710938 17.578125 76.171875 L 17.578125 87.890625 C 17.578125 94.355469 22.835938 99.609375 29.296875 99.609375 L 29.296875 181.640625 L 19.816406 181.640625 L 5.167969 210.9375 L 19.816406 240.234375 L 29.175781 240.234375 C 14.152344 262.539062 5.859375 289.023438 5.859375 316.40625 C 5.859375 345.480469 29.515625 369.140625 58.59375 369.140625 L 240.234375 369.140625 C 266.078125 369.140625 287.109375 348.109375 287.109375 322.265625 C 287.109375 318.210938 286.539062 314.300781 285.566406 310.546875 L 298.828125 310.546875 L 298.828125 345.703125 C 298.828125 352.164062 304.082031 357.421875 310.546875 357.421875 L 357.421875 357.421875 C 363.882812 357.421875 369.140625 352.164062 369.140625 345.703125 L 369.140625 338.558594 C 369.140625 333.167969 365.488281 328.492188 360.257812 327.1875 Z M 29.296875 76.171875 L 205.078125 76.171875 L 205.082031 87.890625 L 29.296875 87.890625 Z M 114.761719 193.359375 L 138.199219 216.796875 L 181.640625 216.796875 L 181.640625 111.328125 L 111.328125 111.328125 L 111.328125 181.640625 L 99.609375 181.640625 L 99.609375 111.328125 L 52.734375 111.328125 L 52.734375 181.640625 L 41.015625 181.640625 L 41.015625 99.609375 L 193.359375 99.609375 L 193.359375 186.214844 L 259.230469 202.6875 C 261.84375 203.335938 263.671875 205.675781 263.671875 208.371094 L 263.671875 281.734375 C 258.152344 278.53125 251.9375 276.390625 245.296875 275.675781 L 90.074219 208.046875 C 85.65625 206.125 80.910156 205.234375 76.171875 205.207031 L 76.171875 205.078125 L 21.199219 205.078125 L 27.058594 193.359375 Z M 87.890625 181.640625 L 64.453125 181.640625 L 64.453125 123.046875 L 87.890625 123.046875 Z M 123.046875 169.921875 L 169.921875 169.921875 L 169.921875 205.078125 L 143.050781 205.078125 L 123.046875 185.074219 Z M 169.921875 158.203125 L 123.046875 158.203125 L 123.046875 123.046875 L 169.921875 123.046875 Z M 244.734375 311.449219 C 248.964844 313.21875 251.953125 317.394531 251.953125 322.265625 C 251.953125 328.726562 246.695312 333.984375 240.234375 333.984375 C 233.769531 333.984375 228.515625 328.726562 228.515625 322.265625 C 235.808594 322.265625 242.078125 317.792969 244.734375 311.449219 Z M 228.515625 310.546875 L 58.59375 310.546875 C 55.359375 310.546875 52.734375 307.914062 52.734375 304.6875 C 52.734375 301.457031 55.359375 298.828125 58.59375 298.828125 L 228.515625 298.828125 C 231.75 298.828125 234.375 301.457031 234.375 304.6875 C 234.375 307.914062 231.75 310.546875 228.515625 310.546875 Z M 209.308594 287.109375 L 102.304688 287.109375 C 99.234375 282.539062 95.546875 278.496094 91.316406 275.144531 C 92.132812 275.214844 92.917969 275.390625 93.75 275.390625 C 109.902344 275.390625 123.046875 262.246094 123.046875 246.09375 C 123.046875 241.785156 122.054688 237.726562 120.378906 234.039062 L 142.171875 243.53125 C 137.707031 246.71875 134.765625 251.917969 134.765625 257.8125 C 134.765625 267.503906 142.652344 275.390625 152.34375 275.390625 C 162.035156 275.390625 169.921875 267.503906 169.921875 257.8125 C 169.921875 257.027344 169.792969 256.277344 169.691406 255.519531 L 222.914062 278.707031 C 217.960938 280.675781 213.386719 283.515625 209.308594 287.109375 Z M 59.382812 223.285156 L 59.863281 222.863281 C 66.484375 216.980469 76.183594 215.296875 84.425781 218.460938 C 72.859375 222.375 64.453125 233.214844 64.453125 246.09375 C 64.453125 253.53125 67.324219 260.25 71.90625 265.417969 C 67.605469 264.289062 63.140625 263.671875 58.59375 263.671875 C 45.425781 263.671875 33.398438 268.554688 24.152344 276.5625 C 31.007812 256.25 43.042969 237.804688 59.382812 223.285156 Z M 76.171875 246.09375 C 76.171875 236.402344 84.058594 228.515625 93.75 228.515625 C 103.441406 228.515625 111.328125 236.402344 111.328125 246.09375 C 111.328125 255.785156 103.441406 263.671875 93.75 263.671875 C 84.058594 263.671875 76.171875 255.785156 76.171875 246.09375 Z M 158.203125 257.8125 C 158.203125 261.042969 155.578125 263.671875 152.34375 263.671875 C 149.109375 263.671875 146.484375 261.042969 146.484375 257.8125 C 146.484375 254.585938 149.109375 251.953125 152.34375 251.953125 C 155.578125 251.953125 158.203125 254.585938 158.203125 257.8125 Z M 27.058594 228.515625 L 21.199219 216.796875 L 49.171875 216.796875 C 45.203125 220.5 41.484375 224.410156 38.019531 228.515625 Z M 17.578125 316.40625 C 17.578125 293.789062 35.980469 275.390625 58.59375 275.390625 C 69.410156 275.390625 79.675781 279.726562 87.25 287.109375 L 58.59375 287.109375 C 48.902344 287.109375 41.015625 294.996094 41.015625 304.6875 C 41.015625 314.378906 48.902344 322.265625 58.59375 322.265625 L 99.140625 322.265625 C 96.28125 342.113281 79.210938 357.421875 58.59375 357.421875 C 35.980469 357.421875 17.578125 339.023438 17.578125 316.40625 Z M 123.046875 351.5625 C 123.046875 348.335938 125.671875 345.703125 128.90625 345.703125 C 132.140625 345.703125 134.765625 348.335938 134.765625 351.5625 C 134.765625 354.792969 132.140625 357.421875 128.90625 357.421875 C 125.671875 357.421875 123.046875 354.792969 123.046875 351.5625 Z M 175.78125 357.421875 C 172.546875 357.421875 169.921875 354.792969 169.921875 351.5625 C 169.921875 348.335938 172.546875 345.703125 175.78125 345.703125 C 179.015625 345.703125 181.640625 348.335938 181.640625 351.5625 C 181.640625 354.792969 179.015625 357.421875 175.78125 357.421875 Z M 152.34375 357.421875 C 149.109375 357.421875 146.484375 354.792969 146.484375 351.5625 C 146.484375 348.335938 149.109375 345.703125 152.34375 345.703125 C 155.578125 345.703125 158.203125 348.335938 158.203125 351.5625 C 158.203125 354.792969 155.578125 357.421875 152.34375 357.421875 Z M 192.28125 357.421875 C 192.9375 355.582031 193.359375 353.625 193.359375 351.5625 C 193.359375 341.871094 185.472656 333.984375 175.78125 333.984375 C 171.261719 333.984375 167.179688 335.75 164.0625 338.554688 C 160.945312 335.742188 156.859375 333.984375 152.34375 333.984375 C 147.824219 333.984375 143.742188 335.75 140.625 338.554688 C 137.507812 335.742188 133.421875 333.984375 128.90625 333.984375 C 119.214844 333.984375 111.328125 341.871094 111.328125 351.5625 C 111.328125 353.625 111.75 355.582031 112.40625 357.421875 L 91.664062 357.421875 C 102.203125 348.902344 109.40625 336.429688 110.980469 322.265625 L 193.359375 322.265625 C 193.359375 336.269531 199.5625 348.828125 209.332031 357.421875 Z M 240.234375 357.421875 C 220.84375 357.421875 205.078125 341.65625 205.078125 322.265625 L 216.796875 322.265625 C 216.796875 335.191406 227.308594 345.703125 240.234375 345.703125 C 253.160156 345.703125 263.671875 335.191406 263.671875 322.265625 C 263.671875 311.046875 255.738281 301.660156 245.183594 299.378906 C 243.390625 293.765625 238.898438 289.410156 233.195312 287.824219 C 235.488281 287.355469 237.84375 287.109375 240.234375 287.109375 C 259.621094 287.109375 275.390625 302.875 275.390625 322.265625 C 275.390625 341.652344 259.621094 357.421875 240.234375 357.421875 Z M 280.769531 298.828125 C 279.222656 296.160156 277.417969 293.667969 275.390625 291.363281 L 275.390625 275.390625 L 298.828125 275.390625 L 298.828125 298.828125 Z M 357.421875 345.703125 L 310.546875 345.703125 L 310.546875 240.234375 L 317.40625 240.234375 L 334.78125 332.894531 L 357.421875 338.558594 Z M 251.953125 251.953125 L 240.234375 251.953125 L 240.234375 216.796875 L 251.953125 216.796875 Z M 228.515625 251.953125 L 216.796875 251.953125 L 216.796875 216.796875 L 228.515625 216.796875 Z M 205.078125 240.234375 L 193.359375 240.234375 L 193.359375 216.796875 L 205.078125 216.796875 Z M 205.078125 240.234375 " clip-rule="nonzero"></path></clipPath><linearGradient x1="31.941" gradientTransform="matrix(5.859375, 0, 0, 5.859375, 0.0000045, 0)" y1="62.999999" x2="31.941" gradientUnits="userSpaceOnUse" y2="11.000002" id="fcff687c6b"><stop stop-opacity="1" stop-color="rgb(7.798767%, 53.29895%, 85.899353%)" offset="0"></stop><stop stop-opacity="1" stop-color="rgb(7.774353%, 53.157043%, 85.78949%)" offset="0.0078125"></stop><stop stop-opacity="1" stop-color="rgb(7.727051%, 52.871704%, 85.571289%)" offset="0.015625"></stop><stop stop-opacity="1" stop-color="rgb(7.678223%, 52.587891%, 85.353088%)" offset="0.0234375"></stop><stop stop-opacity="1" stop-color="rgb(7.629395%, 52.304077%, 85.136414%)" offset="0.03125"></stop><stop stop-opacity="1" stop-color="rgb(7.580566%, 52.018738%, 84.918213%)" offset="0.0390625"></stop><stop stop-opacity="1" stop-color="rgb(7.533264%, 51.734924%, 84.700012%)" offset="0.046875"></stop><stop stop-opacity="1" stop-color="rgb(7.484436%, 51.451111%, 84.481812%)" offset="0.0546875"></stop><stop stop-opacity="1" stop-color="rgb(7.435608%, 51.165771%, 84.263611%)" offset="0.0625"></stop><stop stop-opacity="1" stop-color="rgb(7.38678%, 50.881958%, 84.04541%)" offset="0.0703125"></stop><stop stop-opacity="1" stop-color="rgb(7.339478%, 50.598145%, 83.827209%)" offset="0.078125"></stop><stop stop-opacity="1" stop-color="rgb(7.290649%, 50.312805%, 83.610535%)" offset="0.0859375"></stop><stop stop-opacity="1" stop-color="rgb(7.241821%, 50.028992%, 83.392334%)" offset="0.09375"></stop><stop stop-opacity="1" stop-color="rgb(7.192993%, 49.743652%, 83.174133%)" offset="0.101562"></stop><stop stop-opacity="1" stop-color="rgb(7.145691%, 49.459839%, 82.955933%)" offset="0.109375"></stop><stop stop-opacity="1" stop-color="rgb(7.096863%, 49.176025%, 82.737732%)" offset="0.117188"></stop><stop stop-opacity="1" stop-color="rgb(7.048035%, 48.890686%, 82.519531%)" offset="0.125"></stop><stop stop-opacity="1" stop-color="rgb(6.999207%, 48.606873%, 82.302856%)" offset="0.132813"></stop><stop stop-opacity="1" stop-color="rgb(6.951904%, 48.323059%, 82.084656%)" offset="0.140625"></stop><stop stop-opacity="1" stop-color="rgb(6.903076%, 48.03772%, 81.866455%)" offset="0.148438"></stop><stop stop-opacity="1" stop-color="rgb(6.854248%, 47.753906%, 81.648254%)" offset="0.15625"></stop><stop stop-opacity="1" stop-color="rgb(6.80542%, 47.468567%, 81.430054%)" offset="0.164062"></stop><stop stop-opacity="1" stop-color="rgb(6.758118%, 47.184753%, 81.211853%)" offset="0.171875"></stop><stop stop-opacity="1" stop-color="rgb(6.70929%, 46.90094%, 80.993652%)" offset="0.179688"></stop><stop stop-opacity="1" stop-color="rgb(6.660461%, 46.615601%, 80.776978%)" offset="0.1875"></stop><stop stop-opacity="1" stop-color="rgb(6.611633%, 46.331787%, 80.558777%)" offset="0.195312"></stop><stop stop-opacity="1" stop-color="rgb(6.564331%, 46.047974%, 80.340576%)" offset="0.203125"></stop><stop stop-opacity="1" stop-color="rgb(6.515503%, 45.762634%, 80.122375%)" offset="0.210938"></stop><stop stop-opacity="1" stop-color="rgb(6.466675%, 45.478821%, 79.904175%)" offset="0.21875"></stop><stop stop-opacity="1" stop-color="rgb(6.417847%, 45.195007%, 79.685974%)" offset="0.226563"></stop><stop stop-opacity="1" stop-color="rgb(6.370544%, 44.909668%, 79.467773%)" offset="0.234375"></stop><stop stop-opacity="1" stop-color="rgb(6.321716%, 44.625854%, 79.251099%)" offset="0.242188"></stop><stop stop-opacity="1" stop-color="rgb(6.272888%, 44.340515%, 79.032898%)" offset="0.25"></stop><stop stop-opacity="1" stop-color="rgb(6.22406%, 44.056702%, 78.814697%)" offset="0.257813"></stop><stop stop-opacity="1" stop-color="rgb(6.176758%, 43.772888%, 78.596497%)" offset="0.265625"></stop><stop stop-opacity="1" stop-color="rgb(6.12793%, 43.487549%, 78.378296%)" offset="0.273438"></stop><stop stop-opacity="1" stop-color="rgb(6.079102%, 43.203735%, 78.160095%)" offset="0.28125"></stop><stop stop-opacity="1" stop-color="rgb(6.031799%, 42.919922%, 77.94342%)" offset="0.289062"></stop><stop stop-opacity="1" stop-color="rgb(5.982971%, 42.634583%, 77.72522%)" offset="0.296875"></stop><stop stop-opacity="1" stop-color="rgb(5.934143%, 42.350769%, 77.507019%)" offset="0.304688"></stop><stop stop-opacity="1" stop-color="rgb(5.885315%, 42.06543%, 77.288818%)" offset="0.3125"></stop><stop stop-opacity="1" stop-color="rgb(5.838013%, 41.781616%, 77.070618%)" offset="0.320312"></stop><stop stop-opacity="1" stop-color="rgb(5.789185%, 41.497803%, 76.852417%)" offset="0.328125"></stop><stop stop-opacity="1" stop-color="rgb(5.740356%, 41.212463%, 76.634216%)" offset="0.335938"></stop><stop stop-opacity="1" stop-color="rgb(5.691528%, 40.92865%, 76.417542%)" offset="0.34375"></stop><stop stop-opacity="1" stop-color="rgb(5.644226%, 40.644836%, 76.199341%)" offset="0.351562"></stop><stop stop-opacity="1" stop-color="rgb(5.595398%, 40.359497%, 75.98114%)" offset="0.359375"></stop><stop stop-opacity="1" stop-color="rgb(5.54657%, 40.075684%, 75.762939%)" offset="0.367188"></stop><stop stop-opacity="1" stop-color="rgb(5.497742%, 39.79187%, 75.544739%)" offset="0.375"></stop><stop stop-opacity="1" stop-color="rgb(5.450439%, 39.506531%, 75.326538%)" offset="0.382812"></stop><stop stop-opacity="1" stop-color="rgb(5.401611%, 39.222717%, 75.109863%)" offset="0.390625"></stop><stop stop-opacity="1" stop-color="rgb(5.352783%, 38.937378%, 74.891663%)" offset="0.398438"></stop><stop stop-opacity="1" stop-color="rgb(5.303955%, 38.653564%, 74.673462%)" offset="0.40625"></stop><stop stop-opacity="1" stop-color="rgb(5.256653%, 38.369751%, 74.455261%)" offset="0.414062"></stop><stop stop-opacity="1" stop-color="rgb(5.207825%, 38.084412%, 74.237061%)" offset="0.421875"></stop><stop stop-opacity="1" stop-color="rgb(5.158997%, 37.800598%, 74.01886%)" offset="0.429688"></stop><stop stop-opacity="1" stop-color="rgb(5.110168%, 37.516785%, 73.800659%)" offset="0.4375"></stop><stop stop-opacity="1" stop-color="rgb(5.062866%, 37.231445%, 73.583984%)" offset="0.445312"></stop><stop stop-opacity="1" stop-color="rgb(5.014038%, 36.947632%, 73.365784%)" offset="0.453125"></stop><stop stop-opacity="1" stop-color="rgb(4.96521%, 36.662292%, 73.147583%)" offset="0.460938"></stop><stop stop-opacity="1" stop-color="rgb(4.916382%, 36.378479%, 72.929382%)" offset="0.46875"></stop><stop stop-opacity="1" stop-color="rgb(4.86908%, 36.094666%, 72.711182%)" offset="0.476562"></stop><stop stop-opacity="1" stop-color="rgb(4.820251%, 35.809326%, 72.492981%)" offset="0.484375"></stop><stop stop-opacity="1" stop-color="rgb(4.771423%, 35.525513%, 72.276306%)" offset="0.492187"></stop><stop stop-opacity="1" stop-color="rgb(4.722595%, 35.241699%, 72.058105%)" offset="0.5"></stop><stop stop-opacity="1" stop-color="rgb(4.675293%, 34.95636%, 71.839905%)" offset="0.507812"></stop><stop stop-opacity="1" stop-color="rgb(4.626465%, 34.672546%, 71.621704%)" offset="0.515625"></stop><stop stop-opacity="1" stop-color="rgb(4.577637%, 34.388733%, 71.403503%)" offset="0.523438"></stop><stop stop-opacity="1" stop-color="rgb(4.528809%, 34.103394%, 71.185303%)" offset="0.53125"></stop><stop stop-opacity="1" stop-color="rgb(4.481506%, 33.81958%, 70.967102%)" offset="0.539062"></stop><stop stop-opacity="1" stop-color="rgb(4.432678%, 33.534241%, 70.750427%)" offset="0.546875"></stop><stop stop-opacity="1" stop-color="rgb(4.38385%, 33.250427%, 70.532227%)" offset="0.554688"></stop><stop stop-opacity="1" stop-color="rgb(4.335022%, 32.966614%, 70.314026%)" offset="0.5625"></stop><stop stop-opacity="1" stop-color="rgb(4.28772%, 32.681274%, 70.095825%)" offset="0.570312"></stop><stop stop-opacity="1" stop-color="rgb(4.238892%, 32.397461%, 69.877625%)" offset="0.578125"></stop><stop stop-opacity="1" stop-color="rgb(4.190063%, 32.113647%, 69.659424%)" offset="0.585938"></stop><stop stop-opacity="1" stop-color="rgb(4.142761%, 31.828308%, 69.441223%)" offset="0.59375"></stop><stop stop-opacity="1" stop-color="rgb(4.093933%, 31.544495%, 69.224548%)" offset="0.601562"></stop><stop stop-opacity="1" stop-color="rgb(4.045105%, 31.259155%, 69.006348%)" offset="0.609375"></stop><stop stop-opacity="1" stop-color="rgb(3.996277%, 30.975342%, 68.788147%)" offset="0.617188"></stop><stop stop-opacity="1" stop-color="rgb(3.948975%, 30.691528%, 68.569946%)" offset="0.625"></stop><stop stop-opacity="1" stop-color="rgb(3.900146%, 30.406189%, 68.351746%)" offset="0.632812"></stop><stop stop-opacity="1" stop-color="rgb(3.851318%, 30.122375%, 68.133545%)" offset="0.640625"></stop><stop stop-opacity="1" stop-color="rgb(3.80249%, 29.838562%, 67.91687%)" offset="0.648438"></stop><stop stop-opacity="1" stop-color="rgb(3.755188%, 29.553223%, 67.698669%)" offset="0.65625"></stop><stop stop-opacity="1" stop-color="rgb(3.70636%, 29.269409%, 67.480469%)" offset="0.664062"></stop><stop stop-opacity="1" stop-color="rgb(3.657532%, 28.985596%, 67.262268%)" offset="0.671875"></stop><stop stop-opacity="1" stop-color="rgb(3.608704%, 28.700256%, 67.044067%)" offset="0.679688"></stop><stop stop-opacity="1" stop-color="rgb(3.561401%, 28.416443%, 66.825867%)" offset="0.6875"></stop><stop stop-opacity="1" stop-color="rgb(3.512573%, 28.131104%, 66.607666%)" offset="0.695312"></stop><stop stop-opacity="1" stop-color="rgb(3.463745%, 27.84729%, 66.390991%)" offset="0.703125"></stop><stop stop-opacity="1" stop-color="rgb(3.414917%, 27.563477%, 66.172791%)" offset="0.710938"></stop><stop stop-opacity="1" stop-color="rgb(3.367615%, 27.278137%, 65.95459%)" offset="0.71875"></stop><stop stop-opacity="1" stop-color="rgb(3.318787%, 26.994324%, 65.736389%)" offset="0.726562"></stop><stop stop-opacity="1" stop-color="rgb(3.269958%, 26.71051%, 65.518188%)" offset="0.734375"></stop><stop stop-opacity="1" stop-color="rgb(3.22113%, 26.425171%, 65.299988%)" offset="0.742188"></stop><stop stop-opacity="1" stop-color="rgb(3.173828%, 26.141357%, 65.083313%)" offset="0.75"></stop><stop stop-opacity="1" stop-color="rgb(3.125%, 25.856018%, 64.865112%)" offset="0.757812"></stop><stop stop-opacity="1" stop-color="rgb(3.076172%, 25.572205%, 64.646912%)" offset="0.765625"></stop><stop stop-opacity="1" stop-color="rgb(3.027344%, 25.288391%, 64.428711%)" offset="0.773438"></stop><stop stop-opacity="1" stop-color="rgb(2.980042%, 25.003052%, 64.21051%)" offset="0.78125"></stop><stop stop-opacity="1" stop-color="rgb(2.931213%, 24.719238%, 63.99231%)" offset="0.789062"></stop><stop stop-opacity="1" stop-color="rgb(2.882385%, 24.435425%, 63.774109%)" offset="0.796875"></stop><stop stop-opacity="1" stop-color="rgb(2.833557%, 24.150085%, 63.557434%)" offset="0.804688"></stop><stop stop-opacity="1" stop-color="rgb(2.786255%, 23.866272%, 63.339233%)" offset="0.8125"></stop><stop stop-opacity="1" stop-color="rgb(2.737427%, 23.582458%, 63.121033%)" offset="0.820312"></stop><stop stop-opacity="1" stop-color="rgb(2.688599%, 23.297119%, 62.902832%)" offset="0.828125"></stop><stop stop-opacity="1" stop-color="rgb(2.639771%, 23.013306%, 62.684631%)" offset="0.835938"></stop><stop stop-opacity="1" stop-color="rgb(2.592468%, 22.727966%, 62.466431%)" offset="0.84375"></stop><stop stop-opacity="1" stop-color="rgb(2.54364%, 22.444153%, 62.24823%)" offset="0.851562"></stop><stop stop-opacity="1" stop-color="rgb(2.494812%, 22.160339%, 62.031555%)" offset="0.859375"></stop><stop stop-opacity="1" stop-color="rgb(2.445984%, 21.875%, 61.813354%)" offset="0.867188"></stop><stop stop-opacity="1" stop-color="rgb(2.398682%, 21.591187%, 61.595154%)" offset="0.875"></stop><stop stop-opacity="1" stop-color="rgb(2.349854%, 21.307373%, 61.376953%)" offset="0.882812"></stop><stop stop-opacity="1" stop-color="rgb(2.301025%, 21.022034%, 61.158752%)" offset="0.890625"></stop><stop stop-opacity="1" stop-color="rgb(2.252197%, 20.73822%, 60.940552%)" offset="0.898438"></stop><stop stop-opacity="1" stop-color="rgb(2.204895%, 20.454407%, 60.723877%)" offset="0.90625"></stop><stop stop-opacity="1" stop-color="rgb(2.156067%, 20.169067%, 60.505676%)" offset="0.914062"></stop><stop stop-opacity="1" stop-color="rgb(2.107239%, 19.885254%, 60.287476%)" offset="0.921875"></stop><stop stop-opacity="1" stop-color="rgb(2.059937%, 19.599915%, 60.069275%)" offset="0.929688"></stop><stop stop-opacity="1" stop-color="rgb(2.011108%, 19.316101%, 59.851074%)" offset="0.9375"></stop><stop stop-opacity="1" stop-color="rgb(1.96228%, 19.032288%, 59.632874%)" offset="0.945312"></stop><stop stop-opacity="1" stop-color="rgb(1.913452%, 18.746948%, 59.414673%)" offset="0.953125"></stop><stop stop-opacity="1" stop-color="rgb(1.86615%, 18.463135%, 59.197998%)" offset="0.960938"></stop><stop stop-opacity="1" stop-color="rgb(1.817322%, 18.179321%, 58.979797%)" offset="0.96875"></stop><stop stop-opacity="1" stop-color="rgb(1.768494%, 17.893982%, 58.761597%)" offset="0.976562"></stop><stop stop-opacity="1" stop-color="rgb(1.719666%, 17.610168%, 58.543396%)" offset="0.984375"></stop><stop stop-opacity="1" stop-color="rgb(1.672363%, 17.324829%, 58.325195%)" offset="0.992188"></stop><stop stop-opacity="1" stop-color="rgb(1.623535%, 17.041016%, 58.106995%)" offset="1"></stop></linearGradient></defs><g clip-path="url(#069a2a414a)"><g clip-path="url(#cdbf68bbb5)"><path fill="url(#fcff687c6b)" d="M 5.167969 64.453125 L 5.167969 369.140625 L 369.140625 369.140625 L 369.140625 64.453125 Z M 5.167969 64.453125 " fill-rule="nonzero"></path></g></g></svg> 