<?xml version="1.0" encoding="UTF-8"?> <svg xmlns="http://www.w3.org/2000/svg" xmlns:xlink="http://www.w3.org/1999/xlink" width="500" zoomAndPan="magnify" viewBox="0 0 375 374.999991" height="500" preserveAspectRatio="xMidYMid meet" version="1.0"><defs><clipPath id="55a2ae2c8c"><path d="M 11 11 L 364 11 L 364 364 L 11 364 Z M 11 11 " clip-rule="nonzero"></path></clipPath><clipPath id="f6389f8493"><path d="M 345.703125 11.71875 L 29.296875 11.71875 C 28.722656 11.71875 28.148438 11.75 27.574219 11.808594 C 27.003906 11.867188 26.433594 11.953125 25.871094 12.066406 C 25.308594 12.179688 24.75 12.320312 24.199219 12.488281 C 23.648438 12.65625 23.109375 12.851562 22.578125 13.070312 C 22.046875 13.292969 21.527344 13.539062 21.019531 13.808594 C 20.515625 14.082031 20.019531 14.378906 19.542969 14.699219 C 19.066406 15.015625 18.605469 15.359375 18.160156 15.726562 C 17.714844 16.089844 17.289062 16.476562 16.882812 16.882812 C 16.476562 17.289062 16.089844 17.714844 15.726562 18.160156 C 15.359375 18.605469 15.015625 19.066406 14.699219 19.542969 C 14.378906 20.019531 14.082031 20.515625 13.808594 21.019531 C 13.539062 21.527344 13.292969 22.046875 13.070312 22.578125 C 12.851562 23.109375 12.65625 23.648438 12.488281 24.199219 C 12.320312 24.75 12.179688 25.308594 12.066406 25.871094 C 11.953125 26.433594 11.867188 27.003906 11.808594 27.574219 C 11.75 28.148438 11.71875 28.722656 11.71875 29.296875 L 11.71875 275.390625 C 11.71875 275.964844 11.75 276.539062 11.808594 277.113281 C 11.867188 277.683594 11.953125 278.253906 12.066406 278.816406 C 12.179688 279.378906 12.320312 279.9375 12.488281 280.488281 C 12.65625 281.039062 12.851562 281.578125 13.070312 282.109375 C 13.292969 282.640625 13.539062 283.160156 13.808594 283.667969 C 14.082031 284.171875 14.378906 284.667969 14.699219 285.144531 C 15.015625 285.621094 15.359375 286.082031 15.726562 286.527344 C 16.089844 286.972656 16.476562 287.398438 16.882812 287.804688 C 17.289062 288.210938 17.714844 288.597656 18.160156 288.960938 C 18.605469 289.328125 19.066406 289.671875 19.542969 289.988281 C 20.019531 290.308594 20.515625 290.605469 21.019531 290.878906 C 21.527344 291.148438 22.046875 291.394531 22.578125 291.617188 C 23.109375 291.835938 23.648438 292.03125 24.199219 292.199219 C 24.75 292.367188 25.308594 292.507812 25.871094 292.621094 C 26.433594 292.734375 27.003906 292.820312 27.574219 292.878906 C 28.148438 292.9375 28.722656 292.96875 29.296875 292.96875 L 222.65625 292.96875 L 222.65625 333.984375 C 222.65625 334.945312 222.703125 335.902344 222.796875 336.855469 C 222.890625 337.8125 223.03125 338.757812 223.21875 339.699219 C 223.40625 340.640625 223.640625 341.570312 223.917969 342.488281 C 224.195312 343.40625 224.519531 344.308594 224.886719 345.195312 C 225.253906 346.082031 225.664062 346.949219 226.117188 347.792969 C 226.566406 348.640625 227.058594 349.464844 227.59375 350.261719 C 228.125 351.058594 228.699219 351.828125 229.304688 352.570312 C 229.914062 353.3125 230.558594 354.023438 231.238281 354.699219 C 231.914062 355.378906 232.625 356.023438 233.367188 356.632812 C 234.109375 357.238281 234.878906 357.8125 235.675781 358.34375 C 236.472656 358.875 237.296875 359.371094 238.144531 359.820312 C 238.988281 360.273438 239.855469 360.683594 240.742188 361.050781 C 241.628906 361.417969 242.53125 361.742188 243.449219 362.019531 C 244.367188 362.296875 245.296875 362.53125 246.238281 362.71875 C 247.179688 362.90625 248.125 363.046875 249.082031 363.140625 C 250.035156 363.234375 250.992188 363.28125 251.953125 363.28125 L 333.984375 363.28125 C 334.945312 363.28125 335.902344 363.234375 336.855469 363.140625 C 337.8125 363.046875 338.757812 362.90625 339.699219 362.71875 C 340.640625 362.53125 341.570312 362.296875 342.488281 362.019531 C 343.40625 361.742188 344.308594 361.417969 345.195312 361.050781 C 346.082031 360.683594 346.949219 360.273438 347.792969 359.820312 C 348.640625 359.371094 349.464844 358.875 350.261719 358.34375 C 351.058594 357.8125 351.828125 357.238281 352.570312 356.632812 C 353.3125 356.023438 354.023438 355.378906 354.699219 354.699219 C 355.378906 354.023438 356.023438 353.3125 356.632812 352.570312 C 357.238281 351.828125 357.8125 351.058594 358.34375 350.261719 C 358.875 349.464844 359.371094 348.640625 359.820312 347.792969 C 360.273438 346.949219 360.683594 346.082031 361.050781 345.195312 C 361.417969 344.308594 361.742188 343.40625 362.019531 342.488281 C 362.296875 341.570312 362.53125 340.640625 362.71875 339.699219 C 362.90625 338.757812 363.046875 337.8125 363.140625 336.855469 C 363.234375 335.902344 363.28125 334.945312 363.28125 333.984375 L 363.28125 29.296875 C 363.28125 28.722656 363.25 28.148438 363.191406 27.574219 C 363.132812 27.003906 363.046875 26.433594 362.933594 25.871094 C 362.820312 25.308594 362.679688 24.75 362.511719 24.199219 C 362.34375 23.648438 362.148438 23.109375 361.929688 22.578125 C 361.707031 22.046875 361.460938 21.527344 361.191406 21.019531 C 360.917969 20.515625 360.621094 20.019531 360.300781 19.542969 C 359.984375 19.066406 359.640625 18.605469 359.273438 18.160156 C 358.910156 17.714844 358.523438 17.289062 358.117188 16.882812 C 357.710938 16.476562 357.285156 16.089844 356.839844 15.726562 C 356.394531 15.359375 355.933594 15.015625 355.457031 14.699219 C 354.976562 14.378906 354.484375 14.082031 353.980469 13.808594 C 353.472656 13.539062 352.953125 13.292969 352.421875 13.070312 C 351.890625 12.851562 351.351562 12.65625 350.800781 12.488281 C 350.25 12.320312 349.691406 12.179688 349.128906 12.066406 C 348.566406 11.953125 347.996094 11.867188 347.425781 11.808594 C 346.851562 11.75 346.277344 11.71875 345.703125 11.71875 Z M 351.5625 333.984375 C 351.5625 334.558594 351.53125 335.132812 351.472656 335.707031 C 351.414062 336.277344 351.328125 336.847656 351.214844 337.410156 C 351.101562 337.972656 350.960938 338.53125 350.792969 339.082031 C 350.625 339.632812 350.429688 340.171875 350.210938 340.703125 C 349.988281 341.234375 349.742188 341.753906 349.472656 342.261719 C 349.199219 342.765625 348.902344 343.261719 348.582031 343.738281 C 348.265625 344.214844 347.921875 344.675781 347.554688 345.121094 C 347.191406 345.566406 346.804688 345.992188 346.398438 346.398438 C 345.992188 346.804688 345.566406 347.191406 345.121094 347.554688 C 344.675781 347.921875 344.214844 348.265625 343.738281 348.582031 C 343.261719 348.902344 342.765625 349.199219 342.261719 349.472656 C 341.753906 349.742188 341.234375 349.988281 340.703125 350.210938 C 340.171875 350.429688 339.632812 350.625 339.082031 350.792969 C 338.53125 350.960938 337.972656 351.101562 337.410156 351.214844 C 336.847656 351.328125 336.277344 351.414062 335.707031 351.472656 C 335.132812 351.53125 334.558594 351.5625 333.984375 351.5625 L 251.953125 351.5625 C 251.378906 351.5625 250.804688 351.53125 250.230469 351.472656 C 249.660156 351.414062 249.089844 351.328125 248.527344 351.214844 C 247.964844 351.101562 247.40625 350.960938 246.855469 350.792969 C 246.304688 350.625 245.765625 350.429688 245.234375 350.210938 C 244.703125 349.988281 244.183594 349.742188 243.675781 349.472656 C 243.171875 349.199219 242.675781 348.902344 242.199219 348.582031 C 241.722656 348.265625 241.261719 347.921875 240.816406 347.554688 C 240.371094 347.191406 239.945312 346.804688 239.539062 346.398438 C 239.132812 345.992188 238.746094 345.566406 238.382812 345.121094 C 238.015625 344.675781 237.671875 344.214844 237.355469 343.738281 C 237.035156 343.261719 236.738281 342.765625 236.464844 342.261719 C 236.195312 341.753906 235.949219 341.234375 235.726562 340.703125 C 235.507812 340.171875 235.3125 339.632812 235.144531 339.082031 C 234.976562 338.53125 234.835938 337.972656 234.722656 337.410156 C 234.609375 336.847656 234.523438 336.277344 234.464844 335.707031 C 234.40625 335.132812 234.375 334.558594 234.375 333.984375 L 234.375 328.125 L 351.5625 328.125 Z M 351.5625 316.40625 L 234.375 316.40625 L 234.375 187.5 L 351.5625 187.5 Z M 351.5625 175.78125 L 234.375 175.78125 L 234.375 169.921875 C 234.375 169.347656 234.40625 168.773438 234.464844 168.199219 C 234.523438 167.628906 234.609375 167.058594 234.722656 166.496094 C 234.835938 165.933594 234.976562 165.375 235.144531 164.824219 C 235.3125 164.273438 235.507812 163.734375 235.726562 163.203125 C 235.949219 162.671875 236.195312 162.152344 236.464844 161.644531 C 236.738281 161.140625 237.035156 160.644531 237.355469 160.167969 C 237.671875 159.691406 238.015625 159.230469 238.382812 158.785156 C 238.746094 158.339844 239.132812 157.914062 239.539062 157.507812 C 239.945312 157.101562 240.371094 156.714844 240.816406 156.351562 C 241.261719 155.984375 241.722656 155.640625 242.199219 155.324219 C 242.675781 155.003906 243.171875 154.707031 243.675781 154.433594 C 244.183594 154.164062 244.703125 153.917969 245.234375 153.695312 C 245.765625 153.476562 246.304688 153.28125 246.855469 153.113281 C 247.40625 152.945312 247.964844 152.804688 248.527344 152.691406 C 249.089844 152.578125 249.660156 152.492188 250.230469 152.433594 C 250.804688 152.375 251.378906 152.34375 251.953125 152.34375 L 333.984375 152.34375 C 334.558594 152.34375 335.132812 152.375 335.707031 152.433594 C 336.277344 152.492188 336.847656 152.578125 337.410156 152.691406 C 337.972656 152.804688 338.53125 152.945312 339.082031 153.113281 C 339.632812 153.28125 340.171875 153.476562 340.703125 153.695312 C 341.234375 153.917969 341.753906 154.164062 342.261719 154.433594 C 342.765625 154.707031 343.261719 155.003906 343.738281 155.324219 C 344.214844 155.640625 344.675781 155.984375 345.121094 156.351562 C 345.566406 156.714844 345.992188 157.101562 346.398438 157.507812 C 346.804688 157.914062 347.191406 158.339844 347.554688 158.785156 C 347.921875 159.230469 348.265625 159.691406 348.582031 160.167969 C 348.902344 160.644531 349.199219 161.140625 349.472656 161.644531 C 349.742188 162.152344 349.988281 162.671875 350.210938 163.203125 C 350.429688 163.734375 350.625 164.273438 350.792969 164.824219 C 350.960938 165.375 351.101562 165.933594 351.214844 166.496094 C 351.328125 167.058594 351.414062 167.628906 351.472656 168.199219 C 351.53125 168.773438 351.5625 169.347656 351.5625 169.921875 Z M 351.5625 146.660156 C 349.046875 144.710938 346.28125 143.222656 343.273438 142.1875 C 340.261719 141.15625 337.167969 140.632812 333.984375 140.625 L 251.953125 140.625 C 250.992188 140.625 250.035156 140.671875 249.082031 140.765625 C 248.125 140.859375 247.179688 141 246.238281 141.1875 C 245.296875 141.375 244.367188 141.609375 243.449219 141.886719 C 242.53125 142.164062 241.628906 142.488281 240.742188 142.855469 C 239.855469 143.222656 238.988281 143.632812 238.144531 144.085938 C 237.296875 144.535156 236.472656 145.03125 235.675781 145.5625 C 234.878906 146.09375 234.109375 146.667969 233.367188 147.273438 C 232.625 147.882812 231.914062 148.527344 231.238281 149.207031 C 230.558594 149.882812 229.914062 150.59375 229.304688 151.335938 C 228.699219 152.078125 228.125 152.847656 227.59375 153.644531 C 227.0625 154.441406 226.566406 155.265625 226.117188 156.113281 C 225.664062 156.957031 225.253906 157.824219 224.886719 158.710938 C 224.519531 159.597656 224.195312 160.5 223.917969 161.417969 C 223.640625 162.335938 223.40625 163.265625 223.21875 164.207031 C 223.03125 165.148438 222.890625 166.09375 222.796875 167.050781 C 222.703125 168.003906 222.65625 168.960938 222.65625 169.921875 L 222.65625 281.25 L 29.296875 281.25 C 28.914062 281.25 28.53125 281.210938 28.152344 281.136719 C 27.777344 281.0625 27.410156 280.949219 27.054688 280.804688 C 26.699219 280.65625 26.363281 280.476562 26.042969 280.261719 C 25.722656 280.046875 25.425781 279.804688 25.152344 279.535156 C 24.882812 279.261719 24.640625 278.964844 24.425781 278.644531 C 24.210938 278.324219 24.03125 277.988281 23.882812 277.632812 C 23.734375 277.277344 23.625 276.910156 23.550781 276.535156 C 23.476562 276.15625 23.4375 275.773438 23.4375 275.390625 L 23.4375 70.3125 L 351.5625 70.3125 Z M 351.5625 58.59375 L 23.4375 58.59375 L 23.4375 29.296875 C 23.4375 28.914062 23.476562 28.53125 23.550781 28.152344 C 23.625 27.777344 23.734375 27.410156 23.882812 27.054688 C 24.03125 26.699219 24.210938 26.363281 24.425781 26.042969 C 24.640625 25.722656 24.882812 25.425781 25.152344 25.152344 C 25.425781 24.882812 25.722656 24.640625 26.042969 24.425781 C 26.363281 24.210938 26.699219 24.03125 27.054688 23.882812 C 27.410156 23.734375 27.777344 23.625 28.152344 23.550781 C 28.53125 23.476562 28.914062 23.4375 29.296875 23.4375 L 345.703125 23.4375 C 346.085938 23.4375 346.46875 23.476562 346.847656 23.550781 C 347.222656 23.625 347.589844 23.734375 347.945312 23.882812 C 348.300781 24.03125 348.636719 24.210938 348.957031 24.425781 C 349.277344 24.640625 349.574219 24.882812 349.847656 25.152344 C 350.117188 25.425781 350.359375 25.722656 350.574219 26.042969 C 350.789062 26.363281 350.96875 26.699219 351.117188 27.054688 C 351.261719 27.410156 351.375 27.777344 351.449219 28.152344 C 351.523438 28.53125 351.5625 28.914062 351.5625 29.296875 Z M 351.5625 58.59375 " clip-rule="nonzero"></path></clipPath><linearGradient x1="32" gradientTransform="matrix(5.859375, 0, 0, 5.859375, 0.0000045, 0)" y1="61.999999" x2="32" gradientUnits="userSpaceOnUse" y2="2" id="3418cb9101"><stop stop-opacity="1" stop-color="rgb(7.739258%, 52.94342%, 85.627747%)" offset="0"></stop><stop stop-opacity="1" stop-color="rgb(7.714844%, 52.799988%, 85.517883%)" offset="0.0078125"></stop><stop stop-opacity="1" stop-color="rgb(7.666016%, 52.514648%, 85.298157%)" offset="0.015625"></stop><stop stop-opacity="1" stop-color="rgb(7.617188%, 52.229309%, 85.07843%)" offset="0.0234375"></stop><stop stop-opacity="1" stop-color="rgb(7.568359%, 51.942444%, 84.858704%)" offset="0.03125"></stop><stop stop-opacity="1" stop-color="rgb(7.519531%, 51.657104%, 84.640503%)" offset="0.0390625"></stop><stop stop-opacity="1" stop-color="rgb(7.470703%, 51.370239%, 84.420776%)" offset="0.046875"></stop><stop stop-opacity="1" stop-color="rgb(7.421875%, 51.0849%, 84.20105%)" offset="0.0546875"></stop><stop stop-opacity="1" stop-color="rgb(7.373047%, 50.798035%, 83.982849%)" offset="0.0625"></stop><stop stop-opacity="1" stop-color="rgb(7.324219%, 50.512695%, 83.763123%)" offset="0.0703125"></stop><stop stop-opacity="1" stop-color="rgb(7.275391%, 50.22583%, 83.543396%)" offset="0.078125"></stop><stop stop-opacity="1" stop-color="rgb(7.226562%, 49.940491%, 83.325195%)" offset="0.0859375"></stop><stop stop-opacity="1" stop-color="rgb(7.177734%, 49.653625%, 83.105469%)" offset="0.09375"></stop><stop stop-opacity="1" stop-color="rgb(7.128906%, 49.368286%, 82.885742%)" offset="0.101562"></stop><stop stop-opacity="1" stop-color="rgb(7.081604%, 49.081421%, 82.667542%)" offset="0.109375"></stop><stop stop-opacity="1" stop-color="rgb(7.032776%, 48.796082%, 82.447815%)" offset="0.117187"></stop><stop stop-opacity="1" stop-color="rgb(6.983948%, 48.509216%, 82.228088%)" offset="0.125"></stop><stop stop-opacity="1" stop-color="rgb(6.93512%, 48.223877%, 82.009888%)" offset="0.132812"></stop><stop stop-opacity="1" stop-color="rgb(6.886292%, 47.938538%, 81.790161%)" offset="0.140625"></stop><stop stop-opacity="1" stop-color="rgb(6.837463%, 47.651672%, 81.570435%)" offset="0.148437"></stop><stop stop-opacity="1" stop-color="rgb(6.788635%, 47.366333%, 81.350708%)" offset="0.15625"></stop><stop stop-opacity="1" stop-color="rgb(6.739807%, 47.079468%, 81.132507%)" offset="0.164062"></stop><stop stop-opacity="1" stop-color="rgb(6.690979%, 46.794128%, 80.912781%)" offset="0.171875"></stop><stop stop-opacity="1" stop-color="rgb(6.642151%, 46.507263%, 80.693054%)" offset="0.179687"></stop><stop stop-opacity="1" stop-color="rgb(6.593323%, 46.221924%, 80.474854%)" offset="0.1875"></stop><stop stop-opacity="1" stop-color="rgb(6.544495%, 45.935059%, 80.255127%)" offset="0.195312"></stop><stop stop-opacity="1" stop-color="rgb(6.495667%, 45.649719%, 80.0354%)" offset="0.203125"></stop><stop stop-opacity="1" stop-color="rgb(6.446838%, 45.362854%, 79.8172%)" offset="0.210937"></stop><stop stop-opacity="1" stop-color="rgb(6.399536%, 45.077515%, 79.597473%)" offset="0.21875"></stop><stop stop-opacity="1" stop-color="rgb(6.350708%, 44.790649%, 79.377747%)" offset="0.226562"></stop><stop stop-opacity="1" stop-color="rgb(6.30188%, 44.50531%, 79.159546%)" offset="0.234375"></stop><stop stop-opacity="1" stop-color="rgb(6.253052%, 44.218445%, 78.939819%)" offset="0.242187"></stop><stop stop-opacity="1" stop-color="rgb(6.204224%, 43.933105%, 78.720093%)" offset="0.25"></stop><stop stop-opacity="1" stop-color="rgb(6.155396%, 43.647766%, 78.500366%)" offset="0.257812"></stop><stop stop-opacity="1" stop-color="rgb(6.106567%, 43.360901%, 78.282166%)" offset="0.265625"></stop><stop stop-opacity="1" stop-color="rgb(6.057739%, 43.075562%, 78.062439%)" offset="0.273437"></stop><stop stop-opacity="1" stop-color="rgb(6.008911%, 42.788696%, 77.842712%)" offset="0.28125"></stop><stop stop-opacity="1" stop-color="rgb(5.960083%, 42.503357%, 77.624512%)" offset="0.289062"></stop><stop stop-opacity="1" stop-color="rgb(5.911255%, 42.216492%, 77.404785%)" offset="0.296875"></stop><stop stop-opacity="1" stop-color="rgb(5.862427%, 41.931152%, 77.185059%)" offset="0.304688"></stop><stop stop-opacity="1" stop-color="rgb(5.813599%, 41.644287%, 76.966858%)" offset="0.3125"></stop><stop stop-opacity="1" stop-color="rgb(5.764771%, 41.358948%, 76.747131%)" offset="0.320312"></stop><stop stop-opacity="1" stop-color="rgb(5.717468%, 41.072083%, 76.527405%)" offset="0.328125"></stop><stop stop-opacity="1" stop-color="rgb(5.66864%, 40.786743%, 76.309204%)" offset="0.335937"></stop><stop stop-opacity="1" stop-color="rgb(5.619812%, 40.499878%, 76.089478%)" offset="0.34375"></stop><stop stop-opacity="1" stop-color="rgb(5.570984%, 40.214539%, 75.869751%)" offset="0.351562"></stop><stop stop-opacity="1" stop-color="rgb(5.522156%, 39.929199%, 75.65155%)" offset="0.359375"></stop><stop stop-opacity="1" stop-color="rgb(5.473328%, 39.642334%, 75.431824%)" offset="0.367187"></stop><stop stop-opacity="1" stop-color="rgb(5.4245%, 39.356995%, 75.212097%)" offset="0.375"></stop><stop stop-opacity="1" stop-color="rgb(5.375671%, 39.070129%, 74.992371%)" offset="0.382812"></stop><stop stop-opacity="1" stop-color="rgb(5.326843%, 38.78479%, 74.77417%)" offset="0.390625"></stop><stop stop-opacity="1" stop-color="rgb(5.278015%, 38.497925%, 74.554443%)" offset="0.398437"></stop><stop stop-opacity="1" stop-color="rgb(5.229187%, 38.212585%, 74.334717%)" offset="0.40625"></stop><stop stop-opacity="1" stop-color="rgb(5.180359%, 37.92572%, 74.116516%)" offset="0.414062"></stop><stop stop-opacity="1" stop-color="rgb(5.131531%, 37.640381%, 73.89679%)" offset="0.421875"></stop><stop stop-opacity="1" stop-color="rgb(5.082703%, 37.353516%, 73.677063%)" offset="0.429687"></stop><stop stop-opacity="1" stop-color="rgb(5.033875%, 37.068176%, 73.458862%)" offset="0.4375"></stop><stop stop-opacity="1" stop-color="rgb(4.986572%, 36.781311%, 73.239136%)" offset="0.445312"></stop><stop stop-opacity="1" stop-color="rgb(4.937744%, 36.495972%, 73.019409%)" offset="0.453125"></stop><stop stop-opacity="1" stop-color="rgb(4.888916%, 36.209106%, 72.801208%)" offset="0.460937"></stop><stop stop-opacity="1" stop-color="rgb(4.840088%, 35.923767%, 72.581482%)" offset="0.46875"></stop><stop stop-opacity="1" stop-color="rgb(4.79126%, 35.638428%, 72.361755%)" offset="0.476562"></stop><stop stop-opacity="1" stop-color="rgb(4.742432%, 35.351562%, 72.143555%)" offset="0.484375"></stop><stop stop-opacity="1" stop-color="rgb(4.693604%, 35.066223%, 71.923828%)" offset="0.492187"></stop><stop stop-opacity="1" stop-color="rgb(4.644775%, 34.779358%, 71.704102%)" offset="0.5"></stop><stop stop-opacity="1" stop-color="rgb(4.595947%, 34.494019%, 71.484375%)" offset="0.507812"></stop><stop stop-opacity="1" stop-color="rgb(4.547119%, 34.207153%, 71.266174%)" offset="0.515625"></stop><stop stop-opacity="1" stop-color="rgb(4.498291%, 33.921814%, 71.046448%)" offset="0.523438"></stop><stop stop-opacity="1" stop-color="rgb(4.449463%, 33.634949%, 70.826721%)" offset="0.53125"></stop><stop stop-opacity="1" stop-color="rgb(4.400635%, 33.349609%, 70.608521%)" offset="0.539062"></stop><stop stop-opacity="1" stop-color="rgb(4.351807%, 33.062744%, 70.388794%)" offset="0.546875"></stop><stop stop-opacity="1" stop-color="rgb(4.304504%, 32.777405%, 70.169067%)" offset="0.554688"></stop><stop stop-opacity="1" stop-color="rgb(4.255676%, 32.49054%, 69.950867%)" offset="0.5625"></stop><stop stop-opacity="1" stop-color="rgb(4.206848%, 32.2052%, 69.73114%)" offset="0.570312"></stop><stop stop-opacity="1" stop-color="rgb(4.15802%, 31.919861%, 69.511414%)" offset="0.578125"></stop><stop stop-opacity="1" stop-color="rgb(4.109192%, 31.632996%, 69.293213%)" offset="0.585938"></stop><stop stop-opacity="1" stop-color="rgb(4.060364%, 31.347656%, 69.073486%)" offset="0.59375"></stop><stop stop-opacity="1" stop-color="rgb(4.011536%, 31.060791%, 68.85376%)" offset="0.601563"></stop><stop stop-opacity="1" stop-color="rgb(3.962708%, 30.775452%, 68.634033%)" offset="0.609375"></stop><stop stop-opacity="1" stop-color="rgb(3.913879%, 30.488586%, 68.415833%)" offset="0.617188"></stop><stop stop-opacity="1" stop-color="rgb(3.865051%, 30.203247%, 68.196106%)" offset="0.625"></stop><stop stop-opacity="1" stop-color="rgb(3.816223%, 29.916382%, 67.976379%)" offset="0.632812"></stop><stop stop-opacity="1" stop-color="rgb(3.767395%, 29.631042%, 67.758179%)" offset="0.640625"></stop><stop stop-opacity="1" stop-color="rgb(3.718567%, 29.344177%, 67.538452%)" offset="0.648438"></stop><stop stop-opacity="1" stop-color="rgb(3.669739%, 29.058838%, 67.318726%)" offset="0.65625"></stop><stop stop-opacity="1" stop-color="rgb(3.620911%, 28.771973%, 67.100525%)" offset="0.664062"></stop><stop stop-opacity="1" stop-color="rgb(3.573608%, 28.486633%, 66.880798%)" offset="0.671875"></stop><stop stop-opacity="1" stop-color="rgb(3.52478%, 28.199768%, 66.661072%)" offset="0.679688"></stop><stop stop-opacity="1" stop-color="rgb(3.475952%, 27.914429%, 66.442871%)" offset="0.6875"></stop><stop stop-opacity="1" stop-color="rgb(3.427124%, 27.629089%, 66.223145%)" offset="0.695312"></stop><stop stop-opacity="1" stop-color="rgb(3.378296%, 27.342224%, 66.003418%)" offset="0.703125"></stop><stop stop-opacity="1" stop-color="rgb(3.329468%, 27.056885%, 65.785217%)" offset="0.710937"></stop><stop stop-opacity="1" stop-color="rgb(3.28064%, 26.77002%, 65.565491%)" offset="0.71875"></stop><stop stop-opacity="1" stop-color="rgb(3.231812%, 26.48468%, 65.345764%)" offset="0.726562"></stop><stop stop-opacity="1" stop-color="rgb(3.182983%, 26.197815%, 65.126038%)" offset="0.734375"></stop><stop stop-opacity="1" stop-color="rgb(3.134155%, 25.912476%, 64.907837%)" offset="0.742188"></stop><stop stop-opacity="1" stop-color="rgb(3.085327%, 25.62561%, 64.68811%)" offset="0.75"></stop><stop stop-opacity="1" stop-color="rgb(3.036499%, 25.340271%, 64.468384%)" offset="0.757812"></stop><stop stop-opacity="1" stop-color="rgb(2.987671%, 25.053406%, 64.250183%)" offset="0.765625"></stop><stop stop-opacity="1" stop-color="rgb(2.938843%, 24.768066%, 64.030457%)" offset="0.773438"></stop><stop stop-opacity="1" stop-color="rgb(2.891541%, 24.481201%, 63.81073%)" offset="0.78125"></stop><stop stop-opacity="1" stop-color="rgb(2.842712%, 24.195862%, 63.592529%)" offset="0.789063"></stop><stop stop-opacity="1" stop-color="rgb(2.793884%, 23.910522%, 63.372803%)" offset="0.796875"></stop><stop stop-opacity="1" stop-color="rgb(2.745056%, 23.623657%, 63.153076%)" offset="0.804688"></stop><stop stop-opacity="1" stop-color="rgb(2.696228%, 23.338318%, 62.934875%)" offset="0.8125"></stop><stop stop-opacity="1" stop-color="rgb(2.6474%, 23.051453%, 62.715149%)" offset="0.820312"></stop><stop stop-opacity="1" stop-color="rgb(2.598572%, 22.766113%, 62.495422%)" offset="0.828125"></stop><stop stop-opacity="1" stop-color="rgb(2.549744%, 22.479248%, 62.277222%)" offset="0.835938"></stop><stop stop-opacity="1" stop-color="rgb(2.500916%, 22.193909%, 62.057495%)" offset="0.84375"></stop><stop stop-opacity="1" stop-color="rgb(2.452087%, 21.907043%, 61.837769%)" offset="0.851562"></stop><stop stop-opacity="1" stop-color="rgb(2.403259%, 21.621704%, 61.618042%)" offset="0.859375"></stop><stop stop-opacity="1" stop-color="rgb(2.354431%, 21.334839%, 61.399841%)" offset="0.867188"></stop><stop stop-opacity="1" stop-color="rgb(2.305603%, 21.0495%, 61.180115%)" offset="0.875"></stop><stop stop-opacity="1" stop-color="rgb(2.256775%, 20.762634%, 60.960388%)" offset="0.882812"></stop><stop stop-opacity="1" stop-color="rgb(2.207947%, 20.477295%, 60.742188%)" offset="0.890625"></stop><stop stop-opacity="1" stop-color="rgb(2.160645%, 20.19043%, 60.522461%)" offset="0.898437"></stop><stop stop-opacity="1" stop-color="rgb(2.111816%, 19.90509%, 60.302734%)" offset="0.90625"></stop><stop stop-opacity="1" stop-color="rgb(2.062988%, 19.619751%, 60.084534%)" offset="0.914062"></stop><stop stop-opacity="1" stop-color="rgb(2.01416%, 19.332886%, 59.864807%)" offset="0.921875"></stop><stop stop-opacity="1" stop-color="rgb(1.965332%, 19.047546%, 59.645081%)" offset="0.929688"></stop><stop stop-opacity="1" stop-color="rgb(1.916504%, 18.760681%, 59.42688%)" offset="0.9375"></stop><stop stop-opacity="1" stop-color="rgb(1.867676%, 18.475342%, 59.207153%)" offset="0.945312"></stop><stop stop-opacity="1" stop-color="rgb(1.818848%, 18.188477%, 58.987427%)" offset="0.953125"></stop><stop stop-opacity="1" stop-color="rgb(1.77002%, 17.903137%, 58.769226%)" offset="0.960938"></stop><stop stop-opacity="1" stop-color="rgb(1.721191%, 17.616272%, 58.5495%)" offset="0.96875"></stop><stop stop-opacity="1" stop-color="rgb(1.672363%, 17.330933%, 58.329773%)" offset="0.976562"></stop><stop stop-opacity="1" stop-color="rgb(1.623535%, 17.044067%, 58.110046%)" offset="0.984375"></stop><stop stop-opacity="1" stop-color="rgb(1.599121%, 16.900635%, 58.000183%)" offset="1"></stop></linearGradient><clipPath id="b23fe18e73"><path d="M 35 35 L 53 35 L 53 47 L 35 47 Z M 35 35 " clip-rule="nonzero"></path></clipPath><clipPath id="5cd7f3eb1c"><path d="M 46.875 35.15625 L 41.015625 35.15625 C 40.632812 35.15625 40.25 35.195312 39.871094 35.269531 C 39.496094 35.34375 39.128906 35.453125 38.773438 35.601562 C 38.417969 35.75 38.082031 35.929688 37.761719 36.144531 C 37.441406 36.359375 37.144531 36.601562 36.871094 36.871094 C 36.601562 37.144531 36.359375 37.441406 36.144531 37.761719 C 35.929688 38.082031 35.75 38.417969 35.601562 38.773438 C 35.453125 39.128906 35.34375 39.496094 35.269531 39.871094 C 35.195312 40.25 35.15625 40.632812 35.15625 41.015625 C 35.15625 41.398438 35.195312 41.78125 35.269531 42.160156 C 35.34375 42.535156 35.453125 42.902344 35.601562 43.257812 C 35.75 43.613281 35.929688 43.949219 36.144531 44.269531 C 36.359375 44.589844 36.601562 44.886719 36.871094 45.160156 C 37.144531 45.429688 37.441406 45.671875 37.761719 45.886719 C 38.082031 46.101562 38.417969 46.28125 38.773438 46.429688 C 39.128906 46.578125 39.496094 46.6875 39.871094 46.761719 C 40.25 46.835938 40.632812 46.875 41.015625 46.875 L 46.875 46.875 C 47.257812 46.875 47.640625 46.835938 48.019531 46.761719 C 48.394531 46.6875 48.761719 46.578125 49.117188 46.429688 C 49.472656 46.28125 49.808594 46.101562 50.128906 45.886719 C 50.449219 45.671875 50.746094 45.429688 51.019531 45.160156 C 51.289062 44.886719 51.53125 44.589844 51.746094 44.269531 C 51.960938 43.949219 52.140625 43.613281 52.289062 43.257812 C 52.4375 42.902344 52.546875 42.535156 52.621094 42.160156 C 52.695312 41.78125 52.734375 41.398438 52.734375 41.015625 C 52.734375 40.632812 52.695312 40.25 52.621094 39.871094 C 52.546875 39.496094 52.4375 39.128906 52.289062 38.773438 C 52.140625 38.417969 51.960938 38.082031 51.746094 37.761719 C 51.53125 37.441406 51.289062 37.144531 51.019531 36.871094 C 50.746094 36.601562 50.449219 36.359375 50.128906 36.144531 C 49.808594 35.929688 49.472656 35.75 49.117188 35.601562 C 48.761719 35.453125 48.394531 35.34375 48.019531 35.269531 C 47.640625 35.195312 47.257812 35.15625 46.875 35.15625 Z M 46.875 35.15625 " clip-rule="nonzero"></path></clipPath><linearGradient x1="7.5" gradientTransform="matrix(5.859375, 0, 0, 5.859375, 0.0000045, 0)" y1="8" x2="7.5" gradientUnits="userSpaceOnUse" y2="6" id="953ccc3361"><stop stop-opacity="1" stop-color="rgb(2.125549%, 19.992065%, 60.369873%)" offset="0"></stop><stop stop-opacity="1" stop-color="rgb(2.099609%, 19.839478%, 60.25238%)" offset="0.25"></stop><stop stop-opacity="1" stop-color="rgb(2.047729%, 19.534302%, 60.017395%)" offset="0.5"></stop><stop stop-opacity="1" stop-color="rgb(1.99585%, 19.229126%, 59.783936%)" offset="0.75"></stop><stop stop-opacity="1" stop-color="rgb(1.94397%, 18.92395%, 59.550476%)" offset="1"></stop></linearGradient><clipPath id="0e9a26b09b"><path d="M 58 35 L 77 35 L 77 47 L 58 47 Z M 58 35 " clip-rule="nonzero"></path></clipPath><clipPath id="fffe56b26a"><path d="M 70.3125 35.15625 L 64.453125 35.15625 C 64.070312 35.15625 63.6875 35.195312 63.308594 35.269531 C 62.933594 35.34375 62.566406 35.453125 62.210938 35.601562 C 61.855469 35.75 61.519531 35.929688 61.199219 36.144531 C 60.878906 36.359375 60.582031 36.601562 60.308594 36.871094 C 60.039062 37.144531 59.796875 37.441406 59.582031 37.761719 C 59.367188 38.082031 59.1875 38.417969 59.039062 38.773438 C 58.890625 39.128906 58.78125 39.496094 58.707031 39.871094 C 58.632812 40.25 58.59375 40.632812 58.59375 41.015625 C 58.59375 41.398438 58.632812 41.78125 58.707031 42.160156 C 58.78125 42.535156 58.890625 42.902344 59.039062 43.257812 C 59.1875 43.613281 59.367188 43.949219 59.582031 44.269531 C 59.796875 44.589844 60.039062 44.886719 60.308594 45.160156 C 60.582031 45.429688 60.878906 45.671875 61.199219 45.886719 C 61.519531 46.101562 61.855469 46.28125 62.210938 46.429688 C 62.566406 46.578125 62.933594 46.6875 63.308594 46.761719 C 63.6875 46.835938 64.070312 46.875 64.453125 46.875 L 70.3125 46.875 C 70.695312 46.875 71.078125 46.835938 71.457031 46.761719 C 71.832031 46.6875 72.199219 46.578125 72.554688 46.429688 C 72.910156 46.28125 73.246094 46.101562 73.566406 45.886719 C 73.886719 45.671875 74.183594 45.429688 74.457031 45.160156 C 74.726562 44.886719 74.96875 44.589844 75.183594 44.269531 C 75.398438 43.949219 75.578125 43.613281 75.726562 43.257812 C 75.875 42.902344 75.984375 42.535156 76.058594 42.160156 C 76.132812 41.78125 76.171875 41.398438 76.171875 41.015625 C 76.171875 40.632812 76.132812 40.25 76.058594 39.871094 C 75.984375 39.496094 75.875 39.128906 75.726562 38.773438 C 75.578125 38.417969 75.398438 38.082031 75.183594 37.761719 C 74.96875 37.441406 74.726562 37.144531 74.457031 36.871094 C 74.183594 36.601562 73.886719 36.359375 73.566406 36.144531 C 73.246094 35.929688 72.910156 35.75 72.554688 35.601562 C 72.199219 35.453125 71.832031 35.34375 71.457031 35.269531 C 71.078125 35.195312 70.695312 35.15625 70.3125 35.15625 Z M 70.3125 35.15625 " clip-rule="nonzero"></path></clipPath><linearGradient x1="11.5" gradientTransform="matrix(5.859375, 0, 0, 5.859375, 0.0000045, 0)" y1="8" x2="11.5" gradientUnits="userSpaceOnUse" y2="6" id="4ff1938919"><stop stop-opacity="1" stop-color="rgb(2.125549%, 19.992065%, 60.369873%)" offset="0"></stop><stop stop-opacity="1" stop-color="rgb(2.099609%, 19.839478%, 60.25238%)" offset="0.25"></stop><stop stop-opacity="1" stop-color="rgb(2.047729%, 19.534302%, 60.017395%)" offset="0.5"></stop><stop stop-opacity="1" stop-color="rgb(1.99585%, 19.229126%, 59.783936%)" offset="0.75"></stop><stop stop-opacity="1" stop-color="rgb(1.94397%, 18.92395%, 59.550476%)" offset="1"></stop></linearGradient><clipPath id="32324b51b1"><path d="M 82 35 L 100 35 L 100 47 L 82 47 Z M 82 35 " clip-rule="nonzero"></path></clipPath><clipPath id="9963603586"><path d="M 93.75 35.15625 L 87.890625 35.15625 C 87.507812 35.15625 87.125 35.195312 86.746094 35.269531 C 86.371094 35.34375 86.003906 35.453125 85.648438 35.601562 C 85.292969 35.75 84.957031 35.929688 84.636719 36.144531 C 84.316406 36.359375 84.019531 36.601562 83.746094 36.871094 C 83.476562 37.144531 83.234375 37.441406 83.019531 37.761719 C 82.804688 38.082031 82.625 38.417969 82.476562 38.773438 C 82.328125 39.128906 82.21875 39.496094 82.144531 39.871094 C 82.070312 40.25 82.03125 40.632812 82.03125 41.015625 C 82.03125 41.398438 82.070312 41.78125 82.144531 42.160156 C 82.21875 42.535156 82.328125 42.902344 82.476562 43.257812 C 82.625 43.613281 82.804688 43.949219 83.019531 44.269531 C 83.234375 44.589844 83.476562 44.886719 83.746094 45.160156 C 84.019531 45.429688 84.316406 45.671875 84.636719 45.886719 C 84.957031 46.101562 85.292969 46.28125 85.648438 46.429688 C 86.003906 46.578125 86.371094 46.6875 86.746094 46.761719 C 87.125 46.835938 87.507812 46.875 87.890625 46.875 L 93.75 46.875 C 94.132812 46.875 94.515625 46.835938 94.894531 46.761719 C 95.269531 46.6875 95.636719 46.578125 95.992188 46.429688 C 96.347656 46.28125 96.683594 46.101562 97.003906 45.886719 C 97.324219 45.671875 97.621094 45.429688 97.894531 45.160156 C 98.164062 44.886719 98.40625 44.589844 98.621094 44.269531 C 98.835938 43.949219 99.015625 43.613281 99.164062 43.257812 C 99.3125 42.902344 99.421875 42.535156 99.496094 42.160156 C 99.570312 41.78125 99.609375 41.398438 99.609375 41.015625 C 99.609375 40.632812 99.570312 40.25 99.496094 39.871094 C 99.421875 39.496094 99.3125 39.128906 99.164062 38.773438 C 99.015625 38.417969 98.835938 38.082031 98.621094 37.761719 C 98.40625 37.441406 98.164062 37.144531 97.894531 36.871094 C 97.621094 36.601562 97.324219 36.359375 97.003906 36.144531 C 96.683594 35.929688 96.347656 35.75 95.992188 35.601562 C 95.636719 35.453125 95.269531 35.34375 94.894531 35.269531 C 94.515625 35.195312 94.132812 35.15625 93.75 35.15625 Z M 93.75 35.15625 " clip-rule="nonzero"></path></clipPath><linearGradient x1="15.5" gradientTransform="matrix(5.859375, 0, 0, 5.859375, 0.0000045, 0)" y1="8" x2="15.5" gradientUnits="userSpaceOnUse" y2="6" id="43d655f3e4"><stop stop-opacity="1" stop-color="rgb(2.125549%, 19.992065%, 60.369873%)" offset="0"></stop><stop stop-opacity="1" stop-color="rgb(2.099609%, 19.839478%, 60.25238%)" offset="0.25"></stop><stop stop-opacity="1" stop-color="rgb(2.047729%, 19.534302%, 60.017395%)" offset="0.5"></stop><stop stop-opacity="1" stop-color="rgb(1.99585%, 19.229126%, 59.783936%)" offset="0.75"></stop><stop stop-opacity="1" stop-color="rgb(1.94397%, 18.92395%, 59.550476%)" offset="1"></stop></linearGradient><clipPath id="c98e145fa5"><path d="M 35 105 L 211 105 L 211 247 L 35 247 Z M 35 105 " clip-rule="nonzero"></path></clipPath><clipPath id="b5c145f961"><path d="M 205.078125 105.46875 L 41.015625 105.46875 C 40.632812 105.46875 40.25 105.507812 39.871094 105.582031 C 39.496094 105.65625 39.128906 105.765625 38.773438 105.914062 C 38.417969 106.0625 38.082031 106.242188 37.761719 106.457031 C 37.441406 106.671875 37.144531 106.914062 36.871094 107.183594 C 36.601562 107.457031 36.359375 107.753906 36.144531 108.074219 C 35.929688 108.394531 35.75 108.730469 35.601562 109.085938 C 35.453125 109.441406 35.34375 109.808594 35.269531 110.183594 C 35.195312 110.5625 35.15625 110.945312 35.15625 111.328125 L 35.15625 240.234375 C 35.15625 240.617188 35.195312 241 35.269531 241.378906 C 35.34375 241.753906 35.453125 242.121094 35.601562 242.476562 C 35.75 242.832031 35.929688 243.167969 36.144531 243.488281 C 36.359375 243.808594 36.601562 244.105469 36.871094 244.378906 C 37.144531 244.648438 37.441406 244.890625 37.761719 245.105469 C 38.082031 245.320312 38.417969 245.5 38.773438 245.648438 C 39.128906 245.792969 39.496094 245.90625 39.871094 245.980469 C 40.25 246.054688 40.632812 246.09375 41.015625 246.09375 L 205.078125 246.09375 C 205.460938 246.09375 205.84375 246.054688 206.222656 245.980469 C 206.597656 245.90625 206.964844 245.792969 207.320312 245.648438 C 207.675781 245.5 208.011719 245.320312 208.332031 245.105469 C 208.652344 244.890625 208.949219 244.648438 209.222656 244.378906 C 209.492188 244.105469 209.734375 243.808594 209.949219 243.488281 C 210.164062 243.167969 210.34375 242.832031 210.492188 242.476562 C 210.640625 242.121094 210.75 241.753906 210.824219 241.378906 C 210.898438 241 210.9375 240.617188 210.9375 240.234375 L 210.9375 111.328125 C 210.9375 110.945312 210.898438 110.5625 210.824219 110.183594 C 210.75 109.808594 210.640625 109.441406 210.492188 109.085938 C 210.34375 108.730469 210.164062 108.394531 209.949219 108.074219 C 209.734375 107.753906 209.492188 107.457031 209.222656 107.183594 C 208.949219 106.914062 208.652344 106.671875 208.332031 106.457031 C 208.011719 106.242188 207.675781 106.0625 207.320312 105.914062 C 206.964844 105.765625 206.597656 105.65625 206.222656 105.582031 C 205.84375 105.507812 205.460938 105.46875 205.078125 105.46875 Z M 51.5625 234.375 L 99.609375 157.558594 L 147.65625 234.375 Z M 161.425781 234.375 L 148.652344 213.867188 L 164.0625 191.835938 L 193.828125 234.375 Z M 199.21875 221.660156 L 168.867188 178.300781 C 168.597656 177.914062 168.285156 177.566406 167.929688 177.253906 C 167.578125 176.941406 167.191406 176.675781 166.773438 176.460938 C 166.355469 176.242188 165.914062 176.074219 165.457031 175.964844 C 165 175.851562 164.535156 175.796875 164.0625 175.796875 C 163.589844 175.796875 163.125 175.851562 162.667969 175.964844 C 162.210938 176.074219 161.769531 176.242188 161.351562 176.460938 C 160.933594 176.675781 160.546875 176.941406 160.195312 177.253906 C 159.839844 177.566406 159.527344 177.914062 159.257812 178.300781 L 141.914062 203.085938 L 104.589844 143.378906 C 104.304688 142.984375 103.980469 142.628906 103.609375 142.3125 C 103.242188 141.996094 102.839844 141.726562 102.40625 141.503906 C 101.972656 141.28125 101.519531 141.113281 101.046875 141 C 100.574219 140.886719 100.097656 140.832031 99.609375 140.832031 C 99.125 140.832031 98.644531 140.886719 98.171875 141 C 97.699219 141.113281 97.246094 141.28125 96.8125 141.503906 C 96.378906 141.726562 95.976562 141.996094 95.609375 142.3125 C 95.238281 142.628906 94.914062 142.984375 94.628906 143.378906 L 46.875 219.785156 L 46.875 117.1875 L 199.21875 117.1875 Z M 199.21875 221.660156 " clip-rule="nonzero"></path></clipPath><linearGradient x1="21" gradientTransform="matrix(5.859375, 0, 0, 5.859375, 0.0000045, 0)" y1="41.999999" x2="21" gradientUnits="userSpaceOnUse" y2="18" id="3aca71a642"><stop stop-opacity="1" stop-color="rgb(5.659485%, 40.739441%, 76.272583%)" offset="0"></stop><stop stop-opacity="1" stop-color="rgb(5.639648%, 40.625%, 76.184082%)" offset="0.015625"></stop><stop stop-opacity="1" stop-color="rgb(5.601501%, 40.396118%, 76.008606%)" offset="0.03125"></stop><stop stop-opacity="1" stop-color="rgb(5.561829%, 40.167236%, 75.83313%)" offset="0.046875"></stop><stop stop-opacity="1" stop-color="rgb(5.523682%, 39.938354%, 75.657654%)" offset="0.0625"></stop><stop stop-opacity="1" stop-color="rgb(5.484009%, 39.709473%, 75.482178%)" offset="0.078125"></stop><stop stop-opacity="1" stop-color="rgb(5.445862%, 39.480591%, 75.306702%)" offset="0.09375"></stop><stop stop-opacity="1" stop-color="rgb(5.406189%, 39.251709%, 75.131226%)" offset="0.109375"></stop><stop stop-opacity="1" stop-color="rgb(5.366516%, 39.022827%, 74.95575%)" offset="0.125"></stop><stop stop-opacity="1" stop-color="rgb(5.328369%, 38.793945%, 74.780273%)" offset="0.140625"></stop><stop stop-opacity="1" stop-color="rgb(5.288696%, 38.565063%, 74.604797%)" offset="0.15625"></stop><stop stop-opacity="1" stop-color="rgb(5.250549%, 38.336182%, 74.429321%)" offset="0.171875"></stop><stop stop-opacity="1" stop-color="rgb(5.210876%, 38.1073%, 74.253845%)" offset="0.1875"></stop><stop stop-opacity="1" stop-color="rgb(5.172729%, 37.878418%, 74.078369%)" offset="0.203125"></stop><stop stop-opacity="1" stop-color="rgb(5.133057%, 37.649536%, 73.902893%)" offset="0.21875"></stop><stop stop-opacity="1" stop-color="rgb(5.09491%, 37.420654%, 73.728943%)" offset="0.234375"></stop><stop stop-opacity="1" stop-color="rgb(5.055237%, 37.191772%, 73.553467%)" offset="0.25"></stop><stop stop-opacity="1" stop-color="rgb(5.01709%, 36.962891%, 73.377991%)" offset="0.265625"></stop><stop stop-opacity="1" stop-color="rgb(4.977417%, 36.734009%, 73.202515%)" offset="0.28125"></stop><stop stop-opacity="1" stop-color="rgb(4.937744%, 36.505127%, 73.027039%)" offset="0.296875"></stop><stop stop-opacity="1" stop-color="rgb(4.899597%, 36.276245%, 72.851562%)" offset="0.3125"></stop><stop stop-opacity="1" stop-color="rgb(4.859924%, 36.048889%, 72.676086%)" offset="0.328125"></stop><stop stop-opacity="1" stop-color="rgb(4.821777%, 35.820007%, 72.50061%)" offset="0.34375"></stop><stop stop-opacity="1" stop-color="rgb(4.782104%, 35.591125%, 72.325134%)" offset="0.359375"></stop><stop stop-opacity="1" stop-color="rgb(4.743958%, 35.362244%, 72.149658%)" offset="0.375"></stop><stop stop-opacity="1" stop-color="rgb(4.704285%, 35.133362%, 71.974182%)" offset="0.390625"></stop><stop stop-opacity="1" stop-color="rgb(4.666138%, 34.90448%, 71.798706%)" offset="0.40625"></stop><stop stop-opacity="1" stop-color="rgb(4.626465%, 34.675598%, 71.62323%)" offset="0.421875"></stop><stop stop-opacity="1" stop-color="rgb(4.588318%, 34.446716%, 71.447754%)" offset="0.4375"></stop><stop stop-opacity="1" stop-color="rgb(4.548645%, 34.217834%, 71.272278%)" offset="0.453125"></stop><stop stop-opacity="1" stop-color="rgb(4.508972%, 33.988953%, 71.096802%)" offset="0.46875"></stop><stop stop-opacity="1" stop-color="rgb(4.470825%, 33.760071%, 70.921326%)" offset="0.484375"></stop><stop stop-opacity="1" stop-color="rgb(4.431152%, 33.531189%, 70.74585%)" offset="0.5"></stop><stop stop-opacity="1" stop-color="rgb(4.393005%, 33.302307%, 70.570374%)" offset="0.515625"></stop><stop stop-opacity="1" stop-color="rgb(4.353333%, 33.073425%, 70.394897%)" offset="0.53125"></stop><stop stop-opacity="1" stop-color="rgb(4.315186%, 32.844543%, 70.220947%)" offset="0.546875"></stop><stop stop-opacity="1" stop-color="rgb(4.275513%, 32.615662%, 70.045471%)" offset="0.5625"></stop><stop stop-opacity="1" stop-color="rgb(4.237366%, 32.38678%, 69.869995%)" offset="0.578125"></stop><stop stop-opacity="1" stop-color="rgb(4.197693%, 32.157898%, 69.694519%)" offset="0.59375"></stop><stop stop-opacity="1" stop-color="rgb(4.159546%, 31.929016%, 69.519043%)" offset="0.609375"></stop><stop stop-opacity="1" stop-color="rgb(4.119873%, 31.700134%, 69.343567%)" offset="0.625"></stop><stop stop-opacity="1" stop-color="rgb(4.0802%, 31.471252%, 69.168091%)" offset="0.640625"></stop><stop stop-opacity="1" stop-color="rgb(4.042053%, 31.242371%, 68.992615%)" offset="0.65625"></stop><stop stop-opacity="1" stop-color="rgb(4.00238%, 31.013489%, 68.817139%)" offset="0.671875"></stop><stop stop-opacity="1" stop-color="rgb(3.964233%, 30.784607%, 68.641663%)" offset="0.6875"></stop><stop stop-opacity="1" stop-color="rgb(3.924561%, 30.555725%, 68.466187%)" offset="0.703125"></stop><stop stop-opacity="1" stop-color="rgb(3.886414%, 30.326843%, 68.29071%)" offset="0.71875"></stop><stop stop-opacity="1" stop-color="rgb(3.846741%, 30.097961%, 68.115234%)" offset="0.734375"></stop><stop stop-opacity="1" stop-color="rgb(3.808594%, 29.86908%, 67.939758%)" offset="0.75"></stop><stop stop-opacity="1" stop-color="rgb(3.768921%, 29.640198%, 67.764282%)" offset="0.765625"></stop><stop stop-opacity="1" stop-color="rgb(3.730774%, 29.411316%, 67.588806%)" offset="0.78125"></stop><stop stop-opacity="1" stop-color="rgb(3.691101%, 29.182434%, 67.41333%)" offset="0.796875"></stop><stop stop-opacity="1" stop-color="rgb(3.652954%, 28.953552%, 67.237854%)" offset="0.8125"></stop><stop stop-opacity="1" stop-color="rgb(3.613281%, 28.72467%, 67.062378%)" offset="0.828125"></stop><stop stop-opacity="1" stop-color="rgb(3.573608%, 28.495789%, 66.886902%)" offset="0.84375"></stop><stop stop-opacity="1" stop-color="rgb(3.535461%, 28.266907%, 66.712952%)" offset="0.859375"></stop><stop stop-opacity="1" stop-color="rgb(3.495789%, 28.038025%, 66.537476%)" offset="0.875"></stop><stop stop-opacity="1" stop-color="rgb(3.457642%, 27.810669%, 66.362%)" offset="0.890625"></stop><stop stop-opacity="1" stop-color="rgb(3.417969%, 27.581787%, 66.186523%)" offset="0.90625"></stop><stop stop-opacity="1" stop-color="rgb(3.379822%, 27.352905%, 66.011047%)" offset="0.921875"></stop><stop stop-opacity="1" stop-color="rgb(3.340149%, 27.124023%, 65.835571%)" offset="0.9375"></stop><stop stop-opacity="1" stop-color="rgb(3.302002%, 26.895142%, 65.660095%)" offset="0.953125"></stop><stop stop-opacity="1" stop-color="rgb(3.262329%, 26.66626%, 65.484619%)" offset="0.96875"></stop><stop stop-opacity="1" stop-color="rgb(3.224182%, 26.437378%, 65.309143%)" offset="0.984375"></stop><stop stop-opacity="1" stop-color="rgb(3.184509%, 26.208496%, 65.133667%)" offset="1"></stop></linearGradient><clipPath id="291a591564"><path d="M 128 128 L 165 128 L 165 165 L 128 165 Z M 128 128 " clip-rule="nonzero"></path></clipPath><clipPath id="ceb1405212"><path d="M 146.484375 164.0625 C 147.058594 164.0625 147.632812 164.035156 148.207031 163.976562 C 148.78125 163.921875 149.347656 163.835938 149.914062 163.726562 C 150.476562 163.613281 151.035156 163.472656 151.585938 163.304688 C 152.136719 163.136719 152.679688 162.945312 153.210938 162.722656 C 153.742188 162.503906 154.261719 162.257812 154.769531 161.988281 C 155.277344 161.714844 155.773438 161.417969 156.25 161.101562 C 156.730469 160.78125 157.191406 160.4375 157.636719 160.074219 C 158.082031 159.707031 158.507812 159.320312 158.914062 158.914062 C 159.320312 158.507812 159.707031 158.082031 160.074219 157.636719 C 160.4375 157.191406 160.78125 156.730469 161.101562 156.25 C 161.417969 155.773438 161.714844 155.277344 161.988281 154.769531 C 162.257812 154.261719 162.503906 153.742188 162.722656 153.210938 C 162.945312 152.679688 163.136719 152.136719 163.304688 151.585938 C 163.472656 151.035156 163.613281 150.476562 163.726562 149.914062 C 163.835938 149.347656 163.921875 148.78125 163.976562 148.207031 C 164.035156 147.632812 164.0625 147.058594 164.0625 146.484375 C 164.0625 145.910156 164.035156 145.335938 163.976562 144.761719 C 163.921875 144.1875 163.835938 143.621094 163.726562 143.054688 C 163.613281 142.492188 163.472656 141.933594 163.304688 141.382812 C 163.136719 140.832031 162.945312 140.289062 162.722656 139.757812 C 162.503906 139.226562 162.257812 138.707031 161.988281 138.199219 C 161.714844 137.691406 161.417969 137.195312 161.101562 136.71875 C 160.78125 136.238281 160.4375 135.777344 160.074219 135.332031 C 159.707031 134.886719 159.320312 134.460938 158.914062 134.054688 C 158.507812 133.648438 158.082031 133.261719 157.636719 132.894531 C 157.191406 132.53125 156.730469 132.1875 156.25 131.867188 C 155.773438 131.550781 155.277344 131.253906 154.769531 130.980469 C 154.261719 130.710938 153.742188 130.464844 153.210938 130.246094 C 152.679688 130.023438 152.136719 129.832031 151.585938 129.664062 C 151.035156 129.496094 150.476562 129.355469 149.914062 129.242188 C 149.347656 129.132812 148.78125 129.046875 148.207031 128.992188 C 147.632812 128.933594 147.058594 128.90625 146.484375 128.90625 C 145.910156 128.90625 145.335938 128.933594 144.761719 128.992188 C 144.1875 129.046875 143.621094 129.132812 143.054688 129.242188 C 142.492188 129.355469 141.933594 129.496094 141.382812 129.664062 C 140.832031 129.832031 140.289062 130.023438 139.757812 130.246094 C 139.226562 130.464844 138.707031 130.710938 138.199219 130.980469 C 137.691406 131.253906 137.195312 131.550781 136.71875 131.867188 C 136.238281 132.1875 135.777344 132.53125 135.332031 132.894531 C 134.886719 133.261719 134.460938 133.648438 134.054688 134.054688 C 133.648438 134.460938 133.261719 134.886719 132.894531 135.332031 C 132.53125 135.777344 132.1875 136.238281 131.867188 136.71875 C 131.550781 137.195312 131.253906 137.691406 130.980469 138.199219 C 130.710938 138.707031 130.464844 139.226562 130.246094 139.757812 C 130.023438 140.289062 129.832031 140.832031 129.664062 141.382812 C 129.496094 141.933594 129.355469 142.492188 129.242188 143.054688 C 129.132812 143.621094 129.046875 144.1875 128.992188 144.761719 C 128.933594 145.335938 128.90625 145.910156 128.90625 146.484375 C 128.90625 147.058594 128.933594 147.632812 128.992188 148.207031 C 129.046875 148.78125 129.132812 149.347656 129.242188 149.914062 C 129.355469 150.476562 129.496094 151.035156 129.664062 151.585938 C 129.832031 152.136719 130.023438 152.679688 130.246094 153.210938 C 130.464844 153.742188 130.710938 154.261719 130.980469 154.769531 C 131.253906 155.277344 131.550781 155.773438 131.867188 156.25 C 132.1875 156.730469 132.53125 157.191406 132.894531 157.636719 C 133.261719 158.082031 133.648438 158.507812 134.054688 158.914062 C 134.460938 159.320312 134.886719 159.707031 135.332031 160.074219 C 135.777344 160.4375 136.238281 160.78125 136.71875 161.101562 C 137.195312 161.417969 137.691406 161.714844 138.199219 161.988281 C 138.707031 162.257812 139.226562 162.503906 139.757812 162.722656 C 140.289062 162.945312 140.832031 163.136719 141.382812 163.304688 C 141.933594 163.472656 142.492188 163.613281 143.054688 163.726562 C 143.621094 163.835938 144.1875 163.921875 144.761719 163.976562 C 145.335938 164.035156 145.910156 164.0625 146.484375 164.0625 Z M 146.484375 140.625 C 146.867188 140.625 147.25 140.664062 147.628906 140.738281 C 148.003906 140.8125 148.371094 140.921875 148.726562 141.070312 C 149.082031 141.21875 149.417969 141.398438 149.738281 141.613281 C 150.058594 141.828125 150.355469 142.070312 150.628906 142.339844 C 150.898438 142.613281 151.140625 142.910156 151.355469 143.230469 C 151.570312 143.550781 151.75 143.886719 151.898438 144.242188 C 152.046875 144.597656 152.15625 144.964844 152.230469 145.339844 C 152.304688 145.71875 152.34375 146.101562 152.34375 146.484375 C 152.34375 146.867188 152.304688 147.25 152.230469 147.628906 C 152.15625 148.003906 152.046875 148.371094 151.898438 148.726562 C 151.75 149.082031 151.570312 149.417969 151.355469 149.738281 C 151.140625 150.058594 150.898438 150.355469 150.628906 150.628906 C 150.355469 150.898438 150.058594 151.140625 149.738281 151.355469 C 149.417969 151.570312 149.082031 151.75 148.726562 151.898438 C 148.371094 152.042969 148.003906 152.15625 147.628906 152.230469 C 147.25 152.304688 146.867188 152.34375 146.484375 152.34375 C 146.101562 152.34375 145.71875 152.304688 145.339844 152.230469 C 144.964844 152.15625 144.597656 152.046875 144.242188 151.898438 C 143.886719 151.75 143.550781 151.570312 143.230469 151.355469 C 142.910156 151.140625 142.613281 150.898438 142.339844 150.628906 C 142.070312 150.355469 141.828125 150.058594 141.613281 149.738281 C 141.398438 149.417969 141.21875 149.082031 141.070312 148.726562 C 140.921875 148.371094 140.8125 148.003906 140.738281 147.628906 C 140.664062 147.25 140.625 146.867188 140.625 146.484375 C 140.625 146.101562 140.664062 145.71875 140.738281 145.339844 C 140.8125 144.964844 140.921875 144.597656 141.070312 144.242188 C 141.21875 143.886719 141.398438 143.550781 141.613281 143.230469 C 141.828125 142.910156 142.070312 142.613281 142.339844 142.339844 C 142.613281 142.070312 142.910156 141.828125 143.230469 141.613281 C 143.550781 141.398438 143.886719 141.21875 144.242188 141.070312 C 144.597656 140.921875 144.964844 140.8125 145.339844 140.738281 C 145.71875 140.664062 146.101562 140.625 146.484375 140.625 Z M 146.484375 140.625 " clip-rule="nonzero"></path></clipPath><linearGradient x1="25" gradientTransform="matrix(5.859375, 0, 0, 5.859375, 0.0000045, 0)" y1="27.999999" x2="25" gradientUnits="userSpaceOnUse" y2="22" id="59f455673d"><stop stop-opacity="1" stop-color="rgb(4.205322%, 32.196045%, 69.723511%)" offset="0"></stop><stop stop-opacity="1" stop-color="rgb(4.185486%, 32.081604%, 69.63501%)" offset="0.0625"></stop><stop stop-opacity="1" stop-color="rgb(4.145813%, 31.852722%, 69.459534%)" offset="0.125"></stop><stop stop-opacity="1" stop-color="rgb(4.107666%, 31.62384%, 69.284058%)" offset="0.1875"></stop><stop stop-opacity="1" stop-color="rgb(4.067993%, 31.394958%, 69.110107%)" offset="0.25"></stop><stop stop-opacity="1" stop-color="rgb(4.02832%, 31.166077%, 68.934631%)" offset="0.3125"></stop><stop stop-opacity="1" stop-color="rgb(3.990173%, 30.937195%, 68.759155%)" offset="0.375"></stop><stop stop-opacity="1" stop-color="rgb(3.9505%, 30.708313%, 68.583679%)" offset="0.4375"></stop><stop stop-opacity="1" stop-color="rgb(3.912354%, 30.479431%, 68.408203%)" offset="0.5"></stop><stop stop-opacity="1" stop-color="rgb(3.872681%, 30.250549%, 68.232727%)" offset="0.5625"></stop><stop stop-opacity="1" stop-color="rgb(3.834534%, 30.021667%, 68.057251%)" offset="0.625"></stop><stop stop-opacity="1" stop-color="rgb(3.794861%, 29.792786%, 67.881775%)" offset="0.6875"></stop><stop stop-opacity="1" stop-color="rgb(3.756714%, 29.563904%, 67.706299%)" offset="0.75"></stop><stop stop-opacity="1" stop-color="rgb(3.717041%, 29.335022%, 67.530823%)" offset="0.8125"></stop><stop stop-opacity="1" stop-color="rgb(3.678894%, 29.10614%, 67.355347%)" offset="0.875"></stop><stop stop-opacity="1" stop-color="rgb(3.639221%, 28.877258%, 67.179871%)" offset="0.9375"></stop><stop stop-opacity="1" stop-color="rgb(3.599548%, 28.648376%, 67.004395%)" offset="1"></stop></linearGradient><clipPath id="332d879d16"><path d="M 123 35 L 340 35 L 340 47 L 123 47 Z M 123 35 " clip-rule="nonzero"></path></clipPath><clipPath id="8e24ea670d"><path d="M 333.984375 35.15625 L 128.90625 35.15625 C 128.523438 35.15625 128.140625 35.195312 127.761719 35.269531 C 127.386719 35.34375 127.019531 35.453125 126.664062 35.601562 C 126.308594 35.75 125.972656 35.929688 125.652344 36.144531 C 125.332031 36.359375 125.035156 36.601562 124.761719 36.871094 C 124.492188 37.144531 124.25 37.441406 124.035156 37.761719 C 123.820312 38.082031 123.640625 38.417969 123.492188 38.773438 C 123.34375 39.128906 123.234375 39.496094 123.160156 39.871094 C 123.085938 40.25 123.046875 40.632812 123.046875 41.015625 C 123.046875 41.398438 123.085938 41.78125 123.160156 42.160156 C 123.234375 42.535156 123.34375 42.902344 123.492188 43.257812 C 123.640625 43.613281 123.820312 43.949219 124.035156 44.269531 C 124.25 44.589844 124.492188 44.886719 124.761719 45.160156 C 125.035156 45.429688 125.332031 45.671875 125.652344 45.886719 C 125.972656 46.101562 126.308594 46.28125 126.664062 46.429688 C 127.019531 46.578125 127.386719 46.6875 127.761719 46.761719 C 128.140625 46.835938 128.523438 46.875 128.90625 46.875 L 333.984375 46.875 C 334.367188 46.875 334.75 46.835938 335.128906 46.761719 C 335.503906 46.6875 335.871094 46.578125 336.226562 46.429688 C 336.582031 46.28125 336.917969 46.101562 337.238281 45.886719 C 337.558594 45.671875 337.855469 45.429688 338.128906 45.160156 C 338.398438 44.886719 338.640625 44.589844 338.855469 44.269531 C 339.070312 43.949219 339.25 43.613281 339.398438 43.257812 C 339.542969 42.902344 339.65625 42.535156 339.730469 42.160156 C 339.804688 41.78125 339.84375 41.398438 339.84375 41.015625 C 339.84375 40.632812 339.804688 40.25 339.730469 39.871094 C 339.65625 39.496094 339.542969 39.128906 339.398438 38.773438 C 339.25 38.417969 339.070312 38.082031 338.855469 37.761719 C 338.640625 37.441406 338.398438 37.144531 338.128906 36.871094 C 337.855469 36.601562 337.558594 36.359375 337.238281 36.144531 C 336.917969 35.929688 336.582031 35.75 336.226562 35.601562 C 335.871094 35.453125 335.503906 35.34375 335.128906 35.269531 C 334.75 35.195312 334.367188 35.15625 333.984375 35.15625 Z M 333.984375 35.15625 " clip-rule="nonzero"></path></clipPath><linearGradient x1="39.5" gradientTransform="matrix(5.859375, 0, 0, 5.859375, 0.0000045, 0)" y1="8" x2="39.5" gradientUnits="userSpaceOnUse" y2="6" id="cca5459a58"><stop stop-opacity="1" stop-color="rgb(2.125549%, 19.992065%, 60.369873%)" offset="0"></stop><stop stop-opacity="1" stop-color="rgb(2.099609%, 19.839478%, 60.25238%)" offset="0.25"></stop><stop stop-opacity="1" stop-color="rgb(2.047729%, 19.534302%, 60.017395%)" offset="0.5"></stop><stop stop-opacity="1" stop-color="rgb(1.99585%, 19.229126%, 59.783936%)" offset="0.75"></stop><stop stop-opacity="1" stop-color="rgb(1.94397%, 18.92395%, 59.550476%)" offset="1"></stop></linearGradient><clipPath id="9a222b5cfd"><path d="M 281 333 L 305 333 L 305 346 L 281 346 Z M 281 333 " clip-rule="nonzero"></path></clipPath><clipPath id="693e9e9f52"><path d="M 298.828125 333.984375 L 287.109375 333.984375 C 286.726562 333.984375 286.34375 334.023438 285.964844 334.097656 C 285.589844 334.171875 285.222656 334.28125 284.867188 334.429688 C 284.511719 334.578125 284.175781 334.757812 283.855469 334.972656 C 283.535156 335.1875 283.238281 335.429688 282.964844 335.699219 C 282.695312 335.972656 282.453125 336.269531 282.238281 336.589844 C 282.023438 336.910156 281.84375 337.246094 281.695312 337.601562 C 281.546875 337.957031 281.4375 338.324219 281.363281 338.699219 C 281.289062 339.078125 281.25 339.460938 281.25 339.84375 C 281.25 340.226562 281.289062 340.609375 281.363281 340.988281 C 281.4375 341.363281 281.546875 341.730469 281.695312 342.085938 C 281.84375 342.441406 282.023438 342.777344 282.238281 343.097656 C 282.453125 343.417969 282.695312 343.714844 282.964844 343.988281 C 283.238281 344.257812 283.535156 344.5 283.855469 344.714844 C 284.175781 344.929688 284.511719 345.109375 284.867188 345.257812 C 285.222656 345.402344 285.589844 345.515625 285.964844 345.589844 C 286.34375 345.664062 286.726562 345.703125 287.109375 345.703125 L 298.828125 345.703125 C 299.210938 345.703125 299.59375 345.664062 299.972656 345.589844 C 300.347656 345.515625 300.714844 345.40625 301.070312 345.257812 C 301.425781 345.109375 301.761719 344.929688 302.082031 344.714844 C 302.402344 344.5 302.699219 344.257812 302.972656 343.988281 C 303.242188 343.714844 303.484375 343.417969 303.699219 343.097656 C 303.914062 342.777344 304.09375 342.441406 304.242188 342.085938 C 304.386719 341.730469 304.5 341.363281 304.574219 340.988281 C 304.648438 340.609375 304.6875 340.226562 304.6875 339.84375 C 304.6875 339.460938 304.648438 339.078125 304.574219 338.699219 C 304.5 338.324219 304.386719 337.957031 304.242188 337.601562 C 304.09375 337.246094 303.914062 336.910156 303.699219 336.589844 C 303.484375 336.269531 303.242188 335.972656 302.972656 335.699219 C 302.699219 335.429688 302.402344 335.183594 302.082031 334.972656 C 301.761719 334.757812 301.425781 334.578125 301.070312 334.429688 C 300.714844 334.28125 300.347656 334.171875 299.972656 334.097656 C 299.59375 334.023438 299.210938 333.984375 298.828125 333.984375 Z M 298.828125 333.984375 " clip-rule="nonzero"></path></clipPath><linearGradient x1="50" gradientTransform="matrix(5.859375, 0, 0, 5.859375, 0.0000045, 0)" y1="58.999999" x2="50" gradientUnits="userSpaceOnUse" y2="56.999999" id="8bd16f41f6"><stop stop-opacity="1" stop-color="rgb(7.426453%, 51.113892%, 84.223938%)" offset="0"></stop><stop stop-opacity="1" stop-color="rgb(7.400513%, 50.961304%, 84.106445%)" offset="0.25"></stop><stop stop-opacity="1" stop-color="rgb(7.348633%, 50.656128%, 83.872986%)" offset="0.5"></stop><stop stop-opacity="1" stop-color="rgb(7.296753%, 50.350952%, 83.638%)" offset="0.75"></stop><stop stop-opacity="1" stop-color="rgb(7.244873%, 50.045776%, 83.404541%)" offset="1"></stop></linearGradient><clipPath id="d1e31dbf31"><path d="M 281 158 L 305 158 L 305 170 L 281 170 Z M 281 158 " clip-rule="nonzero"></path></clipPath><clipPath id="bbe232f030"><path d="M 298.828125 158.203125 L 287.109375 158.203125 C 286.726562 158.203125 286.34375 158.242188 285.964844 158.316406 C 285.589844 158.390625 285.222656 158.5 284.867188 158.648438 C 284.511719 158.796875 284.175781 158.976562 283.855469 159.191406 C 283.535156 159.40625 283.238281 159.648438 282.964844 159.917969 C 282.695312 160.191406 282.453125 160.488281 282.238281 160.808594 C 282.023438 161.128906 281.84375 161.464844 281.695312 161.820312 C 281.546875 162.175781 281.4375 162.542969 281.363281 162.917969 C 281.289062 163.296875 281.25 163.679688 281.25 164.0625 C 281.25 164.445312 281.289062 164.828125 281.363281 165.207031 C 281.4375 165.582031 281.546875 165.949219 281.695312 166.304688 C 281.84375 166.660156 282.023438 166.996094 282.238281 167.316406 C 282.453125 167.636719 282.695312 167.933594 282.964844 168.207031 C 283.238281 168.476562 283.535156 168.71875 283.855469 168.933594 C 284.175781 169.148438 284.511719 169.328125 284.867188 169.476562 C 285.222656 169.625 285.589844 169.734375 285.964844 169.808594 C 286.34375 169.882812 286.726562 169.921875 287.109375 169.921875 L 298.828125 169.921875 C 299.210938 169.921875 299.59375 169.882812 299.972656 169.808594 C 300.347656 169.734375 300.714844 169.625 301.070312 169.476562 C 301.425781 169.328125 301.761719 169.148438 302.082031 168.933594 C 302.402344 168.71875 302.699219 168.476562 302.972656 168.207031 C 303.242188 167.933594 303.484375 167.636719 303.699219 167.316406 C 303.914062 166.996094 304.09375 166.660156 304.242188 166.304688 C 304.386719 165.949219 304.5 165.582031 304.574219 165.207031 C 304.648438 164.828125 304.6875 164.445312 304.6875 164.0625 C 304.6875 163.679688 304.648438 163.296875 304.574219 162.917969 C 304.5 162.542969 304.386719 162.175781 304.242188 161.820312 C 304.09375 161.464844 303.914062 161.128906 303.699219 160.808594 C 303.484375 160.488281 303.242188 160.191406 302.972656 159.917969 C 302.699219 159.648438 302.402344 159.40625 302.082031 159.191406 C 301.761719 158.976562 301.425781 158.796875 301.070312 158.648438 C 300.714844 158.5 300.347656 158.390625 299.972656 158.316406 C 299.59375 158.242188 299.210938 158.203125 298.828125 158.203125 Z M 298.828125 158.203125 " clip-rule="nonzero"></path></clipPath><linearGradient x1="50" gradientTransform="matrix(5.859375, 0, 0, 5.859375, 0.0000045, 0)" y1="28.999999" x2="50" gradientUnits="userSpaceOnUse" y2="26.999999" id="ee62264400"><stop stop-opacity="1" stop-color="rgb(4.309082%, 32.806396%, 70.191956%)" offset="0"></stop><stop stop-opacity="1" stop-color="rgb(4.283142%, 32.653809%, 70.074463%)" offset="0.25"></stop><stop stop-opacity="1" stop-color="rgb(4.231262%, 32.348633%, 69.841003%)" offset="0.5"></stop><stop stop-opacity="1" stop-color="rgb(4.179382%, 32.043457%, 69.606018%)" offset="0.75"></stop><stop stop-opacity="1" stop-color="rgb(4.125977%, 31.738281%, 69.372559%)" offset="1"></stop></linearGradient><clipPath id="f927af0a62"><path d="M 240 222 L 276 222 L 276 282 L 240 282 Z M 240 222 " clip-rule="nonzero"></path></clipPath><clipPath id="e1339dbfc8"><path d="M 273.671875 224.371094 C 273.402344 224.101562 273.105469 223.859375 272.785156 223.644531 C 272.464844 223.429688 272.128906 223.25 271.773438 223.101562 C 271.417969 222.957031 271.050781 222.84375 270.675781 222.769531 C 270.296875 222.695312 269.914062 222.65625 269.53125 222.65625 C 269.148438 222.65625 268.765625 222.695312 268.386719 222.769531 C 268.011719 222.84375 267.644531 222.957031 267.289062 223.101562 C 266.933594 223.25 266.597656 223.429688 266.277344 223.644531 C 265.957031 223.859375 265.660156 224.101562 265.386719 224.371094 L 241.949219 247.808594 C 241.679688 248.082031 241.4375 248.378906 241.222656 248.699219 C 241.007812 249.019531 240.828125 249.355469 240.679688 249.710938 C 240.535156 250.066406 240.421875 250.433594 240.347656 250.808594 C 240.273438 251.1875 240.234375 251.570312 240.234375 251.953125 C 240.234375 252.335938 240.273438 252.71875 240.347656 253.097656 C 240.421875 253.472656 240.535156 253.839844 240.679688 254.195312 C 240.828125 254.550781 241.007812 254.886719 241.222656 255.207031 C 241.4375 255.527344 241.679688 255.824219 241.949219 256.09375 L 265.386719 279.53125 C 265.664062 279.796875 265.957031 280.03125 266.277344 280.238281 C 266.597656 280.445312 266.933594 280.621094 267.289062 280.761719 C 267.640625 280.902344 268.003906 281.007812 268.378906 281.078125 C 268.753906 281.148438 269.128906 281.179688 269.511719 281.179688 C 269.890625 281.175781 270.265625 281.132812 270.640625 281.058594 C 271.011719 280.980469 271.375 280.871094 271.726562 280.722656 C 272.074219 280.574219 272.410156 280.394531 272.726562 280.183594 C 273.042969 279.972656 273.332031 279.730469 273.601562 279.460938 C 273.871094 279.191406 274.113281 278.902344 274.324219 278.585938 C 274.535156 278.269531 274.714844 277.933594 274.863281 277.585938 C 275.011719 277.234375 275.121094 276.871094 275.199219 276.5 C 275.277344 276.125 275.316406 275.75 275.320312 275.371094 C 275.320312 274.988281 275.289062 274.613281 275.21875 274.238281 C 275.148438 273.863281 275.042969 273.5 274.902344 273.148438 C 274.761719 272.792969 274.585938 272.457031 274.378906 272.136719 C 274.171875 271.816406 273.9375 271.523438 273.671875 271.246094 L 254.378906 251.953125 L 273.671875 232.65625 C 273.945312 232.386719 274.1875 232.089844 274.402344 231.769531 C 274.617188 231.449219 274.796875 231.113281 274.945312 230.757812 C 275.089844 230.402344 275.203125 230.035156 275.277344 229.660156 C 275.351562 229.28125 275.390625 228.898438 275.390625 228.515625 C 275.390625 228.132812 275.351562 227.75 275.277344 227.371094 C 275.203125 226.996094 275.089844 226.628906 274.945312 226.273438 C 274.796875 225.917969 274.617188 225.582031 274.402344 225.261719 C 274.1875 224.941406 273.945312 224.644531 273.671875 224.371094 Z M 273.671875 224.371094 " clip-rule="nonzero"></path></clipPath><linearGradient x1="44" gradientTransform="matrix(5.859375, 0, 0, 5.859375, 0.0000045, 0)" y1="47.988284" x2="44" gradientUnits="userSpaceOnUse" y2="38.000209" id="407cc40216"><stop stop-opacity="1" stop-color="rgb(6.282043%, 44.393921%, 79.072571%)" offset="0"></stop><stop stop-opacity="1" stop-color="rgb(6.25%, 44.203186%, 78.926086%)" offset="0.0625"></stop><stop stop-opacity="1" stop-color="rgb(6.184387%, 43.821716%, 78.634644%)" offset="0.125"></stop><stop stop-opacity="1" stop-color="rgb(6.1203%, 43.440247%, 78.343201%)" offset="0.1875"></stop><stop stop-opacity="1" stop-color="rgb(6.054688%, 43.060303%, 78.050232%)" offset="0.25"></stop><stop stop-opacity="1" stop-color="rgb(5.990601%, 42.678833%, 77.758789%)" offset="0.3125"></stop><stop stop-opacity="1" stop-color="rgb(5.924988%, 42.298889%, 77.467346%)" offset="0.375"></stop><stop stop-opacity="1" stop-color="rgb(5.860901%, 41.917419%, 77.174377%)" offset="0.4375"></stop><stop stop-opacity="1" stop-color="rgb(5.795288%, 41.53595%, 76.882935%)" offset="0.5"></stop><stop stop-opacity="1" stop-color="rgb(5.729675%, 41.156006%, 76.591492%)" offset="0.5625"></stop><stop stop-opacity="1" stop-color="rgb(5.665588%, 40.774536%, 76.298523%)" offset="0.625"></stop><stop stop-opacity="1" stop-color="rgb(5.599976%, 40.393066%, 76.00708%)" offset="0.6875"></stop><stop stop-opacity="1" stop-color="rgb(5.535889%, 40.013123%, 75.715637%)" offset="0.75"></stop><stop stop-opacity="1" stop-color="rgb(5.470276%, 39.631653%, 75.422668%)" offset="0.8125"></stop><stop stop-opacity="1" stop-color="rgb(5.406189%, 39.250183%, 75.131226%)" offset="0.875"></stop><stop stop-opacity="1" stop-color="rgb(5.340576%, 38.870239%, 74.838257%)" offset="0.9375"></stop><stop stop-opacity="1" stop-color="rgb(5.276489%, 38.48877%, 74.546814%)" offset="1"></stop></linearGradient><clipPath id="c586835a27"><path d="M 310 222 L 346 222 L 346 282 L 310 282 Z M 310 222 " clip-rule="nonzero"></path></clipPath><clipPath id="fe830c2bb9"><path d="M 343.984375 247.808594 L 320.546875 224.371094 C 320.273438 224.109375 319.980469 223.875 319.660156 223.667969 C 319.339844 223.460938 319.003906 223.285156 318.648438 223.144531 C 318.296875 223.003906 317.933594 222.898438 317.558594 222.828125 C 317.183594 222.757812 316.808594 222.726562 316.425781 222.726562 C 316.046875 222.730469 315.671875 222.769531 315.296875 222.847656 C 314.925781 222.925781 314.5625 223.035156 314.210938 223.183594 C 313.863281 223.332031 313.527344 223.511719 313.210938 223.722656 C 312.894531 223.933594 312.605469 224.175781 312.335938 224.445312 C 312.066406 224.714844 311.824219 225.003906 311.613281 225.320312 C 311.402344 225.636719 311.222656 225.972656 311.074219 226.320312 C 310.925781 226.671875 310.816406 227.035156 310.738281 227.40625 C 310.660156 227.78125 310.621094 228.15625 310.617188 228.535156 C 310.617188 228.917969 310.648438 229.292969 310.71875 229.667969 C 310.789062 230.042969 310.894531 230.40625 311.035156 230.757812 C 311.175781 231.113281 311.351562 231.449219 311.558594 231.769531 C 311.765625 232.089844 312 232.382812 312.261719 232.65625 L 331.558594 251.953125 L 312.261719 271.246094 C 311.984375 271.519531 311.734375 271.8125 311.511719 272.132812 C 311.292969 272.453125 311.105469 272.792969 310.949219 273.148438 C 310.796875 273.507812 310.679688 273.875 310.601562 274.257812 C 310.519531 274.636719 310.480469 275.023438 310.476562 275.410156 C 310.472656 275.800781 310.507812 276.1875 310.582031 276.566406 C 310.652344 276.949219 310.765625 277.320312 310.910156 277.679688 C 311.058594 278.042969 311.238281 278.382812 311.457031 278.707031 C 311.671875 279.03125 311.917969 279.332031 312.191406 279.605469 C 312.464844 279.878906 312.765625 280.125 313.089844 280.339844 C 313.414062 280.558594 313.753906 280.738281 314.117188 280.886719 C 314.476562 281.03125 314.847656 281.144531 315.230469 281.214844 C 315.609375 281.289062 315.996094 281.324219 316.386719 281.320312 C 316.773438 281.316406 317.160156 281.277344 317.539062 281.195312 C 317.921875 281.117188 318.289062 281 318.648438 280.847656 C 319.003906 280.691406 319.34375 280.503906 319.664062 280.285156 C 319.984375 280.0625 320.277344 279.8125 320.546875 279.53125 L 343.984375 256.09375 C 344.257812 255.824219 344.5 255.527344 344.714844 255.207031 C 344.929688 254.886719 345.109375 254.550781 345.257812 254.195312 C 345.402344 253.839844 345.515625 253.472656 345.589844 253.097656 C 345.664062 252.71875 345.703125 252.335938 345.703125 251.953125 C 345.703125 251.570312 345.664062 251.1875 345.589844 250.808594 C 345.515625 250.433594 345.402344 250.066406 345.257812 249.710938 C 345.109375 249.355469 344.929688 249.019531 344.714844 248.699219 C 344.5 248.378906 344.257812 248.082031 343.984375 247.808594 Z M 343.984375 247.808594 " clip-rule="nonzero"></path></clipPath><linearGradient x1="56" gradientTransform="matrix(5.859375, 0, 0, 5.859375, 0.0000045, 0)" y1="48.012782" x2="56" gradientUnits="userSpaceOnUse" y2="38.011718" id="0d364efe7c"><stop stop-opacity="1" stop-color="rgb(6.285095%, 44.40918%, 79.084778%)" offset="0"></stop><stop stop-opacity="1" stop-color="rgb(6.251526%, 44.218445%, 78.938293%)" offset="0.0625"></stop><stop stop-opacity="1" stop-color="rgb(6.187439%, 43.836975%, 78.645325%)" offset="0.125"></stop><stop stop-opacity="1" stop-color="rgb(6.121826%, 43.455505%, 78.353882%)" offset="0.1875"></stop><stop stop-opacity="1" stop-color="rgb(6.057739%, 43.074036%, 78.060913%)" offset="0.25"></stop><stop stop-opacity="1" stop-color="rgb(5.992126%, 42.692566%, 77.76947%)" offset="0.3125"></stop><stop stop-opacity="1" stop-color="rgb(5.926514%, 42.311096%, 77.476501%)" offset="0.375"></stop><stop stop-opacity="1" stop-color="rgb(5.862427%, 41.929626%, 77.183533%)" offset="0.4375"></stop><stop stop-opacity="1" stop-color="rgb(5.796814%, 41.548157%, 76.89209%)" offset="0.5"></stop><stop stop-opacity="1" stop-color="rgb(5.732727%, 41.166687%, 76.599121%)" offset="0.5625"></stop><stop stop-opacity="1" stop-color="rgb(5.667114%, 40.785217%, 76.306152%)" offset="0.625"></stop><stop stop-opacity="1" stop-color="rgb(5.601501%, 40.403748%, 76.014709%)" offset="0.6875"></stop><stop stop-opacity="1" stop-color="rgb(5.537415%, 40.022278%, 75.721741%)" offset="0.75"></stop><stop stop-opacity="1" stop-color="rgb(5.471802%, 39.640808%, 75.430298%)" offset="0.8125"></stop><stop stop-opacity="1" stop-color="rgb(5.407715%, 39.259338%, 75.137329%)" offset="0.875"></stop><stop stop-opacity="1" stop-color="rgb(5.342102%, 38.877869%, 74.84436%)" offset="0.9375"></stop><stop stop-opacity="1" stop-color="rgb(5.278015%, 38.496399%, 74.552917%)" offset="1"></stop></linearGradient><clipPath id="7483453391"><path d="M 275 205 L 311 205 L 311 299 L 275 299 Z M 275 205 " clip-rule="nonzero"></path></clipPath><clipPath id="887960fd55"><path d="M 306.292969 205.304688 C 305.921875 205.199219 305.546875 205.132812 305.164062 205.101562 C 304.78125 205.070312 304.398438 205.074219 304.015625 205.121094 C 303.632812 205.164062 303.257812 205.242188 302.894531 205.363281 C 302.527344 205.480469 302.175781 205.628906 301.839844 205.816406 C 301.503906 206.003906 301.1875 206.222656 300.894531 206.46875 C 300.601562 206.71875 300.335938 206.992188 300.097656 207.292969 C 299.855469 207.59375 299.648438 207.917969 299.472656 208.257812 C 299.296875 208.601562 299.15625 208.957031 299.050781 209.328125 L 275.613281 291.355469 C 275.507812 291.726562 275.4375 292.105469 275.40625 292.488281 C 275.375 292.871094 275.382812 293.253906 275.425781 293.636719 C 275.472656 294.019531 275.554688 294.394531 275.671875 294.761719 C 275.789062 295.125 275.941406 295.476562 276.128906 295.8125 C 276.316406 296.148438 276.535156 296.464844 276.78125 296.757812 C 277.03125 297.050781 277.308594 297.316406 277.609375 297.554688 C 277.910156 297.796875 278.234375 298.003906 278.574219 298.179688 C 278.917969 298.355469 279.273438 298.496094 279.644531 298.597656 C 280.167969 298.753906 280.703125 298.828125 281.25 298.828125 C 281.886719 298.828125 282.507812 298.726562 283.109375 298.523438 C 283.710938 298.320312 284.269531 298.03125 284.777344 297.644531 C 285.285156 297.261719 285.71875 296.808594 286.078125 296.285156 C 286.4375 295.761719 286.707031 295.191406 286.878906 294.582031 L 310.316406 212.550781 C 310.425781 212.179688 310.492188 211.800781 310.523438 211.417969 C 310.554688 211.035156 310.550781 210.652344 310.503906 210.269531 C 310.460938 209.886719 310.378906 209.515625 310.261719 209.148438 C 310.144531 208.78125 309.992188 208.429688 309.804688 208.09375 C 309.617188 207.757812 309.402344 207.441406 309.152344 207.148438 C 308.902344 206.855469 308.628906 206.589844 308.328125 206.351562 C 308.023438 206.113281 307.703125 205.90625 307.359375 205.730469 C 307.019531 205.554688 306.664062 205.414062 306.292969 205.308594 Z M 306.292969 205.304688 " clip-rule="nonzero"></path></clipPath><linearGradient x1="50" gradientTransform="matrix(5.859375, 0, 0, 5.859375, 0.0000045, 0)" y1="51.000281" x2="50" gradientUnits="userSpaceOnUse" y2="34.998515" id="d59761dea7"><stop stop-opacity="1" stop-color="rgb(6.594849%, 46.231079%, 80.482483%)" offset="0"></stop><stop stop-opacity="1" stop-color="rgb(6.568909%, 46.078491%, 80.36499%)" offset="0.03125"></stop><stop stop-opacity="1" stop-color="rgb(6.517029%, 45.773315%, 80.130005%)" offset="0.0625"></stop><stop stop-opacity="1" stop-color="rgb(6.465149%, 45.46814%, 79.896545%)" offset="0.09375"></stop><stop stop-opacity="1" stop-color="rgb(6.413269%, 45.162964%, 79.663086%)" offset="0.125"></stop><stop stop-opacity="1" stop-color="rgb(6.361389%, 44.857788%, 79.429626%)" offset="0.15625"></stop><stop stop-opacity="1" stop-color="rgb(6.309509%, 44.552612%, 79.194641%)" offset="0.1875"></stop><stop stop-opacity="1" stop-color="rgb(6.257629%, 44.247437%, 78.961182%)" offset="0.21875"></stop><stop stop-opacity="1" stop-color="rgb(6.20575%, 43.942261%, 78.727722%)" offset="0.25"></stop><stop stop-opacity="1" stop-color="rgb(6.15387%, 43.637085%, 78.492737%)" offset="0.28125"></stop><stop stop-opacity="1" stop-color="rgb(6.10199%, 43.333435%, 78.259277%)" offset="0.3125"></stop><stop stop-opacity="1" stop-color="rgb(6.05011%, 43.028259%, 78.025818%)" offset="0.34375"></stop><stop stop-opacity="1" stop-color="rgb(5.99823%, 42.723083%, 77.792358%)" offset="0.375"></stop><stop stop-opacity="1" stop-color="rgb(5.94635%, 42.417908%, 77.557373%)" offset="0.40625"></stop><stop stop-opacity="1" stop-color="rgb(5.892944%, 42.112732%, 77.323914%)" offset="0.4375"></stop><stop stop-opacity="1" stop-color="rgb(5.841064%, 41.807556%, 77.090454%)" offset="0.46875"></stop><stop stop-opacity="1" stop-color="rgb(5.789185%, 41.50238%, 76.855469%)" offset="0.5"></stop><stop stop-opacity="1" stop-color="rgb(5.737305%, 41.197205%, 76.622009%)" offset="0.53125"></stop><stop stop-opacity="1" stop-color="rgb(5.685425%, 40.892029%, 76.38855%)" offset="0.5625"></stop><stop stop-opacity="1" stop-color="rgb(5.633545%, 40.586853%, 76.15509%)" offset="0.59375"></stop><stop stop-opacity="1" stop-color="rgb(5.581665%, 40.281677%, 75.920105%)" offset="0.625"></stop><stop stop-opacity="1" stop-color="rgb(5.529785%, 39.976501%, 75.686646%)" offset="0.65625"></stop><stop stop-opacity="1" stop-color="rgb(5.477905%, 39.671326%, 75.453186%)" offset="0.6875"></stop><stop stop-opacity="1" stop-color="rgb(5.426025%, 39.36615%, 75.218201%)" offset="0.71875"></stop><stop stop-opacity="1" stop-color="rgb(5.374146%, 39.060974%, 74.984741%)" offset="0.75"></stop><stop stop-opacity="1" stop-color="rgb(5.322266%, 38.755798%, 74.751282%)" offset="0.78125"></stop><stop stop-opacity="1" stop-color="rgb(5.270386%, 38.450623%, 74.517822%)" offset="0.8125"></stop><stop stop-opacity="1" stop-color="rgb(5.218506%, 38.145447%, 74.282837%)" offset="0.84375"></stop><stop stop-opacity="1" stop-color="rgb(5.166626%, 37.840271%, 74.049377%)" offset="0.875"></stop><stop stop-opacity="1" stop-color="rgb(5.114746%, 37.535095%, 73.815918%)" offset="0.90625"></stop><stop stop-opacity="1" stop-color="rgb(5.06134%, 37.229919%, 73.580933%)" offset="0.9375"></stop><stop stop-opacity="1" stop-color="rgb(5.00946%, 36.924744%, 73.347473%)" offset="0.96875"></stop><stop stop-opacity="1" stop-color="rgb(4.957581%, 36.619568%, 73.114014%)" offset="1"></stop></linearGradient></defs><g clip-path="url(#55a2ae2c8c)"><g clip-path="url(#f6389f8493)"><path fill="url(#3418cb9101)" d="M 11.71875 11.71875 L 11.71875 363.28125 L 363.28125 363.28125 L 363.28125 11.71875 Z M 11.71875 11.71875 " fill-rule="nonzero"></path></g></g><g clip-path="url(#b23fe18e73)"><g clip-path="url(#5cd7f3eb1c)"><path fill="url(#953ccc3361)" d="M 35.15625 35.15625 L 35.15625 46.875 L 52.734375 46.875 L 52.734375 35.15625 Z M 35.15625 35.15625 " fill-rule="nonzero"></path></g></g><g clip-path="url(#0e9a26b09b)"><g clip-path="url(#fffe56b26a)"><path fill="url(#4ff1938919)" d="M 58.59375 35.15625 L 58.59375 46.875 L 76.171875 46.875 L 76.171875 35.15625 Z M 58.59375 35.15625 " fill-rule="nonzero"></path></g></g><g clip-path="url(#32324b51b1)"><g clip-path="url(#9963603586)"><path fill="url(#43d655f3e4)" d="M 82.03125 35.15625 L 82.03125 46.875 L 99.609375 46.875 L 99.609375 35.15625 Z M 82.03125 35.15625 " fill-rule="nonzero"></path></g></g><g clip-path="url(#c98e145fa5)"><g clip-path="url(#b5c145f961)"><path fill="url(#3aca71a642)" d="M 35.15625 105.46875 L 35.15625 246.09375 L 210.9375 246.09375 L 210.9375 105.46875 Z M 35.15625 105.46875 " fill-rule="nonzero"></path></g></g><g clip-path="url(#291a591564)"><g clip-path="url(#ceb1405212)"><path fill="url(#59f455673d)" d="M 128.90625 128.90625 L 128.90625 164.0625 L 164.0625 164.0625 L 164.0625 128.90625 Z M 128.90625 128.90625 " fill-rule="nonzero"></path></g></g><g clip-path="url(#332d879d16)"><g clip-path="url(#8e24ea670d)"><path fill="url(#cca5459a58)" d="M 123.046875 35.15625 L 123.046875 46.875 L 339.84375 46.875 L 339.84375 35.15625 Z M 123.046875 35.15625 " fill-rule="nonzero"></path></g></g><g clip-path="url(#9a222b5cfd)"><g clip-path="url(#693e9e9f52)"><path fill="url(#8bd16f41f6)" d="M 281.25 333.984375 L 281.25 345.703125 L 304.6875 345.703125 L 304.6875 333.984375 Z M 281.25 333.984375 " fill-rule="nonzero"></path></g></g><g clip-path="url(#d1e31dbf31)"><g clip-path="url(#bbe232f030)"><path fill="url(#ee62264400)" d="M 281.25 158.203125 L 281.25 169.921875 L 304.6875 169.921875 L 304.6875 158.203125 Z M 281.25 158.203125 " fill-rule="nonzero"></path></g></g><g clip-path="url(#f927af0a62)"><g clip-path="url(#e1339dbfc8)"><path fill="url(#407cc40216)" d="M 240.234375 222.65625 L 240.234375 281.179688 L 275.390625 281.179688 L 275.390625 222.65625 Z M 240.234375 222.65625 " fill-rule="nonzero"></path></g></g><g clip-path="url(#c586835a27)"><g clip-path="url(#fe830c2bb9)"><path fill="url(#0d364efe7c)" d="M 310.472656 222.726562 L 310.472656 281.324219 L 345.703125 281.324219 L 345.703125 222.726562 Z M 310.472656 222.726562 " fill-rule="nonzero"></path></g></g><g clip-path="url(#7483453391)"><g clip-path="url(#887960fd55)"><path fill="url(#d59761dea7)" d="M 275.375 205.070312 L 275.375 298.828125 L 310.554688 298.828125 L 310.554688 205.070312 Z M 275.375 205.070312 " fill-rule="nonzero"></path></g></g></svg> 